<svg xmlns="http://www.w3.org/2000/svg"
     width="24"
     height="24"
     viewBox="0 0 24 24">
  <path d="M4.639 21.254 C4.628 21.229 4.625 21.202 4.631 21.174 C4.638 21.145 4.651 21.116 4.673 21.087 C4.694 21.058 4.721 21.03 4.754 21.002 C4.787 20.974 4.823 20.948 4.862 20.921 C4.901 20.895 4.942 20.869 4.984 20.844 L5.109 20.766 C5.152 20.739 5.193 20.712 5.235 20.685 C5.276 20.657 5.317 20.628 5.357 20.599 C5.398 20.57 5.438 20.54 5.476 20.509 C5.515 20.477 5.553 20.445 5.59 20.412 C5.627 20.379 5.663 20.345 5.698 20.309 C5.732 20.274 5.765 20.237 5.797 20.2 Q5.844 20.143 5.886 20.082 C5.914 20.042 5.94 20 5.964 19.957 C5.988 19.915 6.01 19.871 6.029 19.826 C6.048 19.781 6.064 19.735 6.078 19.688 Q6.099 19.618 6.112 19.546 C6.121 19.498 6.127 19.45 6.13 19.401 C6.134 19.352 6.135 19.303 6.133 19.254 C6.131 19.205 6.128 19.156 6.122 19.107 C6.116 19.058 6.109 19.009 6.099 18.96 C6.09 18.912 6.08 18.863 6.067 18.815 Q6.049 18.743 6.028 18.671 L5.983 18.528 C5.967 18.481 5.95 18.433 5.933 18.386 L5.882 18.246 L5.829 18.105 L5.776 17.965 C5.758 17.918 5.741 17.871 5.724 17.824 L5.673 17.682 L5.625 17.54 C5.609 17.493 5.593 17.445 5.578 17.398 C5.563 17.35 5.548 17.302 5.534 17.254 C5.519 17.206 5.505 17.158 5.492 17.11 Q5.472 17.038 5.453 16.965 C5.441 16.917 5.429 16.868 5.418 16.82 C5.406 16.771 5.396 16.722 5.386 16.673 C5.376 16.624 5.367 16.575 5.359 16.526 C5.35 16.476 5.342 16.427 5.335 16.378 C5.328 16.328 5.322 16.279 5.316 16.229 C5.31 16.179 5.306 16.13 5.301 16.08 C5.297 16.03 5.294 15.981 5.291 15.931 C5.289 15.881 5.287 15.831 5.287 15.781 C5.286 15.731 5.286 15.681 5.287 15.632 C5.288 15.582 5.29 15.532 5.293 15.482 C5.295 15.432 5.299 15.382 5.303 15.333 Q5.31 15.258 5.319 15.184 Q5.327 15.11 5.339 15.036 C5.346 14.986 5.355 14.937 5.364 14.888 C5.373 14.839 5.382 14.79 5.393 14.741 C5.403 14.692 5.414 14.643 5.426 14.595 C5.438 14.546 5.451 14.498 5.464 14.45 C5.477 14.402 5.491 14.354 5.506 14.306 C5.521 14.258 5.536 14.211 5.552 14.163 C5.568 14.116 5.584 14.069 5.601 14.022 C5.619 13.975 5.636 13.928 5.654 13.882 L5.711 13.743 Q5.74 13.674 5.771 13.606 L5.834 13.47 C5.856 13.425 5.878 13.38 5.901 13.335 C5.923 13.29 5.946 13.246 5.97 13.202 C5.993 13.158 6.018 13.114 6.042 13.071 Q6.079 13.005 6.117 12.941 L6.195 12.813 C6.221 12.77 6.248 12.728 6.275 12.686 C6.303 12.644 6.33 12.602 6.358 12.561 L6.444 12.438 C6.473 12.397 6.503 12.357 6.532 12.317 C6.562 12.277 6.592 12.237 6.623 12.197 C6.653 12.157 6.684 12.118 6.715 12.079 C6.747 12.04 6.778 12.001 6.811 11.963 C6.843 11.925 6.875 11.887 6.908 11.849 Q6.957 11.792 7.007 11.737 L7.109 11.626 L7.213 11.518 C7.247 11.482 7.283 11.446 7.318 11.411 L7.425 11.306 L7.533 11.201 L7.639 11.096 L7.743 10.988 C7.777 10.952 7.81 10.915 7.842 10.877 C7.874 10.839 7.904 10.8 7.933 10.76 C7.962 10.72 7.988 10.68 8.013 10.638 C8.037 10.596 8.058 10.553 8.076 10.509 Q8.104 10.443 8.119 10.375 Q8.135 10.307 8.138 10.237 C8.139 10.191 8.137 10.145 8.13 10.099 C8.122 10.053 8.111 10.007 8.096 9.962 C8.081 9.918 8.062 9.874 8.04 9.831 C8.018 9.787 7.994 9.745 7.967 9.704 Q7.927 9.643 7.882 9.583 C7.853 9.544 7.822 9.505 7.79 9.467 C7.758 9.429 7.725 9.391 7.692 9.353 C7.659 9.316 7.626 9.278 7.592 9.241 L7.491 9.13 L7.389 9.02 L7.287 8.909 L7.186 8.799 L7.084 8.689 L6.982 8.578 Q6.931 8.523 6.881 8.467 C6.847 8.431 6.813 8.393 6.78 8.356 L6.679 8.245 L6.58 8.132 Q6.53 8.076 6.481 8.019 L6.383 7.905 L6.287 7.79 C6.255 7.751 6.223 7.713 6.192 7.674 C6.16 7.635 6.129 7.596 6.098 7.556 C6.067 7.517 6.037 7.477 6.007 7.438 C5.976 7.398 5.947 7.357 5.917 7.317 Q5.873 7.256 5.831 7.195 C5.802 7.154 5.775 7.112 5.747 7.07 C5.72 7.028 5.694 6.986 5.668 6.943 L5.593 6.813 C5.569 6.769 5.546 6.725 5.524 6.681 C5.502 6.636 5.48 6.591 5.46 6.546 C5.44 6.5 5.42 6.454 5.402 6.408 C5.383 6.362 5.366 6.315 5.349 6.268 Q5.324 6.197 5.303 6.126 C5.288 6.078 5.275 6.03 5.263 5.982 C5.251 5.933 5.239 5.885 5.229 5.836 C5.219 5.787 5.21 5.738 5.202 5.689 C5.195 5.64 5.188 5.59 5.182 5.541 C5.176 5.491 5.172 5.442 5.168 5.392 C5.165 5.342 5.162 5.293 5.161 5.243 C5.16 5.193 5.16 5.143 5.16 5.093 C5.161 5.043 5.163 4.994 5.166 4.944 Q5.171 4.869 5.179 4.795 C5.184 4.745 5.19 4.696 5.198 4.647 C5.205 4.597 5.214 4.548 5.224 4.5 C5.234 4.451 5.245 4.402 5.258 4.354 C5.27 4.306 5.284 4.258 5.299 4.211 C5.314 4.163 5.33 4.116 5.347 4.069 C5.364 4.022 5.383 3.976 5.402 3.93 C5.421 3.884 5.441 3.839 5.463 3.793 C5.484 3.748 5.506 3.703 5.528 3.659 C5.551 3.615 5.575 3.571 5.599 3.527 C5.623 3.483 5.648 3.44 5.674 3.397 C5.7 3.354 5.726 3.312 5.754 3.27 C5.781 3.228 5.809 3.187 5.838 3.146 C5.866 3.105 5.896 3.065 5.926 3.026 C5.956 2.986 5.987 2.947 6.019 2.909 C6.051 2.87 6.084 2.833 6.117 2.797 C6.151 2.761 6.186 2.727 6.221 2.694 C6.257 2.661 6.294 2.631 6.331 2.604 C6.369 2.576 6.407 2.554 6.446 2.535 C6.484 2.517 6.522 2.504 6.56 2.498 C6.598 2.491 6.633 2.492 6.667 2.5 C6.7 2.508 6.73 2.523 6.756 2.546 Q6.796 2.579 6.824 2.631 Q6.851 2.682 6.867 2.746 C6.878 2.788 6.887 2.833 6.893 2.88 C6.898 2.927 6.903 2.975 6.907 3.024 C6.91 3.073 6.914 3.122 6.918 3.172 C6.921 3.221 6.925 3.271 6.93 3.32 C6.935 3.37 6.941 3.42 6.948 3.469 C6.955 3.518 6.962 3.568 6.971 3.617 C6.98 3.666 6.989 3.715 7 3.764 C7.011 3.812 7.022 3.861 7.035 3.909 C7.047 3.957 7.061 4.005 7.075 4.053 C7.09 4.101 7.105 4.148 7.122 4.195 Q7.146 4.266 7.174 4.335 C7.192 4.382 7.212 4.428 7.232 4.473 C7.252 4.519 7.273 4.564 7.295 4.609 C7.317 4.654 7.34 4.699 7.363 4.743 C7.386 4.787 7.41 4.831 7.435 4.874 C7.46 4.918 7.485 4.961 7.511 5.003 Q7.55 5.068 7.59 5.131 C7.617 5.173 7.645 5.215 7.673 5.256 L7.758 5.38 C7.787 5.42 7.816 5.461 7.846 5.501 C7.875 5.542 7.905 5.582 7.936 5.621 C7.966 5.661 7.997 5.701 8.028 5.74 C8.059 5.779 8.09 5.818 8.122 5.857 L8.218 5.972 C8.25 6.01 8.283 6.048 8.316 6.086 C8.348 6.124 8.381 6.162 8.414 6.199 L8.514 6.311 L8.615 6.422 L8.717 6.533 L8.819 6.643 C8.854 6.679 8.888 6.716 8.922 6.752 L9.025 6.862 C9.059 6.898 9.093 6.935 9.128 6.971 L9.23 7.081 L9.333 7.191 C9.367 7.228 9.401 7.264 9.434 7.301 L9.536 7.412 L9.637 7.523 L9.839 7.745 L9.94 7.857 L10.041 7.968 L10.142 8.079 L10.244 8.189 L10.346 8.3 L10.448 8.409 C10.482 8.446 10.516 8.483 10.551 8.519 C10.585 8.556 10.619 8.592 10.654 8.628 L10.757 8.738 L10.86 8.846 L10.964 8.955 L11.068 9.063 C11.103 9.099 11.137 9.136 11.172 9.171 L11.276 9.28 L11.381 9.387 L11.486 9.495 L11.59 9.603 L11.695 9.71 L11.8 9.818 L11.905 9.925 L12.01 10.033 L12.115 10.14 L12.22 10.248 L12.325 10.355 L12.43 10.462 L12.534 10.57 L12.639 10.678 Q12.692 10.731 12.744 10.785 L12.848 10.893 L12.953 11.001 L13.161 11.217 L13.369 11.435 L13.472 11.543 L13.576 11.652 L13.681 11.758 Q13.734 11.811 13.788 11.861 C13.825 11.895 13.862 11.926 13.9 11.956 C13.938 11.986 13.978 12.013 14.019 12.038 Q14.08 12.074 14.144 12.099 C14.187 12.116 14.231 12.128 14.275 12.135 C14.32 12.142 14.364 12.144 14.407 12.141 C14.451 12.137 14.493 12.128 14.534 12.113 C14.575 12.099 14.613 12.079 14.649 12.054 C14.685 12.029 14.718 11.999 14.748 11.966 C14.778 11.932 14.805 11.895 14.83 11.855 C14.854 11.815 14.877 11.773 14.897 11.729 C14.918 11.684 14.937 11.639 14.955 11.593 C14.973 11.547 14.99 11.5 15.006 11.453 L15.056 11.312 C15.072 11.265 15.088 11.217 15.105 11.17 C15.121 11.123 15.138 11.076 15.155 11.029 L15.207 10.888 L15.262 10.748 Q15.29 10.678 15.319 10.609 C15.338 10.563 15.358 10.517 15.378 10.471 Q15.408 10.403 15.44 10.335 C15.461 10.29 15.483 10.245 15.505 10.2 C15.528 10.155 15.55 10.11 15.574 10.066 Q15.608 10 15.645 9.934 C15.669 9.89 15.694 9.847 15.719 9.804 C15.744 9.76 15.77 9.717 15.796 9.675 C15.822 9.632 15.848 9.589 15.875 9.547 C15.902 9.505 15.929 9.463 15.957 9.421 L16.04 9.297 C16.068 9.255 16.097 9.214 16.125 9.173 C16.154 9.132 16.182 9.091 16.21 9.05 L16.292 8.925 C16.319 8.883 16.344 8.841 16.368 8.798 C16.392 8.755 16.413 8.712 16.432 8.667 C16.451 8.623 16.466 8.578 16.478 8.533 C16.49 8.488 16.498 8.442 16.501 8.397 C16.504 8.351 16.503 8.306 16.496 8.262 C16.489 8.218 16.478 8.175 16.461 8.135 C16.444 8.094 16.422 8.055 16.396 8.019 Q16.356 7.964 16.305 7.916 C16.271 7.885 16.234 7.855 16.195 7.827 Q16.136 7.785 16.073 7.747 C16.031 7.721 15.988 7.696 15.945 7.671 L15.814 7.598 L15.684 7.524 C15.641 7.499 15.597 7.474 15.555 7.448 C15.512 7.423 15.469 7.396 15.427 7.37 C15.384 7.343 15.342 7.316 15.301 7.288 C15.259 7.261 15.218 7.232 15.177 7.204 C15.136 7.175 15.096 7.145 15.057 7.115 C15.017 7.084 14.978 7.053 14.94 7.021 C14.902 6.989 14.864 6.956 14.828 6.923 C14.791 6.889 14.756 6.854 14.722 6.818 C14.687 6.782 14.654 6.746 14.622 6.708 C14.59 6.67 14.56 6.631 14.531 6.591 C14.502 6.551 14.475 6.509 14.45 6.467 Q14.411 6.404 14.378 6.338 C14.356 6.293 14.335 6.248 14.317 6.202 C14.298 6.157 14.282 6.11 14.267 6.063 C14.252 6.016 14.239 5.968 14.227 5.92 C14.216 5.872 14.207 5.824 14.2 5.775 C14.192 5.726 14.186 5.677 14.183 5.627 C14.179 5.578 14.177 5.529 14.177 5.479 C14.177 5.43 14.178 5.38 14.182 5.331 C14.185 5.281 14.191 5.232 14.198 5.183 C14.205 5.134 14.214 5.085 14.224 5.037 C14.235 4.988 14.246 4.94 14.26 4.892 C14.273 4.844 14.288 4.797 14.304 4.75 C14.32 4.702 14.337 4.656 14.355 4.609 C14.373 4.563 14.393 4.517 14.413 4.471 Q14.443 4.402 14.475 4.335 C14.496 4.29 14.519 4.245 14.541 4.201 C14.564 4.156 14.588 4.112 14.612 4.068 C14.636 4.024 14.661 3.981 14.686 3.938 C14.711 3.895 14.737 3.852 14.764 3.81 C14.79 3.767 14.817 3.725 14.845 3.684 C14.873 3.643 14.902 3.602 14.931 3.562 C14.961 3.522 14.992 3.484 15.023 3.446 C15.055 3.409 15.088 3.373 15.122 3.34 C15.156 3.306 15.191 3.276 15.228 3.249 C15.265 3.222 15.302 3.2 15.341 3.183 C15.379 3.166 15.417 3.155 15.454 3.151 C15.491 3.146 15.526 3.149 15.559 3.159 Q15.609 3.174 15.647 3.21 C15.673 3.234 15.694 3.264 15.711 3.299 C15.728 3.334 15.742 3.373 15.751 3.415 Q15.766 3.479 15.774 3.549 C15.78 3.596 15.786 3.643 15.791 3.691 C15.797 3.739 15.804 3.788 15.812 3.836 C15.82 3.884 15.831 3.932 15.843 3.979 Q15.862 4.05 15.888 4.118 C15.905 4.164 15.925 4.208 15.947 4.251 C15.97 4.295 15.994 4.336 16.022 4.376 C16.049 4.417 16.078 4.455 16.11 4.492 C16.142 4.529 16.176 4.564 16.212 4.598 C16.247 4.631 16.285 4.663 16.324 4.694 C16.363 4.724 16.402 4.753 16.444 4.78 C16.485 4.808 16.527 4.834 16.57 4.859 C16.613 4.885 16.656 4.909 16.7 4.933 C16.744 4.957 16.788 4.98 16.833 5.003 L16.966 5.071 L17.101 5.138 C17.145 5.161 17.19 5.183 17.235 5.206 L17.368 5.275 L17.501 5.345 L17.632 5.418 C17.675 5.442 17.719 5.468 17.762 5.493 L17.89 5.572 C17.932 5.598 17.974 5.626 18.015 5.654 C18.056 5.681 18.097 5.71 18.137 5.739 C18.178 5.769 18.218 5.799 18.257 5.83 C18.296 5.861 18.334 5.893 18.372 5.925 C18.41 5.958 18.447 5.991 18.483 6.025 C18.519 6.06 18.554 6.095 18.588 6.131 C18.622 6.167 18.655 6.204 18.687 6.242 C18.719 6.28 18.75 6.319 18.78 6.359 C18.809 6.399 18.838 6.439 18.865 6.481 C18.892 6.523 18.918 6.565 18.943 6.608 C18.968 6.651 18.991 6.695 19.013 6.74 C19.035 6.784 19.056 6.829 19.075 6.875 C19.095 6.921 19.113 6.967 19.129 7.014 Q19.155 7.084 19.176 7.156 C19.19 7.203 19.203 7.251 19.215 7.3 Q19.232 7.372 19.246 7.446 C19.255 7.495 19.263 7.544 19.269 7.593 C19.276 7.642 19.281 7.692 19.285 7.741 C19.289 7.791 19.292 7.841 19.293 7.89 C19.294 7.94 19.294 7.99 19.293 8.04 C19.291 8.089 19.288 8.139 19.284 8.188 C19.279 8.238 19.273 8.287 19.266 8.336 C19.259 8.386 19.25 8.434 19.24 8.483 C19.23 8.532 19.219 8.581 19.207 8.629 C19.195 8.677 19.181 8.725 19.167 8.773 C19.153 8.821 19.138 8.868 19.122 8.916 Q19.098 8.986 19.071 9.057 C19.053 9.103 19.034 9.149 19.015 9.195 C18.995 9.241 18.974 9.286 18.953 9.33 C18.931 9.375 18.908 9.418 18.884 9.459 C18.859 9.501 18.834 9.54 18.806 9.576 C18.779 9.613 18.751 9.644 18.721 9.672 C18.691 9.699 18.661 9.72 18.63 9.734 C18.598 9.748 18.568 9.754 18.538 9.751 C18.508 9.749 18.479 9.738 18.453 9.72 C18.427 9.701 18.402 9.675 18.381 9.644 C18.359 9.612 18.339 9.576 18.32 9.536 L18.265 9.411 C18.247 9.368 18.228 9.325 18.207 9.282 Q18.175 9.218 18.137 9.159 C18.111 9.12 18.083 9.084 18.052 9.051 C18.02 9.018 17.986 8.989 17.95 8.965 C17.913 8.941 17.874 8.923 17.834 8.909 C17.793 8.896 17.75 8.888 17.707 8.887 C17.664 8.885 17.62 8.888 17.576 8.897 C17.532 8.906 17.488 8.92 17.445 8.938 C17.402 8.956 17.36 8.977 17.319 9.002 C17.278 9.027 17.238 9.054 17.199 9.084 Q17.148 9.123 17.1 9.167 L17.057 9.211 C17.025 9.244 16.993 9.278 16.961 9.315 C16.929 9.352 16.898 9.389 16.866 9.428 C16.835 9.467 16.805 9.507 16.776 9.547 C16.746 9.587 16.717 9.627 16.688 9.668 Q16.645 9.73 16.604 9.792 C16.576 9.834 16.549 9.876 16.522 9.918 C16.495 9.96 16.469 10.003 16.443 10.046 Q16.404 10.11 16.366 10.175 C16.341 10.218 16.317 10.262 16.293 10.306 C16.268 10.35 16.245 10.394 16.222 10.438 C16.199 10.482 16.176 10.527 16.154 10.572 C16.131 10.617 16.109 10.662 16.088 10.707 L16.025 10.843 C16.004 10.889 15.984 10.934 15.965 10.98 C15.945 11.026 15.926 11.073 15.907 11.119 C15.889 11.165 15.871 11.212 15.854 11.259 C15.836 11.306 15.82 11.353 15.804 11.4 C15.788 11.448 15.773 11.495 15.758 11.543 C15.744 11.591 15.73 11.639 15.717 11.688 C15.705 11.736 15.693 11.784 15.682 11.833 C15.671 11.882 15.661 11.931 15.652 11.98 C15.643 12.029 15.635 12.078 15.628 12.127 C15.621 12.177 15.616 12.226 15.611 12.276 C15.607 12.325 15.604 12.375 15.601 12.425 C15.599 12.475 15.599 12.524 15.599 12.574 C15.6 12.624 15.602 12.674 15.606 12.723 C15.609 12.773 15.614 12.822 15.621 12.871 C15.628 12.92 15.636 12.969 15.646 13.018 C15.656 13.067 15.667 13.115 15.68 13.163 C15.693 13.21 15.708 13.258 15.724 13.305 C15.74 13.352 15.758 13.398 15.777 13.444 C15.796 13.49 15.816 13.536 15.838 13.58 C15.859 13.625 15.882 13.669 15.906 13.713 C15.93 13.757 15.954 13.8 15.98 13.843 C16.006 13.886 16.032 13.928 16.06 13.97 C16.087 14.012 16.115 14.053 16.144 14.094 C16.172 14.135 16.201 14.176 16.231 14.216 L16.321 14.336 L16.414 14.454 C16.445 14.493 16.476 14.533 16.508 14.572 L16.602 14.688 L16.698 14.804 L16.795 14.919 L16.892 15.034 C16.924 15.072 16.956 15.11 16.989 15.148 C17.021 15.187 17.053 15.225 17.086 15.263 L17.183 15.377 C17.216 15.415 17.248 15.454 17.28 15.492 C17.313 15.53 17.345 15.568 17.377 15.607 L17.474 15.722 L17.569 15.838 C17.601 15.877 17.632 15.916 17.663 15.955 C17.695 15.994 17.726 16.033 17.757 16.072 L17.849 16.191 L17.939 16.311 L18.028 16.432 Q18.072 16.492 18.113 16.554 C17.8 16.104 17.439 15.684 17.078 15.263 L17.144 15.341 L17.241 15.456 L17.338 15.57 L17.53 15.802 L17.625 15.918 L17.718 16.035 C17.749 16.075 17.78 16.114 17.81 16.154 Q17.856 16.213 17.901 16.273 L17.99 16.394 L18.077 16.517 C18.105 16.558 18.134 16.599 18.161 16.641 C18.189 16.682 18.217 16.724 18.244 16.766 C18.271 16.808 18.297 16.851 18.323 16.893 C18.349 16.936 18.375 16.979 18.4 17.022 L18.473 17.153 C18.497 17.197 18.52 17.241 18.543 17.286 C18.565 17.33 18.587 17.375 18.608 17.42 C18.63 17.465 18.651 17.511 18.671 17.557 C18.691 17.602 18.71 17.648 18.729 17.695 C18.747 17.741 18.765 17.788 18.782 17.835 Q18.808 17.905 18.83 17.976 C18.846 18.024 18.86 18.072 18.873 18.12 C18.887 18.168 18.899 18.216 18.91 18.265 Q18.926 18.337 18.939 18.411 C18.948 18.46 18.956 18.509 18.962 18.559 C18.968 18.608 18.974 18.658 18.978 18.707 C18.982 18.757 18.985 18.807 18.987 18.857 C18.989 18.906 18.99 18.956 18.989 19.006 C18.989 19.056 18.988 19.106 18.985 19.156 C18.983 19.205 18.98 19.255 18.976 19.305 C18.972 19.355 18.966 19.404 18.96 19.454 C18.954 19.503 18.948 19.553 18.94 19.602 C18.932 19.651 18.923 19.701 18.914 19.75 C18.904 19.799 18.893 19.847 18.882 19.896 C18.871 19.945 18.858 19.993 18.845 20.041 Q18.825 20.113 18.802 20.184 C18.786 20.231 18.77 20.279 18.752 20.325 Q18.726 20.395 18.696 20.464 C18.677 20.509 18.656 20.555 18.634 20.6 Q18.602 20.667 18.566 20.733 C18.543 20.777 18.518 20.82 18.492 20.863 C18.467 20.906 18.441 20.948 18.413 20.99 C18.386 21.031 18.357 21.072 18.328 21.112 Q18.284 21.171 18.236 21.226 C18.204 21.263 18.172 21.297 18.138 21.329 C18.104 21.36 18.069 21.388 18.034 21.411 C17.998 21.434 17.963 21.451 17.928 21.462 C17.893 21.473 17.86 21.476 17.828 21.472 C17.797 21.468 17.768 21.456 17.741 21.437 C17.715 21.417 17.693 21.391 17.673 21.359 C17.654 21.326 17.637 21.289 17.623 21.248 C17.609 21.207 17.596 21.163 17.585 21.117 C17.574 21.071 17.564 21.024 17.553 20.976 C17.543 20.928 17.532 20.88 17.521 20.831 C17.51 20.783 17.498 20.734 17.486 20.686 C17.473 20.638 17.46 20.59 17.445 20.542 Q17.424 20.47 17.4 20.399 C17.384 20.352 17.367 20.305 17.35 20.258 C17.332 20.212 17.314 20.165 17.294 20.119 C17.275 20.073 17.255 20.027 17.235 19.982 C17.214 19.936 17.193 19.891 17.171 19.846 C17.149 19.801 17.126 19.756 17.103 19.712 C17.079 19.668 17.056 19.624 17.031 19.581 L16.956 19.451 C16.93 19.408 16.904 19.366 16.877 19.324 C16.85 19.282 16.822 19.24 16.794 19.198 C16.767 19.157 16.738 19.116 16.709 19.075 L16.621 18.953 L16.53 18.834 L16.437 18.716 C16.405 18.678 16.374 18.639 16.341 18.601 C16.309 18.562 16.277 18.524 16.244 18.486 L16.145 18.373 L16.045 18.262 L15.944 18.151 L15.842 18.04 L15.74 17.93 L15.637 17.82 L15.535 17.711 C15.501 17.674 15.467 17.637 15.432 17.601 L15.33 17.491 L15.227 17.382 L15.124 17.272 C15.09 17.236 15.056 17.199 15.021 17.163 C14.987 17.127 14.953 17.09 14.918 17.054 L14.815 16.944 C14.781 16.908 14.747 16.871 14.712 16.835 L14.609 16.726 L14.506 16.616 C14.472 16.58 14.438 16.543 14.403 16.507 C14.369 16.471 14.335 16.434 14.3 16.398 L14.198 16.288 C14.163 16.252 14.129 16.215 14.095 16.179 L13.992 16.069 C13.958 16.033 13.924 15.996 13.889 15.96 L13.787 15.85 L13.684 15.74 L13.48 15.52 C13.445 15.484 13.411 15.447 13.377 15.41 L13.275 15.3 L13.173 15.191 L13.07 15.081 L12.968 14.971 L12.865 14.861 L12.763 14.752 L12.66 14.642 L12.557 14.532 C12.523 14.496 12.489 14.459 12.454 14.423 L12.352 14.313 C12.317 14.277 12.283 14.241 12.249 14.204 C12.214 14.168 12.18 14.131 12.146 14.095 L12.043 13.986 L11.94 13.876 L11.836 13.767 C11.802 13.731 11.767 13.695 11.733 13.658 Q11.681 13.604 11.63 13.549 L11.526 13.441 C11.492 13.404 11.457 13.368 11.422 13.332 L11.319 13.223 L11.215 13.114 L11.111 13.006 L11.007 12.898 C10.973 12.861 10.938 12.825 10.903 12.789 L10.8 12.681 L10.695 12.572 L10.591 12.464 L10.488 12.356 L10.383 12.247 L10.28 12.139 L10.176 12.03 L10.072 11.922 L9.968 11.813 L9.864 11.705 L9.759 11.599 C9.724 11.564 9.688 11.53 9.651 11.497 C9.615 11.464 9.577 11.432 9.539 11.403 C9.5 11.373 9.46 11.347 9.419 11.323 C9.378 11.299 9.335 11.279 9.292 11.262 C9.248 11.245 9.203 11.233 9.157 11.225 C9.111 11.216 9.065 11.212 9.018 11.213 C8.971 11.213 8.924 11.217 8.878 11.225 C8.831 11.234 8.785 11.246 8.74 11.261 C8.695 11.277 8.651 11.296 8.609 11.318 C8.566 11.34 8.524 11.365 8.485 11.393 C8.445 11.421 8.406 11.45 8.369 11.482 C8.332 11.514 8.296 11.548 8.262 11.584 C8.228 11.619 8.195 11.656 8.163 11.694 C8.131 11.732 8.1 11.771 8.07 11.811 C8.04 11.85 8.011 11.891 7.983 11.932 C7.955 11.973 7.927 12.015 7.901 12.057 C7.874 12.099 7.848 12.142 7.823 12.185 C7.798 12.228 7.774 12.272 7.75 12.316 C7.727 12.36 7.705 12.404 7.683 12.449 C7.661 12.494 7.641 12.54 7.621 12.585 C7.601 12.631 7.582 12.677 7.564 12.724 C7.547 12.77 7.53 12.817 7.514 12.865 C7.498 12.912 7.484 12.96 7.47 13.007 C7.456 13.055 7.444 13.104 7.432 13.152 C7.42 13.2 7.41 13.249 7.4 13.298 C7.391 13.347 7.382 13.396 7.375 13.445 C7.367 13.495 7.361 13.544 7.355 13.594 C7.35 13.643 7.346 13.693 7.342 13.743 C7.339 13.792 7.337 13.842 7.335 13.892 C7.334 13.942 7.334 13.992 7.335 14.041 C7.335 14.091 7.337 14.141 7.34 14.191 C7.343 14.241 7.346 14.29 7.351 14.34 C7.356 14.39 7.362 14.439 7.368 14.489 C7.375 14.538 7.383 14.587 7.391 14.636 C7.4 14.686 7.41 14.735 7.42 14.783 C7.431 14.832 7.442 14.881 7.454 14.929 C7.467 14.977 7.48 15.025 7.494 15.073 C7.508 15.121 7.523 15.169 7.539 15.216 Q7.563 15.287 7.589 15.357 L7.644 15.497 C7.663 15.543 7.683 15.589 7.703 15.634 C7.723 15.68 7.745 15.725 7.766 15.77 C7.788 15.815 7.81 15.86 7.833 15.904 C7.856 15.949 7.879 15.993 7.903 16.037 C7.927 16.081 7.952 16.124 7.977 16.168 C8.001 16.211 8.027 16.254 8.052 16.297 L8.13 16.425 L8.21 16.552 C8.237 16.595 8.264 16.637 8.292 16.679 L8.374 16.804 L8.458 16.929 L8.542 17.053 L8.626 17.177 L8.71 17.302 C8.739 17.343 8.767 17.385 8.794 17.426 L8.878 17.551 C8.906 17.593 8.933 17.635 8.96 17.677 Q9.001 17.739 9.041 17.803 C9.068 17.845 9.095 17.887 9.121 17.93 C9.147 17.973 9.173 18.015 9.199 18.059 L9.274 18.188 C9.299 18.232 9.323 18.276 9.347 18.32 C9.371 18.363 9.394 18.408 9.417 18.452 L9.483 18.587 C9.505 18.632 9.525 18.677 9.545 18.723 C9.565 18.769 9.585 18.815 9.603 18.861 C9.621 18.907 9.638 18.954 9.655 19.001 C9.671 19.048 9.686 19.096 9.7 19.144 C9.714 19.192 9.726 19.24 9.738 19.288 C9.749 19.337 9.759 19.385 9.768 19.434 Q9.781 19.508 9.79 19.582 C9.796 19.631 9.801 19.681 9.804 19.73 Q9.809 19.805 9.81 19.879 C9.811 19.929 9.81 19.979 9.807 20.028 C9.805 20.078 9.801 20.128 9.796 20.177 C9.79 20.226 9.784 20.276 9.775 20.324 C9.767 20.373 9.757 20.422 9.746 20.47 C9.734 20.518 9.721 20.566 9.707 20.613 C9.692 20.661 9.675 20.707 9.657 20.753 C9.639 20.799 9.618 20.843 9.596 20.887 C9.573 20.93 9.549 20.972 9.522 21.012 Q9.482 21.073 9.434 21.126 C9.403 21.161 9.369 21.194 9.332 21.223 C9.296 21.252 9.257 21.278 9.216 21.3 C9.175 21.322 9.133 21.34 9.088 21.355 C9.044 21.369 8.998 21.38 8.951 21.388 C8.903 21.396 8.855 21.402 8.807 21.405 C8.758 21.409 8.709 21.411 8.659 21.412 C8.61 21.413 8.56 21.413 8.51 21.413 H8.36 C8.31 21.412 8.26 21.412 8.21 21.412 L8.06 21.411 H7.309 C7.259 21.411 7.209 21.411 7.159 21.412 H6.858 C6.808 21.412 6.758 21.412 6.708 21.411 H5.807 C5.757 21.411 5.707 21.411 5.657 21.412 H5.507 Q5.431 21.412 5.356 21.411 C5.307 21.411 5.257 21.411 5.207 21.41 C5.158 21.409 5.109 21.407 5.06 21.404 Q4.988 21.401 4.92 21.391 C4.875 21.385 4.833 21.376 4.795 21.365 C4.757 21.353 4.724 21.338 4.697 21.319 C4.67 21.3 4.651 21.279 4.639 21.254 Z
       M8.595 10.719 Q8.686 10.691 8.779 10.674 Q8.897 10.653 9.015 10.652 Q9.137 10.652 9.257 10.674 Q9.377 10.695 9.49 10.739 Q9.599 10.78 9.7 10.839 Q9.793 10.892 9.879 10.958 Q9.955 11.016 10.027 11.081 Q10.091 11.14 10.153 11.201 L10.268 11.317 L10.373 11.426 L10.477 11.535 L10.58 11.643 L10.684 11.752 L10.758 11.828 L10.788 11.86 L10.824 11.898 L10.892 11.968 L10.902 11.979 L10.995 12.076 L11.099 12.185 L11.204 12.293 L11.27 12.363 L11.308 12.402 L11.412 12.51 L11.465 12.565 L11.516 12.619 L11.578 12.683 L11.62 12.728 L11.689 12.8 L11.724 12.837 L11.782 12.898 L11.828 12.946 L11.887 13.007 L11.932 13.055 L12.036 13.164 L12.139 13.273 L12.243 13.382 L12.271 13.412 L12.346 13.492 L12.425 13.575 L12.45 13.601 L12.553 13.71 L12.564 13.722 L12.656 13.82 L12.76 13.93 L12.784 13.956 L12.863 14.04 L12.893 14.072 L12.966 14.149 L13.069 14.259 L13.152 14.348 L13.172 14.369 L13.234 14.436 L13.274 14.479 L13.377 14.589 L13.406 14.62 L13.48 14.699 L13.509 14.73 L13.582 14.809 L13.647 14.878 L13.685 14.919 L13.787 15.029 L13.874 15.123 L13.889 15.139 L13.94 15.193 L13.992 15.248 L14.055 15.316 L14.094 15.358 L14.106 15.371 L14.196 15.467 L14.246 15.521 L14.298 15.577 L14.401 15.686 L14.447 15.736 L14.503 15.795 L14.606 15.905 L14.65 15.952 L14.708 16.014 L14.811 16.123 L14.848 16.162 L14.914 16.232 L14.953 16.273 L15.017 16.342 L15.12 16.451 L15.131 16.463 L15.223 16.56 L15.314 16.657 L15.326 16.67 L15.397 16.745 L15.429 16.779 L15.481 16.834 L15.532 16.889 L15.569 16.928 L15.635 16.998 L15.7 17.068 L15.738 17.108 L15.841 17.218 L15.845 17.223 L15.944 17.328 L15.977 17.364 L16.047 17.439 L16.15 17.549 L16.2 17.602 L16.254 17.661 L16.358 17.773 L16.462 17.888 L16.566 18.004 L16.663 18.114 L16.668 18.12 Q16.72 18.18 16.771 18.241 Q16.822 18.302 16.872 18.365 Q16.923 18.427 16.972 18.491 Q17.022 18.554 17.07 18.619 Q17.119 18.684 17.166 18.751 Q17.213 18.817 17.259 18.885 Q17.305 18.953 17.349 19.023 Q17.393 19.092 17.436 19.163 Q17.478 19.234 17.519 19.306 Q17.56 19.378 17.598 19.451 Q17.637 19.525 17.674 19.6 Q17.71 19.674 17.745 19.75 Q17.779 19.827 17.811 19.904 Q17.844 19.982 17.874 20.061 Q17.904 20.14 17.931 20.22 Q17.958 20.3 17.982 20.382 Q18.006 20.463 18.028 20.545 V20.548 L18.073 20.468 Q18.103 20.412 18.13 20.356 Q18.157 20.3 18.182 20.242 Q18.206 20.185 18.228 20.127 Q18.25 20.07 18.269 20.011 Q18.289 19.951 18.305 19.891 Q18.322 19.83 18.337 19.768 Q18.352 19.705 18.364 19.642 Q18.376 19.579 18.387 19.515 Q18.397 19.451 18.404 19.386 Q18.412 19.322 18.418 19.258 Q18.423 19.194 18.426 19.13 Q18.429 19.067 18.429 19.003 Q18.43 18.94 18.427 18.878 Q18.425 18.815 18.42 18.754 Q18.415 18.692 18.407 18.631 Q18.399 18.57 18.388 18.509 Q18.377 18.449 18.364 18.389 Q18.35 18.328 18.334 18.269 Q18.317 18.208 18.297 18.148 Q18.278 18.087 18.256 18.026 Q18.233 17.964 18.209 17.903 Q18.184 17.842 18.157 17.781 Q18.131 17.72 18.102 17.66 Q18.074 17.599 18.043 17.539 Q18.013 17.479 17.98 17.42 L17.915 17.302 L17.845 17.185 Q17.809 17.126 17.772 17.068 Q17.735 17.01 17.696 16.952 Q17.657 16.894 17.617 16.837 Q17.577 16.779 17.536 16.723 Q17.495 16.665 17.452 16.609 L17.369 16.498 L17.28 16.384 L17.188 16.269 L17.098 16.158 L17.005 16.045 L16.909 15.931 L16.885 15.902 L16.814 15.818 L16.717 15.704 L16.66 15.636 L16.62 15.589 L16.572 15.533 L16.522 15.474 L16.424 15.359 L16.391 15.32 L16.326 15.242 L16.227 15.124 L16.129 15.005 L16.031 14.884 L15.935 14.764 L15.838 14.638 Q15.789 14.573 15.742 14.508 Q15.693 14.441 15.646 14.373 Q15.599 14.304 15.553 14.233 Q15.507 14.161 15.464 14.087 Q15.42 14.012 15.379 13.934 Q15.337 13.856 15.3 13.775 Q15.262 13.692 15.228 13.608 Q15.194 13.523 15.166 13.435 Q15.137 13.347 15.115 13.257 Q15.092 13.166 15.075 13.075 Q15.059 12.984 15.048 12.892 Q15.037 12.801 15.032 12.71 Q15.027 12.619 15.027 12.528 L15.028 12.469 Q14.999 12.492 14.97 12.513 Q14.854 12.593 14.723 12.64 Q14.592 12.688 14.452 12.699 Q14.319 12.71 14.185 12.688 Q14.061 12.668 13.942 12.621 Q13.833 12.579 13.731 12.518 Q13.64 12.464 13.556 12.398 Q13.481 12.339 13.41 12.274 Q13.346 12.216 13.285 12.155 Q13.228 12.098 13.171 12.039 L13.067 11.93 L12.963 11.821 L12.86 11.713 L12.841 11.693 L12.757 11.605 L12.712 11.558 L12.654 11.498 L12.621 11.463 L12.55 11.39 L12.446 11.283 L12.342 11.175 L12.238 11.068 L12.165 10.993 L12.133 10.961 L12.102 10.928 L12.029 10.854 L11.946 10.769 L11.924 10.746 L11.86 10.68 L11.819 10.639 L11.762 10.58 L11.714 10.532 L11.609 10.424 L11.563 10.377 L11.504 10.317 L11.446 10.257 L11.399 10.209 L11.331 10.139 L11.294 10.101 L11.236 10.042 L11.189 9.993 L11.084 9.885 L11.017 9.817 L10.979 9.777 L10.874 9.669 L10.836 9.63 L10.769 9.56 L10.707 9.495 L10.664 9.451 L10.559 9.342 L10.455 9.233 L10.449 9.226 L10.35 9.122 L10.246 9.012 L10.194 8.957 L10.142 8.902 L10.06 8.814 L10.039 8.791 L10.004 8.755 L9.935 8.68 L9.897 8.639 L9.832 8.569 L9.78 8.512 L9.729 8.457 L9.662 8.384 L9.626 8.345 L9.525 8.233 L9.424 8.121 L9.323 8.01 L9.312 7.998 L9.223 7.9 L9.123 7.79 L9.116 7.782 L9.023 7.681 L8.922 7.572 L8.881 7.528 L8.822 7.464 L8.719 7.355 L8.652 7.283 L8.617 7.245 L8.556 7.18 L8.513 7.135 L8.409 7.024 L8.317 6.925 L8.305 6.912 L8.201 6.799 L8.097 6.684 L8.003 6.58 L7.993 6.568 L7.894 6.455 L7.89 6.45 L7.805 6.351 L7.787 6.33 L7.689 6.212 Q7.638 6.15 7.589 6.088 L7.491 5.962 Q7.442 5.898 7.394 5.833 L7.3 5.702 L7.208 5.569 Q7.163 5.502 7.119 5.433 Q7.074 5.364 7.032 5.294 Q6.989 5.223 6.948 5.151 Q6.907 5.079 6.868 5.005 Q6.829 4.93 6.792 4.855 Q6.755 4.778 6.72 4.701 Q6.685 4.622 6.654 4.542 Q6.622 4.462 6.593 4.38 Q6.564 4.299 6.539 4.216 Q6.514 4.133 6.493 4.05 Q6.471 3.967 6.453 3.883 Q6.434 3.799 6.42 3.714 Q6.404 3.63 6.393 3.545 Q6.381 3.46 6.373 3.376 L6.372 3.364 L6.371 3.365 Q6.332 3.416 6.296 3.468 Q6.258 3.521 6.223 3.575 Q6.188 3.63 6.154 3.686 Q6.12 3.742 6.088 3.799 Q6.056 3.857 6.027 3.915 Q5.997 3.972 5.97 4.031 Q5.943 4.088 5.918 4.147 Q5.894 4.204 5.872 4.263 Q5.851 4.32 5.833 4.379 Q5.815 4.436 5.8 4.495 Q5.785 4.553 5.773 4.612 Q5.761 4.671 5.751 4.731 Q5.742 4.792 5.736 4.853 Q5.729 4.915 5.725 4.978 Q5.721 5.04 5.72 5.103 Q5.719 5.165 5.721 5.228 Q5.723 5.29 5.727 5.353 Q5.731 5.415 5.739 5.477 Q5.746 5.539 5.755 5.6 Q5.765 5.662 5.778 5.723 Q5.79 5.784 5.806 5.844 Q5.821 5.904 5.839 5.964 Q5.857 6.024 5.878 6.083 Q5.899 6.142 5.922 6.2 Q5.945 6.259 5.971 6.316 Q5.997 6.374 6.025 6.431 Q6.053 6.487 6.084 6.543 Q6.115 6.599 6.148 6.655 Q6.182 6.711 6.218 6.766 Q6.254 6.822 6.292 6.877 Q6.33 6.933 6.37 6.988 Q6.411 7.044 6.453 7.099 L6.536 7.207 L6.625 7.319 L6.716 7.43 L6.811 7.543 Q6.857 7.598 6.905 7.653 Q6.952 7.708 6.999 7.761 L7.097 7.872 L7.11 7.886 L7.195 7.981 L7.217 8.005 L7.294 8.09 L7.394 8.199 L7.465 8.276 L7.495 8.309 L7.583 8.405 L7.597 8.419 L7.699 8.53 L7.801 8.641 L7.905 8.753 L8.01 8.868 L8.112 8.983 Q8.167 9.045 8.219 9.108 Q8.276 9.175 8.329 9.245 Q8.386 9.32 8.437 9.399 Q8.493 9.486 8.54 9.577 Q8.59 9.677 8.626 9.782 Q8.665 9.895 8.683 10.012 Q8.702 10.135 8.697 10.258 Q8.693 10.381 8.665 10.501 Q8.639 10.612 8.595 10.719 Z
       M5.939 20.851 H6.709 L6.761 20.852 H7.158 L7.305 20.851 H8.062 L8.213 20.852 L8.362 20.853 H8.51 L8.648 20.852 Q8.709 20.851 8.768 20.846 Q8.814 20.843 8.858 20.836 Q8.888 20.831 8.916 20.822 Q8.934 20.816 8.951 20.807 Q8.967 20.798 8.981 20.787 Q8.999 20.772 9.016 20.753 Q9.038 20.729 9.056 20.701 Q9.079 20.667 9.098 20.63 Q9.12 20.589 9.137 20.544 Q9.156 20.496 9.172 20.447 Q9.188 20.395 9.201 20.341 Q9.214 20.286 9.223 20.231 Q9.233 20.174 9.239 20.117 Q9.245 20.06 9.248 20.002 Q9.251 19.944 9.25 19.885 Q9.249 19.826 9.245 19.768 Q9.242 19.709 9.234 19.65 Q9.227 19.591 9.217 19.533 Q9.206 19.474 9.192 19.416 Q9.179 19.358 9.162 19.3 Q9.145 19.241 9.125 19.184 Q9.105 19.125 9.082 19.066 Q9.058 19.006 9.032 18.948 Q9.006 18.887 8.977 18.828 Q8.948 18.767 8.918 18.707 Q8.887 18.646 8.854 18.586 Q8.822 18.525 8.787 18.465 Q8.753 18.404 8.72 18.348 L8.646 18.227 L8.569 18.103 L8.492 17.984 L8.412 17.862 L8.33 17.739 L8.247 17.616 L8.171 17.504 L8.163 17.492 L8.133 17.448 L8.078 17.367 L7.992 17.24 L7.912 17.12 L7.908 17.114 Q7.865 17.05 7.821 16.982 L7.736 16.851 L7.652 16.716 L7.572 16.584 Q7.53 16.516 7.491 16.446 Q7.45 16.376 7.412 16.305 L7.335 16.161 Q7.298 16.088 7.262 16.014 Q7.226 15.939 7.192 15.863 Q7.158 15.787 7.126 15.71 Q7.094 15.632 7.064 15.553 Q7.035 15.474 7.008 15.394 Q6.981 15.313 6.957 15.232 Q6.933 15.15 6.912 15.068 Q6.891 14.985 6.873 14.901 Q6.855 14.818 6.84 14.733 Q6.825 14.649 6.813 14.564 Q6.802 14.479 6.794 14.393 Q6.785 14.308 6.781 14.222 Q6.776 14.136 6.775 14.05 Q6.773 13.964 6.776 13.878 Q6.778 13.791 6.784 13.705 Q6.789 13.619 6.799 13.533 Q6.808 13.447 6.821 13.361 Q6.834 13.276 6.851 13.191 Q6.867 13.105 6.888 13.021 Q6.908 12.937 6.932 12.853 Q6.955 12.77 6.983 12.688 L7.008 12.616 L6.982 12.65 L6.9 12.763 Q6.86 12.819 6.822 12.876 Q6.783 12.933 6.745 12.991 Q6.707 13.049 6.671 13.108 Q6.634 13.167 6.599 13.226 L6.53 13.346 L6.463 13.466 L6.4 13.588 Q6.369 13.649 6.34 13.711 Q6.31 13.773 6.282 13.836 Q6.253 13.898 6.227 13.961 Q6.2 14.024 6.176 14.086 Q6.151 14.15 6.128 14.213 Q6.104 14.277 6.083 14.342 Q6.061 14.406 6.041 14.471 L6.004 14.599 Q5.986 14.663 5.97 14.728 Q5.954 14.793 5.941 14.858 Q5.927 14.923 5.915 14.989 Q5.902 15.054 5.892 15.12 Q5.882 15.185 5.875 15.251 Q5.867 15.316 5.861 15.381 Q5.855 15.446 5.852 15.512 Q5.848 15.578 5.847 15.643 L5.846 15.773 Q5.847 15.838 5.851 15.903 Q5.854 15.968 5.859 16.033 L5.872 16.165 Q5.88 16.232 5.89 16.299 Q5.899 16.365 5.91 16.431 L5.935 16.563 Q5.948 16.628 5.963 16.694 Q5.978 16.76 5.995 16.826 L6.031 16.959 L6.07 17.093 L6.075 17.108 L6.112 17.227 L6.114 17.236 L6.155 17.361 L6.171 17.408 L6.201 17.494 L6.25 17.632 L6.256 17.648 L6.3 17.768 L6.326 17.836 L6.353 17.908 L6.407 18.053 L6.46 18.197 Q6.488 18.273 6.513 18.35 Q6.54 18.43 6.564 18.51 Q6.589 18.594 6.611 18.679 Q6.633 18.767 6.65 18.855 Q6.667 18.948 6.678 19.042 Q6.69 19.139 6.693 19.237 Q6.696 19.338 6.689 19.439 Q6.682 19.543 6.663 19.645 Q6.645 19.748 6.615 19.849 Q6.585 19.949 6.544 20.045 Q6.504 20.14 6.453 20.23 Q6.404 20.318 6.346 20.402 Q6.29 20.483 6.227 20.559 Q6.165 20.632 6.098 20.701 Q6.033 20.767 5.963 20.829 Q5.952 20.84 5.939 20.851 Z
       M18.135 21.381 C18.244 21.258 18.341 21.134 18.428 20.994 C18.609 20.704 18.769 20.389 18.856 20.056 C19.03 19.386 19.074 18.685 18.86 18.015 C18.742 17.647 18.581 17.307 18.391 16.985 C18.406 17.01 18.421 17.035 18.435 17.06 L18.508 17.185 C18.532 17.226 18.555 17.264 18.578 17.3 C18.601 17.336 18.624 17.367 18.647 17.394 C18.669 17.421 18.692 17.441 18.715 17.453 C18.738 17.466 18.762 17.471 18.787 17.467 C18.811 17.464 18.836 17.453 18.862 17.436 Q18.901 17.409 18.943 17.366 C18.971 17.338 18.999 17.306 19.028 17.272 C19.057 17.238 19.087 17.203 19.117 17.166 C19.146 17.129 19.176 17.092 19.207 17.054 L19.297 16.94 C19.327 16.902 19.358 16.864 19.387 16.826 C19.418 16.788 19.447 16.749 19.477 16.711 L19.564 16.595 L19.651 16.478 L19.736 16.36 L19.821 16.242 L19.905 16.125 C19.933 16.086 19.961 16.047 19.988 16.008 L20.069 15.89 C20.095 15.851 20.12 15.811 20.145 15.772 C20.17 15.733 20.194 15.694 20.218 15.655 L20.287 15.537 L20.353 15.419 L20.419 15.298 L20.483 15.175 L20.545 15.049 L20.605 14.921 C20.625 14.878 20.645 14.835 20.664 14.791 C20.683 14.747 20.701 14.703 20.719 14.658 C20.737 14.614 20.754 14.568 20.77 14.523 C20.787 14.477 20.802 14.431 20.817 14.385 C20.831 14.338 20.845 14.291 20.857 14.244 C20.87 14.197 20.881 14.149 20.891 14.101 C20.902 14.053 20.91 14.004 20.918 13.956 Q20.929 13.883 20.936 13.809 C20.941 13.759 20.944 13.71 20.946 13.66 C20.948 13.611 20.948 13.561 20.948 13.512 C20.948 13.462 20.946 13.413 20.944 13.364 Q20.94 13.291 20.933 13.221 C20.929 13.174 20.923 13.128 20.916 13.084 C20.909 13.04 20.901 12.997 20.892 12.956 C20.882 12.915 20.872 12.876 20.86 12.837 C20.848 12.799 20.834 12.761 20.819 12.724 C20.803 12.687 20.786 12.65 20.767 12.613 C20.747 12.575 20.726 12.539 20.701 12.502 C20.677 12.466 20.65 12.431 20.62 12.396 C20.59 12.362 20.557 12.33 20.521 12.3 C20.486 12.269 20.448 12.241 20.407 12.216 Q20.347 12.177 20.281 12.147 C20.238 12.127 20.192 12.109 20.146 12.094 C20.1 12.079 20.053 12.067 20.006 12.057 Q19.934 12.044 19.862 12.039 C19.814 12.036 19.765 12.036 19.717 12.04 C19.669 12.043 19.621 12.049 19.574 12.059 C19.527 12.069 19.48 12.082 19.434 12.098 C19.389 12.113 19.344 12.132 19.301 12.154 C19.257 12.175 19.215 12.199 19.175 12.226 C19.134 12.253 19.096 12.282 19.059 12.313 C19.022 12.345 18.987 12.378 18.953 12.413 C18.92 12.448 18.889 12.483 18.859 12.52 C18.829 12.556 18.801 12.592 18.775 12.627 C18.748 12.663 18.722 12.695 18.697 12.724 C18.672 12.754 18.648 12.778 18.624 12.796 C18.599 12.815 18.576 12.827 18.553 12.831 Q18.52 12.838 18.492 12.821 C18.474 12.81 18.46 12.793 18.45 12.769 C18.44 12.745 18.435 12.716 18.434 12.683 C18.434 12.65 18.438 12.614 18.447 12.576 C18.456 12.538 18.468 12.499 18.483 12.458 C18.498 12.418 18.516 12.377 18.535 12.337 C18.555 12.296 18.576 12.255 18.598 12.215 Q18.632 12.154 18.669 12.095 C18.695 12.055 18.721 12.016 18.749 11.978 C18.776 11.94 18.806 11.903 18.836 11.867 C18.867 11.832 18.899 11.797 18.933 11.764 C18.968 11.732 19.003 11.701 19.041 11.672 C19.079 11.643 19.119 11.616 19.16 11.591 C19.202 11.567 19.244 11.544 19.289 11.523 C19.333 11.502 19.378 11.483 19.424 11.465 C19.47 11.447 19.517 11.431 19.564 11.416 C19.612 11.4 19.659 11.386 19.707 11.373 C19.756 11.361 19.804 11.349 19.853 11.339 C19.901 11.329 19.95 11.32 19.999 11.313 C20.048 11.306 20.097 11.301 20.147 11.297 C20.196 11.294 20.245 11.292 20.295 11.293 C20.344 11.293 20.394 11.296 20.443 11.3 C20.492 11.304 20.541 11.31 20.59 11.318 Q20.663 11.33 20.736 11.347 C20.784 11.359 20.832 11.372 20.88 11.386 Q20.951 11.408 21.02 11.434 C21.067 11.452 21.113 11.471 21.158 11.491 C21.203 11.512 21.247 11.534 21.291 11.558 C21.334 11.581 21.376 11.607 21.418 11.634 C21.459 11.661 21.499 11.69 21.537 11.72 C21.576 11.751 21.613 11.783 21.648 11.817 C21.684 11.851 21.717 11.887 21.749 11.924 C21.781 11.961 21.811 12 21.84 12.04 C21.868 12.081 21.895 12.122 21.92 12.165 Q21.957 12.229 21.99 12.295 Q22.022 12.362 22.049 12.431 Q22.077 12.501 22.099 12.571 C22.114 12.619 22.128 12.666 22.14 12.715 C22.152 12.763 22.163 12.811 22.172 12.86 C22.181 12.909 22.189 12.958 22.195 13.007 Q22.203 13.081 22.208 13.156 C22.21 13.205 22.212 13.255 22.211 13.305 C22.211 13.354 22.209 13.404 22.206 13.453 C22.202 13.503 22.197 13.552 22.19 13.601 C22.184 13.651 22.176 13.7 22.166 13.749 C22.157 13.797 22.146 13.846 22.134 13.894 C22.122 13.943 22.109 13.991 22.095 14.038 C22.08 14.086 22.065 14.134 22.049 14.181 C22.032 14.228 22.015 14.275 21.997 14.321 C21.979 14.368 21.959 14.414 21.94 14.46 L21.878 14.596 C21.856 14.641 21.834 14.686 21.811 14.731 C21.789 14.775 21.765 14.819 21.741 14.863 C21.717 14.907 21.692 14.95 21.667 14.993 C21.641 15.036 21.616 15.079 21.589 15.121 C21.562 15.164 21.536 15.206 21.508 15.248 C21.481 15.29 21.453 15.331 21.424 15.372 C21.396 15.413 21.367 15.454 21.337 15.495 C21.308 15.535 21.279 15.575 21.248 15.615 C21.218 15.655 21.188 15.695 21.157 15.734 L21.063 15.852 C21.031 15.89 21 15.929 20.967 15.967 C20.935 16.006 20.902 16.044 20.87 16.081 C20.837 16.119 20.804 16.157 20.77 16.194 L20.669 16.305 C20.636 16.342 20.602 16.379 20.567 16.415 C20.533 16.452 20.499 16.488 20.464 16.524 L20.36 16.633 L20.255 16.74 L20.149 16.847 L20.044 16.953 L19.94 17.059 C19.906 17.094 19.874 17.128 19.843 17.162 C19.811 17.196 19.784 17.229 19.759 17.262 C19.735 17.294 19.716 17.325 19.703 17.354 C19.69 17.383 19.685 17.409 19.687 17.434 C19.69 17.458 19.701 17.48 19.72 17.498 C19.739 17.517 19.765 17.533 19.798 17.547 C19.831 17.56 19.869 17.571 19.911 17.581 C19.953 17.59 19.998 17.598 20.045 17.604 C20.092 17.61 20.14 17.616 20.189 17.62 Q20.263 17.626 20.337 17.629 C20.387 17.632 20.437 17.633 20.487 17.634 C20.52 17.635 20.554 17.634 20.587 17.634 H20.637 C20.687 17.633 20.737 17.631 20.787 17.629 C20.837 17.627 20.887 17.623 20.936 17.62 C20.986 17.616 21.036 17.611 21.086 17.606 Q21.16 17.598 21.234 17.587 C21.284 17.58 21.332 17.572 21.381 17.562 C21.43 17.553 21.478 17.542 21.525 17.529 C21.573 17.516 21.619 17.501 21.665 17.484 C21.71 17.468 21.754 17.448 21.797 17.427 C21.84 17.405 21.881 17.382 21.92 17.358 C21.959 17.333 21.997 17.308 22.033 17.283 C22.069 17.258 22.103 17.235 22.136 17.215 C22.168 17.195 22.198 17.18 22.226 17.17 C22.254 17.16 22.279 17.158 22.299 17.162 C22.32 17.166 22.337 17.178 22.349 17.197 C22.36 17.216 22.367 17.241 22.369 17.273 Q22.372 17.32 22.365 17.379 C22.36 17.419 22.352 17.462 22.343 17.506 C22.334 17.551 22.323 17.597 22.312 17.645 C22.301 17.692 22.29 17.74 22.278 17.788 C22.267 17.836 22.255 17.884 22.242 17.932 C22.23 17.98 22.216 18.028 22.202 18.075 C22.188 18.122 22.172 18.167 22.154 18.211 C22.137 18.255 22.116 18.297 22.094 18.336 Q22.06 18.395 22.016 18.442 C21.987 18.474 21.954 18.501 21.918 18.523 C21.882 18.546 21.843 18.564 21.801 18.578 C21.759 18.591 21.715 18.602 21.669 18.609 C21.623 18.616 21.576 18.621 21.527 18.624 Q21.454 18.629 21.38 18.631 C21.33 18.631 21.281 18.632 21.231 18.633 H19.879 C19.829 18.633 19.779 18.633 19.729 18.634 Q19.655 18.634 19.582 18.637 C19.534 18.638 19.487 18.641 19.441 18.645 Q19.372 18.651 19.312 18.665 C19.272 18.675 19.236 18.688 19.204 18.705 C19.172 18.723 19.144 18.745 19.122 18.771 C19.1 18.798 19.082 18.83 19.069 18.866 C19.055 18.902 19.045 18.942 19.037 18.985 Q19.027 19.049 19.019 19.12 C19.014 19.167 19.009 19.215 19.005 19.264 L18.99 19.411 C18.984 19.46 18.978 19.51 18.971 19.559 C18.964 19.609 18.956 19.658 18.947 19.707 C18.938 19.756 18.929 19.805 18.918 19.854 C18.907 19.903 18.896 19.951 18.883 20 C18.871 20.048 18.857 20.096 18.843 20.144 C18.828 20.192 18.813 20.239 18.796 20.286 C18.779 20.333 18.761 20.379 18.743 20.425 C18.724 20.472 18.704 20.517 18.683 20.563 C18.662 20.608 18.64 20.653 18.617 20.697 C18.595 20.742 18.571 20.786 18.546 20.829 C18.522 20.872 18.496 20.915 18.47 20.957 C18.443 21 18.416 21.041 18.387 21.082 C18.358 21.122 18.329 21.162 18.298 21.2 C18.268 21.238 18.236 21.275 18.204 21.31 C18.181 21.335 18.158 21.358 18.135 21.381 Z
       M17.052 8.509 Q17.139 8.459 17.23 8.421 Q17.345 8.373 17.464 8.349 Q17.597 8.322 17.73 8.327 Q17.872 8.333 18.007 8.377 Q18.14 8.42 18.258 8.498 Q18.366 8.569 18.458 8.665 Q18.517 8.728 18.569 8.8 Q18.581 8.768 18.591 8.736 Q18.612 8.675 18.631 8.613 Q18.649 8.553 18.664 8.491 Q18.679 8.432 18.692 8.371 Q18.703 8.313 18.712 8.254 Q18.721 8.196 18.726 8.138 Q18.731 8.08 18.733 8.022 Q18.735 7.964 18.733 7.905 Q18.732 7.846 18.727 7.787 Q18.722 7.727 18.714 7.667 Q18.706 7.607 18.695 7.548 Q18.684 7.489 18.67 7.431 Q18.656 7.373 18.639 7.316 Q18.622 7.259 18.602 7.203 Q18.582 7.148 18.56 7.094 Q18.537 7.04 18.511 6.988 Q18.485 6.936 18.457 6.886 Q18.428 6.836 18.396 6.788 Q18.365 6.74 18.331 6.693 Q18.296 6.647 18.259 6.603 Q18.221 6.558 18.181 6.516 Q18.14 6.472 18.097 6.431 Q18.053 6.389 18.006 6.349 Q17.959 6.308 17.91 6.269 Q17.86 6.23 17.808 6.192 Q17.755 6.154 17.701 6.117 Q17.646 6.08 17.59 6.045 Q17.533 6.009 17.475 5.974 L17.357 5.905 Q17.296 5.871 17.238 5.84 L17.111 5.773 L16.982 5.706 L16.849 5.639 L16.713 5.57 L16.577 5.501 L16.433 5.426 Q16.359 5.385 16.285 5.342 Q16.208 5.296 16.133 5.246 Q16.054 5.194 15.979 5.135 Q15.901 5.074 15.829 5.006 Q15.753 4.936 15.686 4.858 Q15.617 4.778 15.558 4.691 Q15.499 4.603 15.45 4.508 Q15.402 4.415 15.364 4.317 Q15.328 4.221 15.302 4.122 Q15.291 4.08 15.282 4.039 Q15.259 4.073 15.238 4.107 Q15.203 4.163 15.169 4.221 Q15.135 4.279 15.103 4.338 Q15.07 4.397 15.04 4.456 Q15.009 4.516 14.98 4.576 Q14.952 4.636 14.926 4.696 Q14.9 4.754 14.877 4.814 Q14.854 4.871 14.834 4.929 Q14.815 4.986 14.799 5.043 Q14.784 5.098 14.772 5.154 Q14.76 5.209 14.752 5.263 Q14.744 5.317 14.74 5.371 Q14.737 5.424 14.737 5.478 Q14.737 5.531 14.741 5.584 Q14.745 5.637 14.753 5.69 Q14.761 5.742 14.773 5.793 Q14.785 5.845 14.801 5.894 Q14.816 5.944 14.836 5.992 Q14.855 6.04 14.879 6.087 Q14.902 6.133 14.928 6.177 Q14.955 6.221 14.986 6.263 Q15.017 6.307 15.051 6.348 Q15.087 6.39 15.125 6.43 Q15.165 6.472 15.208 6.511 Q15.253 6.553 15.299 6.592 Q15.348 6.632 15.398 6.67 Q15.449 6.71 15.502 6.747 Q15.556 6.786 15.611 6.822 Q15.667 6.86 15.725 6.896 L15.842 6.968 Q15.902 7.004 15.96 7.037 L16.089 7.11 L16.22 7.184 Q16.293 7.225 16.363 7.268 Q16.444 7.317 16.52 7.371 Q16.609 7.434 16.687 7.507 Q16.778 7.591 16.849 7.69 Q16.928 7.798 16.978 7.92 Q17.03 8.045 17.05 8.179 Q17.069 8.307 17.06 8.437 Q17.057 8.473 17.052 8.509 Z
       M18.231 16.728 L18.198 16.679 Q18.157 16.617 18.114 16.555 C18.154 16.612 18.193 16.67 18.231 16.728 Z"/>
</svg>
