<svg xmlns="http://www.w3.org/2000/svg"
     width="24"
     height="24"
     viewBox="0 0 24 24">
  <path d="M12.555 2.187 C12.604 2.179 12.653 2.172 12.703 2.167 C12.752 2.161 12.802 2.157 12.851 2.155 C12.901 2.152 12.951 2.15 13.001 2.15 C13.051 2.15 13.1 2.151 13.15 2.153 C13.2 2.155 13.25 2.158 13.3 2.162 C13.35 2.165 13.399 2.17 13.449 2.175 C13.499 2.18 13.548 2.187 13.598 2.193 C13.647 2.2 13.697 2.207 13.746 2.215 C13.795 2.224 13.844 2.232 13.893 2.242 C13.942 2.252 13.991 2.262 14.039 2.274 C14.088 2.286 14.135 2.299 14.182 2.314 C14.229 2.328 14.275 2.345 14.32 2.363 C14.365 2.382 14.407 2.403 14.448 2.426 C14.489 2.449 14.526 2.475 14.56 2.504 C14.594 2.532 14.622 2.563 14.646 2.597 C14.67 2.631 14.687 2.666 14.698 2.703 Q14.714 2.758 14.708 2.816 C14.704 2.854 14.694 2.891 14.676 2.928 C14.659 2.965 14.636 3 14.607 3.034 C14.579 3.068 14.547 3.101 14.511 3.132 C14.476 3.163 14.438 3.193 14.399 3.221 C14.359 3.25 14.318 3.277 14.277 3.304 C14.235 3.331 14.193 3.358 14.15 3.384 C14.107 3.41 14.064 3.436 14.021 3.461 C13.978 3.487 13.935 3.512 13.892 3.537 L13.762 3.614 L13.633 3.689 L13.504 3.766 C13.461 3.791 13.418 3.817 13.375 3.843 C13.332 3.868 13.289 3.894 13.246 3.92 L13.118 3.999 L12.991 4.079 L12.864 4.159 L12.739 4.241 L12.613 4.323 Q12.55 4.364 12.488 4.406 Q12.425 4.448 12.364 4.49 L12.24 4.576 L12.117 4.662 C12.077 4.692 12.036 4.721 11.996 4.75 C11.955 4.779 11.915 4.809 11.874 4.839 C11.834 4.868 11.794 4.898 11.754 4.928 C11.714 4.958 11.674 4.988 11.634 5.019 C11.594 5.049 11.555 5.08 11.515 5.111 C11.476 5.141 11.437 5.173 11.398 5.204 L11.281 5.298 L11.165 5.394 L11.05 5.49 L10.936 5.588 Q10.88 5.637 10.824 5.688 C10.787 5.721 10.749 5.754 10.713 5.788 L10.602 5.89 C10.566 5.924 10.53 5.959 10.493 5.993 L10.386 6.098 C10.35 6.133 10.315 6.168 10.28 6.204 C10.244 6.239 10.21 6.275 10.175 6.311 L10.072 6.42 L9.97 6.531 C9.936 6.568 9.903 6.605 9.87 6.643 C9.837 6.68 9.804 6.718 9.772 6.756 C9.739 6.794 9.707 6.832 9.675 6.871 L9.581 6.987 C9.549 7.027 9.518 7.066 9.488 7.105 C9.457 7.145 9.427 7.185 9.397 7.225 C9.367 7.265 9.338 7.305 9.309 7.346 C9.279 7.386 9.251 7.427 9.222 7.468 L9.138 7.593 Q9.096 7.655 9.055 7.718 C9.028 7.76 9.001 7.802 8.975 7.845 C8.949 7.887 8.923 7.929 8.898 7.971 C8.873 8.014 8.849 8.056 8.826 8.098 C8.804 8.139 8.784 8.18 8.767 8.22 C8.75 8.259 8.737 8.297 8.729 8.332 C8.722 8.367 8.72 8.398 8.725 8.426 C8.73 8.454 8.742 8.477 8.762 8.497 C8.781 8.517 8.808 8.532 8.84 8.544 C8.873 8.556 8.91 8.565 8.952 8.571 C8.993 8.577 9.038 8.582 9.085 8.585 C9.132 8.588 9.18 8.59 9.229 8.591 C9.278 8.593 9.327 8.594 9.377 8.595 L9.527 8.598 L9.677 8.6 L9.827 8.602 L9.977 8.604 L10.127 8.605 C10.177 8.606 10.227 8.607 10.277 8.607 L10.428 8.608 L10.578 8.61 L10.728 8.611 L10.878 8.613 C10.928 8.613 10.978 8.613 11.028 8.614 C11.078 8.614 11.128 8.614 11.178 8.615 L11.329 8.616 L11.479 8.617 C11.529 8.618 11.579 8.618 11.629 8.618 L11.779 8.62 L11.929 8.621 L12.079 8.623 L12.23 8.624 C12.28 8.625 12.33 8.626 12.38 8.626 L12.53 8.628 L12.68 8.63 C12.73 8.631 12.78 8.632 12.83 8.632 L12.98 8.635 C13.03 8.636 13.08 8.637 13.13 8.637 C13.181 8.639 13.231 8.639 13.281 8.64 C13.331 8.642 13.381 8.643 13.431 8.644 L13.581 8.647 L13.731 8.651 L13.881 8.655 L14.031 8.66 L14.181 8.666 L14.331 8.672 C14.381 8.674 14.431 8.677 14.481 8.68 C14.531 8.682 14.581 8.685 14.631 8.689 C14.681 8.693 14.73 8.697 14.78 8.702 C14.83 8.707 14.879 8.712 14.929 8.719 C14.978 8.726 15.027 8.733 15.076 8.742 C15.125 8.751 15.174 8.761 15.222 8.772 C15.271 8.784 15.319 8.796 15.367 8.809 C15.415 8.822 15.463 8.836 15.511 8.851 C15.558 8.866 15.606 8.882 15.653 8.898 C15.7 8.914 15.747 8.931 15.794 8.949 C15.84 8.966 15.887 8.985 15.933 9.004 C15.979 9.024 16.024 9.044 16.069 9.065 C16.114 9.086 16.159 9.108 16.204 9.131 C16.248 9.153 16.292 9.177 16.335 9.201 C16.379 9.225 16.422 9.25 16.465 9.276 C16.508 9.302 16.55 9.328 16.591 9.356 C16.633 9.383 16.674 9.412 16.714 9.441 C16.754 9.47 16.794 9.5 16.833 9.531 Q16.891 9.578 16.948 9.626 C16.986 9.659 17.023 9.692 17.059 9.726 C17.096 9.76 17.131 9.794 17.166 9.83 C17.201 9.865 17.235 9.902 17.268 9.939 C17.302 9.976 17.334 10.014 17.366 10.052 C17.398 10.09 17.428 10.129 17.459 10.169 C17.489 10.209 17.518 10.249 17.547 10.29 C17.575 10.331 17.603 10.372 17.63 10.414 C17.657 10.456 17.683 10.498 17.708 10.541 C17.733 10.584 17.757 10.628 17.78 10.672 C17.804 10.716 17.826 10.76 17.848 10.805 C17.87 10.85 17.891 10.895 17.912 10.941 C17.932 10.986 17.952 11.032 17.971 11.078 C17.989 11.124 18.008 11.171 18.024 11.218 C18.042 11.264 18.058 11.312 18.073 11.359 Q18.096 11.43 18.118 11.502 C18.132 11.55 18.146 11.598 18.159 11.646 C18.172 11.694 18.184 11.743 18.196 11.791 C18.208 11.84 18.219 11.889 18.229 11.937 C18.239 11.986 18.249 12.035 18.258 12.084 C18.267 12.133 18.275 12.183 18.283 12.232 C18.291 12.281 18.298 12.331 18.305 12.38 L18.324 12.529 C18.33 12.579 18.335 12.629 18.34 12.678 C18.346 12.728 18.35 12.778 18.354 12.828 C18.358 12.877 18.361 12.927 18.364 12.977 C18.367 13.027 18.369 13.077 18.371 13.127 L18.375 13.277 L18.377 13.427 V13.577 C18.377 13.627 18.377 13.677 18.376 13.727 C18.376 13.777 18.375 13.827 18.373 13.877 C18.372 13.927 18.37 13.977 18.367 14.027 L18.358 14.177 C18.354 14.226 18.35 14.276 18.345 14.326 C18.34 14.376 18.335 14.425 18.329 14.475 C18.323 14.525 18.316 14.574 18.309 14.624 C18.302 14.673 18.295 14.723 18.287 14.772 C18.279 14.822 18.27 14.871 18.261 14.92 C18.252 14.969 18.242 15.018 18.232 15.067 C18.222 15.116 18.211 15.165 18.2 15.214 L18.165 15.36 C18.153 15.408 18.14 15.456 18.127 15.505 C18.113 15.553 18.1 15.601 18.085 15.649 C18.071 15.697 18.056 15.745 18.041 15.792 C18.026 15.84 18.01 15.887 17.994 15.934 C17.978 15.982 17.961 16.029 17.944 16.076 C17.927 16.123 17.909 16.17 17.891 16.216 Q17.864 16.286 17.835 16.355 C17.816 16.402 17.797 16.448 17.776 16.494 L17.715 16.631 C17.694 16.676 17.673 16.721 17.651 16.766 C17.63 16.811 17.607 16.856 17.585 16.901 L17.516 17.034 L17.445 17.166 C17.421 17.21 17.396 17.253 17.371 17.297 L17.296 17.427 C17.271 17.47 17.245 17.513 17.219 17.556 L17.141 17.684 L17.061 17.811 L16.98 17.937 C16.952 17.979 16.925 18.021 16.897 18.062 C16.869 18.104 16.841 18.145 16.812 18.186 Q16.77 18.248 16.727 18.309 L16.639 18.431 C16.609 18.471 16.579 18.512 16.549 18.551 C16.518 18.591 16.488 18.631 16.457 18.67 C16.425 18.709 16.394 18.748 16.362 18.786 C16.33 18.825 16.298 18.863 16.265 18.9 C16.232 18.938 16.198 18.975 16.164 19.011 C16.13 19.048 16.096 19.084 16.061 19.119 C16.026 19.155 15.99 19.189 15.953 19.223 C15.917 19.257 15.879 19.29 15.841 19.322 C15.803 19.354 15.764 19.385 15.725 19.415 C15.685 19.444 15.644 19.473 15.603 19.5 C15.561 19.526 15.518 19.552 15.475 19.575 C15.432 19.599 15.387 19.62 15.342 19.64 C15.297 19.66 15.251 19.678 15.205 19.694 C15.158 19.71 15.111 19.724 15.063 19.736 C15.015 19.748 14.967 19.759 14.918 19.767 C14.869 19.776 14.82 19.782 14.771 19.787 C14.722 19.792 14.672 19.796 14.623 19.797 C14.573 19.799 14.524 19.798 14.474 19.796 C14.425 19.794 14.375 19.791 14.326 19.785 C14.277 19.779 14.228 19.772 14.18 19.763 C14.131 19.754 14.083 19.742 14.036 19.729 Q13.966 19.709 13.899 19.683 C13.854 19.665 13.813 19.645 13.773 19.622 C13.734 19.599 13.698 19.574 13.667 19.545 C13.636 19.517 13.61 19.486 13.591 19.453 C13.571 19.42 13.559 19.385 13.553 19.348 C13.548 19.311 13.55 19.273 13.558 19.235 C13.567 19.196 13.582 19.158 13.603 19.12 C13.623 19.081 13.648 19.044 13.677 19.007 C13.706 18.97 13.737 18.934 13.77 18.899 C13.804 18.863 13.838 18.828 13.874 18.794 L13.983 18.692 L14.094 18.591 C14.131 18.558 14.168 18.524 14.206 18.491 L14.317 18.39 C14.354 18.357 14.392 18.323 14.428 18.289 C14.466 18.256 14.502 18.222 14.539 18.188 L14.649 18.085 L14.757 17.982 L14.865 17.877 C14.9 17.841 14.936 17.806 14.971 17.771 L15.076 17.664 L15.181 17.556 L15.283 17.446 L15.385 17.336 C15.418 17.299 15.451 17.261 15.485 17.224 L15.583 17.11 C15.616 17.072 15.648 17.034 15.68 16.996 C15.712 16.957 15.744 16.919 15.775 16.88 L15.868 16.762 C15.899 16.723 15.929 16.683 15.959 16.643 L16.048 16.522 C16.077 16.481 16.106 16.44 16.134 16.399 C16.163 16.358 16.191 16.317 16.218 16.275 C16.246 16.233 16.273 16.191 16.299 16.149 C16.326 16.107 16.352 16.064 16.378 16.021 L16.453 15.891 C16.477 15.848 16.501 15.804 16.524 15.76 C16.547 15.715 16.57 15.671 16.592 15.626 C16.614 15.581 16.635 15.536 16.655 15.49 C16.676 15.445 16.695 15.399 16.714 15.353 C16.733 15.306 16.751 15.26 16.768 15.213 C16.785 15.166 16.802 15.119 16.817 15.072 Q16.84 15.001 16.86 14.929 C16.874 14.881 16.886 14.832 16.897 14.784 C16.908 14.735 16.919 14.687 16.928 14.638 C16.937 14.589 16.945 14.54 16.951 14.49 C16.958 14.441 16.963 14.392 16.967 14.342 Q16.973 14.268 16.975 14.194 C16.976 14.144 16.976 14.094 16.974 14.045 C16.972 13.996 16.968 13.946 16.962 13.897 C16.956 13.848 16.948 13.8 16.939 13.751 C16.929 13.703 16.917 13.655 16.903 13.608 C16.889 13.561 16.873 13.514 16.855 13.469 C16.837 13.423 16.817 13.378 16.795 13.334 C16.773 13.291 16.749 13.248 16.723 13.206 C16.696 13.165 16.669 13.124 16.639 13.085 C16.609 13.046 16.578 13.008 16.544 12.971 C16.511 12.935 16.477 12.9 16.441 12.866 C16.405 12.832 16.368 12.799 16.329 12.768 C16.291 12.737 16.251 12.707 16.211 12.679 C16.17 12.65 16.129 12.623 16.087 12.597 C16.044 12.571 16.001 12.546 15.958 12.522 C15.914 12.499 15.87 12.476 15.825 12.455 C15.78 12.433 15.734 12.413 15.688 12.394 C15.642 12.374 15.596 12.356 15.549 12.339 C15.502 12.322 15.455 12.306 15.408 12.292 C15.36 12.277 15.312 12.264 15.264 12.251 C15.216 12.239 15.167 12.228 15.118 12.218 C15.07 12.207 15.021 12.198 14.971 12.19 C14.922 12.182 14.873 12.175 14.823 12.168 C14.774 12.162 14.724 12.156 14.674 12.151 C14.625 12.145 14.575 12.141 14.525 12.136 L14.375 12.124 L14.226 12.114 L14.076 12.106 L13.926 12.099 L13.776 12.093 L13.626 12.088 C13.576 12.087 13.526 12.086 13.476 12.084 L13.325 12.081 C13.275 12.08 13.225 12.079 13.175 12.079 L13.025 12.076 L12.875 12.075 L12.725 12.074 H12.575 C12.525 12.073 12.475 12.073 12.425 12.073 L12.274 12.074 C12.224 12.074 12.174 12.074 12.124 12.075 C12.074 12.075 12.024 12.075 11.974 12.076 C11.924 12.076 11.874 12.076 11.824 12.077 C11.774 12.077 11.724 12.078 11.674 12.079 L11.524 12.08 L11.373 12.082 L11.223 12.084 L11.073 12.086 L10.923 12.088 L10.773 12.09 L10.623 12.092 L10.472 12.094 L10.322 12.097 L10.172 12.099 L10.022 12.101 L9.872 12.103 L9.722 12.105 C9.672 12.106 9.622 12.107 9.572 12.107 L9.423 12.111 C9.373 12.113 9.324 12.115 9.276 12.118 C9.228 12.121 9.181 12.126 9.135 12.133 C9.089 12.14 9.045 12.15 9.004 12.163 C8.963 12.176 8.924 12.194 8.889 12.215 C8.853 12.237 8.821 12.263 8.792 12.293 C8.763 12.324 8.737 12.358 8.714 12.396 C8.691 12.435 8.67 12.476 8.651 12.519 Q8.623 12.584 8.6 12.654 Q8.576 12.723 8.556 12.795 C8.543 12.843 8.53 12.891 8.519 12.939 C8.507 12.988 8.496 13.037 8.486 13.085 C8.476 13.134 8.466 13.183 8.457 13.232 C8.448 13.282 8.44 13.331 8.432 13.38 L8.411 13.529 L8.393 13.678 L8.378 13.827 C8.373 13.877 8.369 13.927 8.365 13.977 L8.355 14.126 L8.347 14.276 L8.341 14.426 L8.337 14.576 C8.336 14.626 8.335 14.676 8.335 14.726 L8.334 14.877 V15.027 L8.336 15.177 L8.339 15.327 C8.34 15.377 8.341 15.427 8.343 15.477 C8.344 15.527 8.346 15.577 8.348 15.627 L8.354 15.777 L8.362 15.927 L8.371 16.077 L8.381 16.227 L8.393 16.377 C8.397 16.426 8.401 16.476 8.406 16.526 C8.41 16.576 8.415 16.626 8.42 16.675 L8.436 16.825 C8.441 16.875 8.447 16.924 8.453 16.974 Q8.462 17.049 8.472 17.123 L8.491 17.272 L8.512 17.421 L8.533 17.569 L8.554 17.718 L8.575 17.867 L8.596 18.015 C8.603 18.065 8.61 18.114 8.616 18.164 L8.636 18.313 C8.642 18.363 8.648 18.412 8.655 18.462 L8.672 18.611 C8.678 18.661 8.684 18.71 8.689 18.76 L8.705 18.91 C8.71 18.959 8.715 19.009 8.719 19.059 L8.733 19.209 C8.737 19.258 8.741 19.308 8.744 19.358 C8.748 19.408 8.751 19.458 8.754 19.508 C8.758 19.558 8.76 19.608 8.763 19.658 C8.765 19.708 8.767 19.758 8.768 19.808 C8.77 19.858 8.771 19.908 8.772 19.958 C8.772 20.008 8.772 20.058 8.771 20.108 C8.771 20.158 8.769 20.208 8.767 20.258 Q8.764 20.332 8.758 20.407 C8.754 20.456 8.748 20.506 8.742 20.555 Q8.732 20.629 8.718 20.702 C8.708 20.75 8.697 20.799 8.684 20.846 Q8.664 20.918 8.639 20.987 C8.622 21.033 8.603 21.079 8.582 21.123 C8.561 21.168 8.538 21.211 8.513 21.253 C8.488 21.296 8.461 21.337 8.433 21.377 C8.404 21.416 8.373 21.455 8.341 21.492 C8.309 21.529 8.274 21.564 8.239 21.598 C8.203 21.632 8.166 21.664 8.127 21.695 C8.089 21.726 8.049 21.755 8.008 21.782 C7.967 21.809 7.925 21.835 7.882 21.86 C7.839 21.884 7.795 21.906 7.75 21.927 C7.705 21.948 7.66 21.968 7.614 21.985 C7.568 22.003 7.522 22.018 7.475 22.032 C7.429 22.046 7.383 22.056 7.338 22.064 Q7.27 22.075 7.206 22.074 C7.163 22.073 7.123 22.066 7.086 22.054 C7.048 22.042 7.014 22.024 6.984 22 C6.953 21.976 6.927 21.947 6.904 21.913 C6.881 21.878 6.862 21.84 6.845 21.798 C6.829 21.756 6.815 21.711 6.804 21.665 C6.793 21.618 6.783 21.571 6.775 21.522 C6.766 21.474 6.759 21.425 6.753 21.375 C6.747 21.326 6.741 21.276 6.736 21.227 L6.722 21.077 C6.718 21.027 6.714 20.977 6.711 20.927 C6.707 20.878 6.704 20.828 6.701 20.778 C6.697 20.728 6.694 20.678 6.692 20.628 C6.689 20.578 6.686 20.528 6.684 20.478 L6.677 20.328 L6.671 20.178 C6.67 20.128 6.668 20.078 6.666 20.028 L6.662 19.878 C6.66 19.828 6.659 19.778 6.658 19.727 L6.654 19.577 C6.653 19.527 6.652 19.477 6.652 19.427 L6.649 19.277 L6.647 19.127 L6.645 18.977 L6.643 18.827 L6.642 18.677 C6.641 18.627 6.641 18.576 6.641 18.526 C6.64 18.476 6.64 18.426 6.64 18.376 C6.639 18.326 6.639 18.276 6.639 18.226 C6.638 18.176 6.638 18.126 6.638 18.076 L6.637 17.926 L6.636 17.776 L6.635 17.625 V17.475 C6.634 17.425 6.634 17.375 6.634 17.325 C6.633 17.275 6.633 17.225 6.633 17.175 L6.632 17.025 V16.875 C6.631 16.825 6.631 16.774 6.631 16.724 V16.574 L6.63 16.424 V16.274 V16.124 V15.973 V15.823 C6.63 15.773 6.63 15.723 6.631 15.673 V15.523 L6.632 15.373 C6.632 15.323 6.632 15.273 6.633 15.223 C6.633 15.173 6.633 15.123 6.634 15.072 L6.635 14.922 L6.637 14.772 L6.639 14.622 L6.642 14.472 L6.645 14.322 L6.65 14.172 C6.651 14.122 6.653 14.072 6.655 14.022 L6.663 13.872 C6.667 13.822 6.67 13.772 6.675 13.722 C6.679 13.673 6.684 13.623 6.69 13.573 C6.696 13.524 6.703 13.474 6.711 13.425 C6.718 13.376 6.727 13.327 6.736 13.277 C6.746 13.229 6.756 13.18 6.767 13.131 C6.777 13.082 6.789 13.033 6.801 12.985 C6.813 12.936 6.826 12.888 6.839 12.84 C6.853 12.792 6.866 12.744 6.88 12.697 L6.921 12.556 C6.935 12.51 6.947 12.465 6.957 12.421 Q6.973 12.355 6.978 12.294 C6.981 12.254 6.979 12.216 6.971 12.181 C6.964 12.146 6.95 12.113 6.93 12.083 C6.91 12.053 6.884 12.025 6.853 11.999 C6.822 11.973 6.788 11.948 6.75 11.923 C6.713 11.898 6.674 11.873 6.633 11.847 C6.593 11.822 6.553 11.794 6.513 11.766 C6.474 11.738 6.435 11.708 6.397 11.677 C6.36 11.645 6.324 11.612 6.289 11.577 C6.254 11.542 6.221 11.506 6.189 11.468 C6.157 11.431 6.127 11.392 6.098 11.351 C6.07 11.311 6.043 11.27 6.017 11.228 C5.991 11.185 5.967 11.142 5.944 11.098 C5.921 11.054 5.9 11.01 5.879 10.964 C5.859 10.919 5.84 10.873 5.823 10.826 C5.805 10.78 5.789 10.733 5.773 10.685 C5.758 10.638 5.744 10.59 5.73 10.542 C5.717 10.494 5.705 10.446 5.694 10.397 C5.682 10.349 5.672 10.3 5.662 10.251 C5.652 10.202 5.644 10.153 5.635 10.104 C5.627 10.054 5.62 10.005 5.613 9.956 C5.607 9.906 5.601 9.856 5.596 9.807 C5.59 9.757 5.586 9.707 5.582 9.658 C5.578 9.608 5.576 9.558 5.574 9.508 C5.572 9.458 5.572 9.409 5.572 9.359 C5.573 9.31 5.576 9.261 5.581 9.212 C5.585 9.163 5.592 9.116 5.602 9.069 C5.612 9.022 5.625 8.976 5.641 8.933 C5.657 8.889 5.677 8.848 5.701 8.81 C5.725 8.771 5.753 8.736 5.784 8.704 C5.816 8.671 5.851 8.643 5.889 8.618 C5.927 8.593 5.968 8.572 6.012 8.554 C6.055 8.536 6.1 8.521 6.147 8.51 C6.193 8.498 6.241 8.488 6.289 8.481 C6.337 8.473 6.386 8.467 6.434 8.461 C6.482 8.456 6.53 8.451 6.576 8.445 C6.623 8.439 6.668 8.431 6.712 8.421 C6.755 8.411 6.796 8.397 6.834 8.379 C6.872 8.361 6.907 8.339 6.939 8.312 C6.971 8.286 7 8.255 7.027 8.22 C7.054 8.185 7.079 8.147 7.102 8.106 C7.125 8.065 7.147 8.022 7.168 7.978 C7.189 7.934 7.209 7.889 7.23 7.844 L7.291 7.708 L7.354 7.572 C7.375 7.527 7.397 7.482 7.42 7.437 C7.442 7.393 7.465 7.348 7.489 7.304 C7.512 7.26 7.537 7.216 7.561 7.173 Q7.598 7.108 7.637 7.043 C7.662 7 7.689 6.958 7.715 6.915 L7.795 6.788 L7.877 6.663 L7.961 6.538 C7.989 6.497 8.017 6.455 8.046 6.414 C8.074 6.373 8.103 6.332 8.132 6.291 L8.219 6.169 L8.307 6.047 L8.396 5.926 C8.425 5.886 8.455 5.846 8.485 5.806 C8.515 5.766 8.545 5.726 8.576 5.686 C8.606 5.646 8.636 5.606 8.667 5.566 L8.759 5.447 L8.851 5.329 L8.944 5.212 L9.038 5.095 L9.133 4.978 L9.229 4.862 L9.326 4.747 C9.358 4.709 9.39 4.671 9.423 4.633 L9.521 4.52 C9.554 4.482 9.587 4.444 9.621 4.407 C9.654 4.37 9.687 4.332 9.721 4.295 L9.822 4.184 L9.924 4.074 C9.958 4.038 9.992 4.001 10.027 3.965 L10.131 3.857 L10.236 3.749 L10.342 3.643 L10.449 3.538 L10.557 3.434 L10.667 3.331 L10.777 3.229 L10.889 3.129 C10.926 3.095 10.964 3.062 11.001 3.03 C11.039 2.997 11.077 2.964 11.115 2.932 C11.154 2.9 11.192 2.868 11.231 2.837 C11.27 2.805 11.309 2.774 11.349 2.744 C11.388 2.713 11.428 2.684 11.469 2.655 C11.51 2.626 11.551 2.598 11.592 2.57 C11.634 2.543 11.677 2.517 11.72 2.492 C11.763 2.467 11.806 2.444 11.851 2.421 C11.895 2.399 11.94 2.377 11.986 2.358 C12.031 2.338 12.077 2.319 12.124 2.302 C12.171 2.285 12.218 2.269 12.265 2.255 C12.313 2.241 12.361 2.228 12.409 2.217 C12.458 2.205 12.506 2.196 12.555 2.187 Z
       M12.649 2.739 Q12.593 2.749 12.537 2.762 Q12.481 2.775 12.426 2.792 Q12.371 2.808 12.317 2.828 Q12.262 2.848 12.209 2.871 Q12.156 2.894 12.104 2.921 Q12.052 2.947 12.001 2.977 Q11.948 3.007 11.898 3.04 Q11.845 3.074 11.794 3.11 Q11.742 3.148 11.69 3.188 Q11.636 3.229 11.584 3.272 L11.476 3.36 L11.371 3.45 L11.261 3.547 L11.155 3.642 L11.107 3.686 L11.049 3.74 L11.016 3.771 L10.944 3.839 L10.929 3.853 L10.841 3.939 L10.793 3.985 L10.737 4.041 L10.726 4.051 L10.635 4.142 L10.588 4.19 L10.534 4.246 L10.497 4.284 L10.433 4.35 L10.393 4.392 L10.335 4.455 L10.235 4.562 L10.195 4.606 L10.137 4.67 L10.114 4.696 L10.04 4.778 L9.993 4.831 L9.944 4.887 L9.877 4.965 L9.848 4.997 L9.795 5.06 L9.754 5.108 L9.66 5.22 L9.618 5.27 L9.567 5.333 L9.532 5.375 L9.474 5.447 L9.46 5.463 L9.382 5.561 L9.361 5.587 L9.291 5.675 L9.268 5.706 L9.201 5.791 L9.176 5.822 L9.111 5.907 L9.074 5.956 L9.022 6.023 L8.98 6.08 L8.934 6.14 L8.885 6.206 L8.847 6.258 L8.79 6.336 L8.761 6.375 L8.675 6.494 L8.591 6.612 L8.524 6.707 L8.508 6.731 L8.426 6.85 L8.355 6.955 L8.346 6.969 L8.268 7.088 L8.19 7.211 Q8.153 7.271 8.118 7.331 Q8.082 7.39 8.048 7.45 Q8.014 7.509 7.982 7.569 Q7.95 7.628 7.92 7.689 Q7.889 7.75 7.862 7.807 L7.802 7.938 L7.741 8.074 L7.673 8.219 Q7.634 8.302 7.59 8.38 Q7.536 8.475 7.473 8.559 Q7.394 8.662 7.298 8.742 Q7.193 8.83 7.069 8.887 Q6.96 8.938 6.839 8.966 Q6.746 8.988 6.642 9.001 L6.494 9.018 Q6.434 9.025 6.375 9.034 Q6.329 9.041 6.285 9.052 Q6.253 9.06 6.224 9.072 Q6.207 9.079 6.194 9.088 L6.183 9.096 L6.177 9.104 Q6.171 9.114 6.166 9.128 Q6.156 9.153 6.151 9.182 Q6.142 9.222 6.138 9.264 Q6.133 9.316 6.132 9.369 Q6.131 9.429 6.133 9.488 Q6.136 9.552 6.141 9.616 Q6.145 9.682 6.152 9.748 Q6.159 9.815 6.168 9.881 Q6.177 9.947 6.188 10.013 Q6.199 10.078 6.212 10.143 Q6.224 10.207 6.239 10.27 Q6.253 10.332 6.27 10.394 Q6.287 10.454 6.306 10.513 Q6.325 10.571 6.346 10.628 Q6.367 10.683 6.391 10.737 Q6.415 10.789 6.441 10.84 Q6.466 10.889 6.495 10.937 Q6.523 10.983 6.554 11.026 Q6.584 11.068 6.617 11.107 Q6.649 11.146 6.684 11.181 Q6.72 11.216 6.757 11.247 Q6.797 11.28 6.838 11.31 Q6.887 11.345 6.938 11.377 L7.057 11.454 Q7.142 11.51 7.215 11.571 Q7.321 11.661 7.395 11.771 Q7.485 11.905 7.519 12.063 Q7.548 12.197 7.536 12.34 Q7.527 12.442 7.502 12.549 Q7.484 12.629 7.459 12.714 L7.419 12.851 L7.379 12.989 L7.344 13.121 L7.313 13.252 Q7.299 13.317 7.287 13.382 Q7.274 13.447 7.264 13.511 Q7.254 13.576 7.246 13.64 Q7.238 13.706 7.233 13.772 Q7.227 13.839 7.222 13.907 L7.215 14.043 L7.209 14.188 L7.205 14.334 L7.202 14.482 L7.199 14.63 L7.197 14.779 L7.196 14.888 L7.195 14.928 L7.194 15.077 L7.193 15.226 L7.192 15.319 V15.376 V15.403 L7.191 15.525 V15.543 V15.675 L7.19 15.754 V15.824 V15.974 V16.123 V16.273 V16.423 L7.191 16.573 V16.646 V16.723 L7.192 16.872 V16.945 V17.022 V17.095 L7.193 17.172 V17.245 L7.194 17.322 V17.396 V17.472 L7.195 17.622 L7.196 17.772 L7.197 17.922 V17.997 L7.198 18.073 V18.149 L7.199 18.223 L7.2 18.365 V18.372 L7.201 18.508 V18.522 L7.202 18.672 V18.694 L7.203 18.821 L7.205 18.94 V18.97 V19.009 L7.207 19.119 L7.209 19.268 L7.21 19.364 L7.211 19.416 L7.214 19.564 L7.218 19.713 L7.222 19.861 L7.225 19.964 L7.226 20.009 L7.229 20.102 L7.231 20.156 L7.235 20.266 L7.237 20.303 L7.244 20.45 L7.249 20.553 L7.251 20.596 L7.257 20.697 L7.259 20.74 L7.269 20.884 L7.28 21.026 L7.293 21.17 Q7.3 21.238 7.309 21.305 Q7.317 21.368 7.327 21.43 L7.338 21.489 Q7.375 21.477 7.413 21.462 Q7.463 21.443 7.512 21.42 Q7.561 21.397 7.608 21.371 Q7.654 21.345 7.697 21.316 Q7.739 21.288 7.779 21.257 Q7.817 21.226 7.853 21.192 Q7.888 21.159 7.92 21.123 Q7.951 21.087 7.979 21.049 Q8.007 21.01 8.031 20.969 Q8.055 20.928 8.075 20.885 Q8.096 20.84 8.113 20.794 Q8.13 20.747 8.144 20.698 Q8.158 20.646 8.168 20.594 Q8.179 20.538 8.187 20.481 Q8.195 20.421 8.2 20.361 Q8.205 20.297 8.208 20.233 Q8.211 20.167 8.211 20.101 L8.212 19.964 Q8.211 19.895 8.209 19.83 L8.203 19.688 L8.196 19.546 L8.186 19.402 L8.175 19.258 L8.162 19.112 L8.154 19.027 L8.148 18.966 L8.145 18.94 L8.133 18.822 L8.126 18.758 L8.116 18.676 L8.11 18.624 L8.099 18.532 L8.081 18.386 L8.061 18.239 L8.053 18.173 L8.041 18.093 L8.027 17.989 L8.021 17.945 L8.012 17.884 L8 17.797 L7.978 17.648 L7.957 17.498 L7.956 17.489 L7.936 17.345 L7.916 17.193 L7.904 17.095 L7.897 17.039 L7.886 16.943 L7.879 16.884 L7.863 16.731 L7.857 16.67 L7.848 16.575 L7.835 16.421 L7.83 16.368 L7.823 16.265 L7.812 16.112 L7.807 16.034 L7.803 15.957 L7.8 15.904 L7.795 15.803 L7.792 15.748 L7.788 15.648 L7.786 15.595 L7.783 15.492 L7.779 15.365 V15.339 L7.777 15.269 L7.776 15.184 L7.775 15.12 L7.774 15.028 V14.873 L7.775 14.718 L7.778 14.562 L7.781 14.436 L7.782 14.405 L7.787 14.27 L7.788 14.248 L7.794 14.125 L7.796 14.089 L7.806 13.953 L7.807 13.93 L7.821 13.77 L7.837 13.616 L7.856 13.456 Q7.867 13.375 7.879 13.295 L7.906 13.133 Q7.921 13.052 7.938 12.971 Q7.955 12.889 7.974 12.808 Q7.994 12.725 8.017 12.643 Q8.041 12.558 8.069 12.475 Q8.1 12.384 8.137 12.298 Q8.18 12.197 8.235 12.107 Q8.3 11.998 8.385 11.908 Q8.48 11.808 8.598 11.736 Q8.709 11.669 8.835 11.629 Q8.939 11.596 9.052 11.579 Q9.143 11.566 9.239 11.559 Q9.321 11.554 9.409 11.551 L9.563 11.547 L9.714 11.545 L9.864 11.543 L10.014 11.541 L10.164 11.539 L10.314 11.537 L10.465 11.534 L10.615 11.532 L10.765 11.53 L10.915 11.528 L11.065 11.526 H11.086 L11.216 11.524 L11.276 11.523 L11.367 11.522 L11.517 11.52 L11.612 11.519 L11.668 11.518 H11.771 L11.819 11.517 H11.864 L11.97 11.516 L12.121 11.515 L12.171 11.514 H12.273 H12.424 H12.498 H12.576 H12.683 H12.728 H12.799 L12.88 11.515 L13.033 11.517 L13.185 11.519 L13.283 11.52 L13.338 11.521 L13.488 11.524 L13.491 11.525 L13.644 11.529 L13.798 11.534 L13.952 11.54 L14.107 11.547 L14.263 11.556 L14.42 11.566 L14.573 11.578 Q14.654 11.585 14.733 11.594 Q14.815 11.602 14.896 11.613 Q14.979 11.624 15.062 11.638 Q15.148 11.652 15.232 11.669 Q15.318 11.687 15.403 11.709 Q15.489 11.731 15.573 11.757 Q15.657 11.783 15.74 11.813 Q15.823 11.843 15.905 11.877 Q15.986 11.911 16.066 11.949 Q16.146 11.988 16.224 12.03 Q16.304 12.073 16.38 12.12 Q16.458 12.168 16.533 12.221 Q16.61 12.274 16.682 12.333 Q16.756 12.393 16.825 12.458 Q16.895 12.524 16.96 12.596 Q17.026 12.668 17.085 12.746 Q17.145 12.825 17.197 12.909 Q17.25 12.993 17.295 13.082 Q17.34 13.17 17.376 13.263 Q17.413 13.355 17.441 13.45 Q17.468 13.544 17.488 13.64 Q17.507 13.735 17.518 13.832 Q17.529 13.926 17.533 14.021 Q17.537 14.114 17.535 14.207 Q17.533 14.297 17.525 14.388 Q17.518 14.477 17.506 14.565 Q17.494 14.653 17.478 14.74 Q17.462 14.825 17.443 14.911 Q17.423 14.995 17.4 15.079 Q17.377 15.162 17.35 15.244 Q17.323 15.326 17.294 15.406 Q17.265 15.486 17.233 15.565 Q17.201 15.643 17.166 15.719 Q17.132 15.796 17.095 15.871 Q17.059 15.946 17.02 16.02 Q16.981 16.093 16.941 16.165 Q16.901 16.237 16.859 16.307 L16.774 16.447 Q16.73 16.516 16.686 16.583 Q16.641 16.651 16.595 16.718 Q16.549 16.784 16.502 16.849 Q16.455 16.914 16.407 16.978 Q16.36 17.042 16.31 17.105 Q16.261 17.169 16.211 17.231 Q16.161 17.293 16.108 17.357 L16.006 17.478 L15.903 17.595 L15.838 17.669 L15.8 17.711 Q15.748 17.77 15.693 17.828 L15.655 17.869 L15.583 17.945 L15.475 18.057 L15.366 18.167 L15.268 18.266 L15.256 18.277 L15.146 18.384 L15.033 18.492 L15.018 18.507 L14.918 18.6 L14.805 18.704 L14.692 18.806 L14.591 18.897 L14.58 18.907 L14.471 19.006 L14.361 19.105 Q14.311 19.151 14.262 19.199 L14.254 19.206 L14.284 19.213 Q14.336 19.223 14.389 19.229 Q14.443 19.235 14.497 19.237 Q14.551 19.239 14.606 19.237 Q14.661 19.236 14.715 19.23 Q14.769 19.225 14.822 19.215 Q14.874 19.206 14.925 19.193 Q14.975 19.181 15.023 19.164 Q15.071 19.148 15.117 19.127 Q15.164 19.107 15.208 19.083 Q15.254 19.058 15.299 19.029 Q15.345 18.999 15.389 18.966 Q15.436 18.931 15.481 18.894 Q15.527 18.854 15.572 18.813 Q15.619 18.77 15.664 18.724 Q15.71 18.678 15.754 18.63 Q15.799 18.581 15.843 18.531 Q15.888 18.48 15.931 18.428 Q15.975 18.375 16.018 18.321 Q16.061 18.267 16.103 18.212 Q16.146 18.156 16.188 18.099 Q16.229 18.043 16.27 17.985 L16.351 17.869 L16.359 17.857 L16.43 17.752 L16.431 17.751 L16.51 17.632 L16.533 17.596 L16.587 17.512 L16.637 17.433 L16.663 17.391 L16.738 17.269 L16.812 17.145 L16.87 17.046 L16.883 17.022 L16.938 16.925 L16.954 16.896 L17.021 16.772 L17.085 16.648 Q17.117 16.586 17.147 16.523 L17.206 16.397 Q17.235 16.334 17.263 16.27 Q17.291 16.206 17.317 16.142 Q17.344 16.078 17.369 16.013 L17.418 15.883 Q17.442 15.818 17.464 15.753 Q17.487 15.687 17.508 15.621 Q17.529 15.556 17.549 15.489 Q17.569 15.423 17.587 15.356 Q17.605 15.29 17.622 15.223 Q17.639 15.156 17.654 15.088 Q17.67 15.021 17.684 14.953 Q17.698 14.886 17.71 14.818 Q17.723 14.75 17.734 14.682 L17.755 14.546 Q17.765 14.477 17.773 14.409 Q17.781 14.341 17.788 14.272 Q17.794 14.204 17.799 14.135 Q17.804 14.067 17.808 13.998 L17.813 13.865 L17.816 13.723 L17.817 13.579 V13.435 L17.815 13.292 L17.811 13.146 Q17.809 13.077 17.805 13.008 L17.796 12.872 L17.784 12.74 L17.768 12.6 L17.753 12.476 L17.75 12.457 Q17.741 12.387 17.73 12.319 L17.707 12.185 Q17.695 12.119 17.681 12.054 L17.652 11.924 Q17.636 11.858 17.618 11.792 Q17.6 11.726 17.581 11.661 Q17.562 11.597 17.541 11.533 Q17.521 11.471 17.498 11.409 Q17.476 11.349 17.452 11.289 Q17.428 11.229 17.401 11.17 Q17.374 11.11 17.345 11.051 Q17.317 10.992 17.286 10.935 Q17.256 10.878 17.224 10.823 Q17.192 10.769 17.158 10.716 Q17.124 10.663 17.088 10.611 Q17.052 10.559 17.013 10.508 Q16.974 10.457 16.933 10.408 Q16.894 10.359 16.852 10.313 Q16.81 10.267 16.767 10.223 Q16.723 10.178 16.678 10.136 Q16.631 10.092 16.583 10.051 Q16.535 10.009 16.485 9.97 Q16.435 9.931 16.384 9.894 Q16.334 9.857 16.282 9.823 Q16.23 9.788 16.176 9.755 Q16.12 9.722 16.064 9.691 Q16.007 9.659 15.948 9.629 Q15.891 9.6 15.832 9.572 Q15.774 9.545 15.715 9.52 Q15.656 9.495 15.595 9.472 L15.471 9.427 Q15.408 9.406 15.344 9.386 Q15.281 9.366 15.218 9.349 Q15.158 9.332 15.096 9.318 Q15.037 9.304 14.976 9.293 Q14.915 9.282 14.854 9.274 Q14.79 9.265 14.726 9.259 Q14.659 9.252 14.595 9.248 L14.453 9.239 L14.308 9.232 L14.161 9.225 L14.013 9.22 L13.865 9.215 L13.716 9.211 L13.657 9.209 L13.568 9.207 L13.418 9.204 L13.35 9.202 L13.269 9.2 H13.256 L13.12 9.197 L13.016 9.196 L12.971 9.195 L12.928 9.194 L12.822 9.192 L12.743 9.191 L12.672 9.19 L12.586 9.189 L12.523 9.188 L12.476 9.187 L12.373 9.186 L12.322 9.185 L12.223 9.184 L12.131 9.183 H12.074 L12.013 9.182 L11.924 9.181 L11.799 9.18 H11.774 L11.646 9.179 L11.624 9.178 H11.557 L11.474 9.177 H11.403 L11.324 9.176 L11.174 9.175 L11.095 9.174 H11.024 L10.944 9.173 L10.873 9.172 L10.723 9.171 L10.572 9.17 L10.422 9.168 H10.336 L10.272 9.167 L10.121 9.165 H10.088 L9.97 9.164 L9.82 9.162 L9.729 9.161 L9.669 9.16 L9.517 9.158 L9.363 9.155 L9.211 9.151 Q9.128 9.149 9.049 9.143 Q8.955 9.137 8.87 9.125 Q8.752 9.107 8.65 9.071 Q8.485 9.011 8.367 8.894 Q8.212 8.74 8.174 8.525 Q8.146 8.371 8.183 8.208 Q8.207 8.104 8.253 7.997 Q8.288 7.916 8.333 7.833 Q8.372 7.76 8.416 7.686 Q8.457 7.617 8.5 7.548 L8.585 7.414 L8.672 7.282 Q8.716 7.215 8.761 7.15 Q8.807 7.084 8.854 7.019 Q8.9 6.954 8.948 6.89 Q8.996 6.826 9.045 6.763 Q9.093 6.7 9.143 6.638 L9.243 6.514 L9.346 6.392 Q9.397 6.332 9.45 6.272 Q9.502 6.213 9.556 6.154 L9.572 6.137 L9.665 6.036 L9.761 5.934 L9.771 5.924 Q9.825 5.867 9.881 5.81 L9.996 5.696 L10.106 5.589 L10.11 5.585 L10.222 5.48 L10.317 5.391 L10.337 5.373 L10.451 5.27 Q10.509 5.217 10.571 5.163 L10.69 5.062 L10.809 4.962 L10.929 4.863 L11.05 4.765 L11.158 4.679 L11.171 4.669 L11.227 4.625 L11.296 4.572 L11.42 4.478 L11.543 4.387 L11.569 4.368 L11.669 4.295 L11.794 4.205 L11.921 4.115 L12.047 4.028 Q12.111 3.984 12.176 3.941 Q12.24 3.898 12.306 3.855 L12.434 3.771 L12.563 3.687 L12.694 3.604 L12.823 3.523 L12.854 3.504 L12.957 3.441 L13.088 3.361 L13.219 3.284 L13.349 3.207 L13.42 3.165 L13.479 3.131 L13.607 3.055 L13.733 2.981 L13.859 2.906 L13.971 2.835 L13.907 2.818 Q13.847 2.804 13.785 2.791 L13.655 2.768 Q13.589 2.757 13.523 2.748 Q13.456 2.739 13.389 2.732 Q13.323 2.725 13.257 2.72 Q13.193 2.715 13.128 2.712 Q13.066 2.71 13.003 2.71 Q12.942 2.711 12.882 2.714 Q12.823 2.717 12.764 2.723 Q12.706 2.73 12.649 2.739 Z"/>
</svg>
