<svg xmlns="http://www.w3.org/2000/svg"
     width="24"
     height="24"
     viewBox="0 0 24 24">
  <path d="M17.752 16.002 H20.25 C21.216 16.002 22 16.786 22 17.752 V20.25 C22 21.216 21.216 22 20.25 22 H17.752 C16.786 22 16.002 21.216 16.002 20.25 V17.752 C16.002 16.786 16.786 16.002 17.752 16.002 Z
       M17.752 2 H20.25 C21.216 2 22 2.784 22 3.75 V6.248 C22 7.214 21.216 7.998 20.25 7.998 H17.752 C16.786 7.998 16.002 7.214 16.002 6.248 V3.75 C16.002 2.784 16.786 2 17.752 2 Z
       M17.752 9.001 H20.25 C21.216 9.001 22 9.785 22 10.751 V13.249 C22 14.215 21.216 14.999 20.25 14.999 H17.752 C16.786 14.999 16.002 14.215 16.002 13.249 V10.751 C16.002 9.785 16.786 9.001 17.752 9.001 Z
       M14.252 18 L14.354 18.007 C14.72 18.056 15.002 18.37 15.002 18.75 C15.002 19.164 14.666 19.5 14.252 19.5 H2.747 L2.645 19.493 C2.279 19.444 1.997 19.13 1.997 18.75 C1.997 18.336 2.333 18 2.747 18 Z
       M14.252 11 L14.354 11.007 C14.72 11.056 15.002 11.37 15.002 11.75 C15.002 12.164 14.666 12.5 14.252 12.5 H2.747 L2.645 12.493 C2.279 12.444 1.997 12.13 1.997 11.75 C1.997 11.336 2.333 11 2.747 11 Z
       M14.252 4 L14.354 4.007 C14.72 4.057 15.002 4.37 15.002 4.75 C15.002 5.164 14.666 5.5 14.252 5.5 H2.747 L2.645 5.493 C2.279 5.443 1.997 5.13 1.997 4.75 C1.997 4.336 2.333 4 2.747 4 Z"/>
</svg>
