<svg xmlns="http://www.w3.org/2000/svg" width="24" height="24" viewBox="0 0 24 24"><path d="M5.93345 5.25394C5.726795 5.348511 5.677758 5.481611 5.677758 5.947461C5.677758 6.175131 5.66725 6.360771 5.65324 6.364273C5.635727 6.364273 5.418564 6.367776 5.169877 6.371278C4.798599 6.378284 4.69352 6.388792 4.616462 6.441331C4.434326 6.56042 4.399299 6.654991 4.385289 7.099825L4.374781 7.509632L3.982487 7.523643C3.555166 7.541156 3.411559 7.590193 3.30648 7.751314C3.246935 7.842382 3.243433 8.150613 3.243433 13.211909C3.243433 19.033275 3.232925 18.683012 3.432574 18.819615C3.516637 18.879159 3.758319 18.882662 7.180385 18.89317L10.837128 18.900175L10.970228 19.008757C11.218914 19.204904 11.422067 19.250438 12.045534 19.250438C12.683012 19.250438 12.865149 19.211909 13.113835 19.022767L13.271454 18.900175L16.910683 18.89317C20.34676 18.882662 20.553415 18.879159 20.661997 18.819615C20.89317 18.69352 20.87916 19.050788 20.87916 13.204904C20.87916 8.364273 20.875657 7.884413 20.823117 7.775832C20.718039 7.555166 20.651489 7.541156 19.768827 7.516638C19.733801 7.516638 19.723293 7.415061 19.723293 7.127846C19.723293 6.697023 19.681261 6.549912 19.52014 6.441331C19.443082 6.388792 19.345009 6.378284 18.963223 6.374781C18.711033 6.371278 18.486865 6.357268 18.46585 6.343257C18.441331 6.329247 18.427321 6.171629 18.427321 5.929947C18.427321 5.285464 18.33275 5.204904 17.597198 5.204904C16.245184 5.204904 14.917688 5.415061 14.101576 5.754816C13.709282 5.91944 13.278459 6.14711 13.043783 6.315236C12.739054 6.532399 12.364273 6.889667 12.241681 7.071804C12.073555 7.327496 12.063047 7.327496 11.894921 7.103328C11.323993 6.33275 10.189142 5.695271 8.924694 5.432574C8.269702 5.299475 7.698774 5.23993 6.833625 5.218914C6.182137 5.204904 6.024518 5.211909 5.93345 5.25394M8.059545 5.887916C9.859895 6.161121 11.068301 6.819615 11.583187 7.80035L11.754816 8.129597L11.765324 12.718039C11.768827 15.23993 11.765324 17.327496 11.754816 17.352014C11.744308 17.383538 11.649737 17.309983 11.485114 17.131349C11.348511 16.984238 11.148862 16.795096 11.04028 16.714536C10.809107 16.539405 10.245184 16.203152 10 16.094571C9.583187 15.912434 8.795096 15.674256 8.374781 15.604203C7.821366 15.509632 7.635727 15.492119 6.991243 15.471103L6.290718 15.450088L6.28021 10.619965L6.273205 5.789842L6.980736 5.810858C7.37303 5.824869 7.856392 5.859895 8.059545 5.887916M17.810858 5.831874C17.824869 5.85289 17.842382 13.831874 17.831874 15.418564C17.831874 15.443082 17.607706 15.464098 17.15937 15.478109C16.119089 15.513135 15.562172 15.607706 14.683012 15.891419C14.178634 16.05254 13.740806 16.262697 13.316988 16.542907C13.001751 16.753065 12.584939 17.127846 12.507881 17.271454C12.483363 17.316988 12.434326 17.362522 12.3993 17.369527C12.33275 17.38704 12.33275 17.271454 12.33275 12.900175C12.336252 9.327496 12.343258 8.367776 12.381786 8.196147C12.525394 7.530648 13.085814 6.931699 13.996497 6.476357C14.644483 6.150613 15.523643 5.922942 16.46585 5.838879C16.896673 5.796848 17.789843 5.793345 17.810858 5.831874M5.677758 11.397548L5.695271 15.824869L5.803853 15.91944L5.912434 16.017513L6.697023 16.038529C8.374781 16.087566 9.467601 16.381786 10.497373 17.064799C10.798599 17.264448 11.292469 17.730298 11.401051 17.91944C11.478109 18.05254 11.457093 18.045534 11.194396 17.849387C10.143608 17.057793 8.203152 16.739054 5.835377 16.970228C5.450088 17.005254 5.120841 17.04028 5.099825 17.043783C5.082312 17.047286 5.043783 17.050788 5.022767 17.047286C4.987741 17.043783 4.977233 16.010508 4.977233 12L4.977233 6.952715L5.32049 6.963222L5.660245 6.97373ZM19.10683 6.987741C19.131349 7.02627 19.138354 17.012259 19.113836 17.033275C19.10683 17.04028 18.882662 17.022767 18.61296 16.994746C17.418564 16.858144 16.598949 16.858144 15.380035 16.991244C14.406305 17.096322 13.352014 17.464098 12.910683 17.85289C12.872154 17.887916 12.795096 17.929948 12.742557 17.950963L12.644483 17.989492L12.718039 17.880911C13.033275 17.443082 13.548161 17.033275 14.171629 16.725044C15.117338 16.262697 15.978984 16.080561 17.429072 16.038529C17.835377 16.028021 18.192645 16.003503 18.227671 15.98599C18.262697 15.968476 18.322242 15.901927 18.357268 15.842382C18.423818 15.7338 18.427321 15.625219 18.427321 11.366025C18.427321 8.966725 18.437829 6.991243 18.451839 6.980736C18.486865 6.942207 19.085815 6.952715 19.10683 6.987741M4.388792 12.767075L4.399299 17.390543L4.472855 17.488617C4.602452 17.663748 4.707531 17.674256 5.450088 17.583188C7.58669 17.32049 9.50613 17.523643 10.535902 18.122592C10.654991 18.189142 10.74606 18.259195 10.735552 18.276708C10.714536 18.308231 3.961471 18.315237 3.877408 18.283713C3.824869 18.262697 3.821366 17.782837 3.821366 13.204904L3.821366 8.14711L4.381786 8.14711ZM20.290718 8.182137C20.297723 8.19965 20.294221 10.483363 20.283713 13.250438L20.2662 18.287216L16.858144 18.297723C14.980736 18.301226 13.422067 18.290718 13.394046 18.273205C13.352014 18.252189 13.38704 18.217163 13.544659 18.122592C13.975482 17.863398 14.658494 17.660245 15.467601 17.548161C16.094571 17.460596 17.677758 17.460596 18.357268 17.548161C18.616462 17.579685 18.97373 17.618214 19.152364 17.628722L19.474606 17.649737L19.600701 17.523643L19.723293 17.401051L19.723293 8.14711L20 8.14711C20.154116 8.14711 20.283713 8.161121 20.290718 8.182137"/><path d="M7.166375 7.940455C6.998249 8.035026 6.956217 8.234676 7.078809 8.357268C7.145359 8.423818 7.194396 8.427321 8.998249 8.427321C10.81261 8.427321 10.851138 8.427321 10.924694 8.357268C11.02627 8.262697 11.02627 8.077058 10.928196 7.98599C10.858144 7.922942 10.767075 7.91944 9.043783 7.912434C7.765324 7.905429 7.215412 7.912434 7.166375 7.940455M7.131349 9.204904C7.033275 9.260946 7.008757 9.302977 7.008757 9.432574C7.008757 9.509632 7.036778 9.565674 7.099825 9.614711C7.190893 9.688266 7.225919 9.688266 9.005254 9.688266C10.784589 9.688266 10.819615 9.688266 10.910683 9.614711C11.029772 9.52014 11.036778 9.338004 10.924694 9.232925C10.851138 9.162872 10.81261 9.162872 9.02627 9.162872C7.730298 9.166375 7.180385 9.176883 7.131349 9.204904M7.103328 10.469352C7.008757 10.535902 6.987741 10.742557 7.068301 10.837128L7.131349 10.917688L8.987741 10.914186C11.057793 10.914186 11.001751 10.917688 11.001751 10.686515C11.001751 10.609457 10.97373 10.535902 10.931699 10.49387C10.865149 10.427321 10.816112 10.423818 9.012259 10.423818C7.583187 10.423818 7.148862 10.434326 7.103328 10.469352M7.078809 11.754816C7.036778 11.796848 7.008757 11.870403 7.008757 11.943958C7.008757 12.182137 6.949212 12.175131 9.005254 12.175131C10.81261 12.175131 10.851138 12.175131 10.924694 12.105079C11.029772 12.007005 11.029772 11.814361 10.924694 11.740806C10.854641 11.691769 10.61296 11.684764 8.998249 11.684764C7.194396 11.684764 7.145359 11.688266 7.078809 11.754816M7.085814 12.991244C6.984238 13.099825 6.984238 13.260946 7.089317 13.359019L7.169877 13.436077L8.994746 13.436077C10.784589 13.436077 10.819615 13.436077 10.910683 13.362522C11.02627 13.271454 11.036778 13.085814 10.931699 12.980736C10.865149 12.914186 10.816112 12.910683 9.012259 12.910683L7.15937 12.910683ZM7.099825 14.245184C7.036778 14.294221 7.008757 14.350263 7.008757 14.427321C7.012259 14.700525 6.97373 14.697023 9.015762 14.697023C10.784589 14.697023 10.819615 14.697023 10.910683 14.623468C11.02627 14.532399 11.036778 14.34676 10.931699 14.241681C10.865149 14.175131 10.816112 14.171629 9.02627 14.171629C7.225919 14.171629 7.190893 14.171629 7.099825 14.245184M13.253941 7.954466C13.089317 8.024518 13.050788 8.217163 13.17338 8.350263L13.246935 8.427321L15.099825 8.427321C16.910683 8.427321 16.95972 8.423818 17.02627 8.357268C17.120841 8.262697 17.117338 8.073555 17.022767 7.98599C16.952715 7.922942 16.865149 7.91944 15.152364 7.915937C13.782837 7.912434 13.334501 7.922942 13.253941 7.954466M13.190893 9.250438C13.071804 9.366025 13.075307 9.52014 13.194396 9.614711C13.285464 9.688266 13.32049 9.688266 15.099825 9.688266C16.879159 9.688266 16.914186 9.688266 17.005254 9.614711C17.131349 9.516638 17.131349 9.334501 17.005254 9.236427C16.914186 9.162872 16.879159 9.162872 15.09282 9.162872L13.274956 9.162872ZM13.176883 10.514886C13.089317 10.62697 13.085814 10.728546 13.166375 10.833625L13.22592 10.914186L15.029772 10.914186C16.021016 10.917688 16.861646 10.917688 16.896673 10.917688C16.991244 10.914186 17.096322 10.784589 17.096322 10.669002C17.096322 10.609457 17.064799 10.532399 17.02627 10.49387C16.95972 10.427321 16.910683 10.423818 15.103328 10.423818L13.246935 10.423818ZM13.243433 11.709282C13.096322 11.761821 13.054291 11.98599 13.17338 12.105079C13.23993 12.171629 13.288967 12.175131 15.099825 12.175131C16.910683 12.175131 16.95972 12.171629 17.02627 12.105079C17.068301 12.063047 17.096322 11.989492 17.096322 11.915937C17.096322 11.677758 17.152364 11.684764 15.117338 11.688266C14.115587 11.688266 13.271454 11.698774 13.243433 11.709282M13.190893 12.998249C13.071804 13.113835 13.075307 13.267951 13.194396 13.362522C13.285464 13.436077 13.32049 13.436077 15.099825 13.436077C16.879159 13.436077 16.914186 13.436077 17.005254 13.362522C17.124343 13.267951 17.131349 13.09282 17.015762 12.987741L16.935202 12.910683L13.274956 12.910683ZM13.190893 14.259194C13.071804 14.374781 13.075307 14.528897 13.194396 14.623468C13.285464 14.697023 13.32049 14.697023 15.099825 14.697023C16.879159 14.697023 16.914186 14.697023 17.005254 14.623468C17.124343 14.528897 17.131349 14.34676 17.019265 14.241681C16.945709 14.171629 16.907181 14.171629 15.110333 14.171629L13.274956 14.171629Z"/></svg>
