<svg xmlns="http://www.w3.org/2000/svg"
     width="24"
     height="24"
     viewBox="0 0 24 24">
  <path d="M3.964 2.889 Q4.44 2.489 5.398 2.489 Q9.85 2.501 12.001 4.574 Q12.694 3.922 13.594 3.484 Q15.333 2.631 17.911 2.518 Q18.219 2.502 18.48 2.505 Q18.659 2.46 18.887 2.47 Q19.393 2.491 19.734 2.667 Q20.136 2.874 20.27 3.167 Q20.469 3.459 20.534 3.916 Q20.652 3.92 20.782 3.946 Q20.968 3.982 21.13 4.059 Q21.461 4.216 21.619 4.434 Q21.851 4.606 21.993 4.973 L21.994 4.975 Q22.019 5.041 22.038 5.11 Q22.087 5.288 22.096 5.443 Q22.661 5.557 23 5.896 L23.17 6.06 Q23.485 6.363 23.486 6.8 L23.499 13.094 Q23.51 19.362 23.39 19.916 H23.392 V19.917 L23.384 19.945 Q23.359 20.032 23.331 20.108 Q23.264 20.466 22.893 20.729 Q22.437 21.051 20.751 21.072 Q20.532 21.075 20.36 21.031 Q19.513 21.052 18.327 21.052 H17.736 Q15.597 21.052 14.514 21.077 Q14.041 21.087 13.782 21.103 Q13.64 21.199 13.463 21.285 Q12.929 21.532 12 21.532 Q10.833 21.532 10.204 21.108 Q10.088 21.102 9.84 21.096 Q8.765 21.052 6.243 21.052 H5.656 Q4.474 21.052 3.633 21.031 Q3.461 21.075 3.245 21.072 Q1.577 21.051 1.122 20.73 Q0.622 20.378 0.628 19.938 Q0.622 19.914 0.619 19.905 L0.62 19.904 Q0.503 19.373 0.514 13.109 L0.516 12.237 Q0.519 10.507 0.544 9.293 Q0.498 9.12 0.5 8.901 Q0.523 6.378 0.918 5.899 Q1.297 5.441 1.722 5.465 Q1.799 5.445 1.881 5.429 Q1.883 5.4 1.887 5.37 Q2.053 4.101 3.332 3.948 Q3.382 3.942 3.431 3.941 Q3.541 3.262 3.944 2.906 L3.954 2.897 Z
       M4.609 3.658 C4.437 3.809 4.416 3.872 4.395 4.372 L4.368 4.923 L3.792 4.949 C3.015 4.977 2.918 5.073 2.884 5.829 L2.857 6.378 H2.492 C2.3 6.378 2.046 6.412 1.937 6.446 C1.871 6.469 1.817 6.48 1.772 6.506 C1.529 6.645 1.528 7.207 1.519 12.239 L1.517 13.111 C1.51 17.074 1.531 19.477 1.579 19.615 C1.605 19.698 1.617 19.765 1.651 19.82 C1.794 20.049 2.306 20.049 5.656 20.049 H6.243 C10.166 20.049 10.557 20.055 10.639 20.165 C10.853 20.419 11.258 20.529 12 20.529 C12.597 20.529 12.769 20.501 13.023 20.383 C13.188 20.303 13.34 20.193 13.36 20.145 C13.387 20.062 14.123 20.049 17.736 20.049 H18.327 C21.706 20.049 22.219 20.049 22.363 19.819 C22.397 19.764 22.409 19.697 22.435 19.615 C22.483 19.477 22.503 17.067 22.496 13.096 L22.482 6.79 L22.29 6.605 C22.125 6.44 22.043 6.412 21.59 6.392 L21.074 6.365 V5.849 C21.074 5.375 21.061 5.32 20.874 5.134 C20.682 4.951 20.642 4.935 20.12 4.935 H19.563 V4.4 C19.563 3.954 19.542 3.837 19.426 3.713 C19.219 3.493 19.027 3.465 17.955 3.521 C16.245 3.595 15.153 3.837 14.033 4.386 C13.298 4.744 12.796 5.127 12.296 5.718 L11.986 6.089 L11.732 5.767 C10.55 4.276 8.38 3.5 5.398 3.493 C4.87 3.493 4.78 3.513 4.609 3.658 Z
       M18.807 9.936 V15.632 L18.031 15.673 C15.771 15.804 14.109 16.408 12.927 17.527 L12.343 18.076 L12.364 12.588 L12.385 7.1 L12.569 6.791 C13.119 5.849 13.902 5.23 15.077 4.804 C15.881 4.51 16.596 4.38 17.709 4.324 C18.059 4.302 18.409 4.28 18.759 4.262 C18.787 4.255 18.808 6.812 18.807 9.936 Z
       M7.157 4.394 C8.613 4.543 9.912 5.101 10.736 5.932 C11.004 6.193 11.306 6.577 11.416 6.776 L11.609 7.142 L11.616 12.582 C11.622 15.9 11.594 18.007 11.56 17.988 C11.453 17.897 11.351 17.798 11.258 17.692 C10.213 16.538 8.297 15.804 6.016 15.673 C5.344 15.639 5.206 15.611 5.199 15.521 Q5.189 9.916 5.199 4.311 C5.206 4.255 6.264 4.304 7.157 4.394 Z
       M20.319 17.685 L19.653 17.596 C18.801 17.485 16.672 17.472 15.992 17.576 C14.742 17.768 13.738 18.131 13.093 18.625 C12.908 18.763 12.763 18.853 12.763 18.819 C12.763 18.715 13.595 17.898 13.931 17.664 C15.037 16.909 16.466 16.518 18.362 16.448 C19.22 16.422 19.262 16.408 19.405 16.235 L19.564 16.058 V5.761 H20.319 Z
       M4.382 10.843 C4.382 16.29 4.382 16.264 4.719 16.374 C4.788 16.394 5.228 16.428 5.688 16.442 C8.058 16.531 9.645 17.121 10.826 18.352 C11.307 18.859 11.376 18.984 10.997 18.687 C10.325 18.174 9.308 17.782 8.182 17.609 C7.165 17.458 4.685 17.485 3.737 17.664 C3.702 17.672 3.675 15.144 3.669 11.723 L3.662 5.761 H4.382 Z
       M21.693 19.223 H17.627 C14.824 19.223 13.588 19.196 13.656 19.149 C14.193 18.783 15.208 18.453 16.164 18.337 C17.016 18.234 18.471 18.248 19.461 18.365 C20.58 18.503 20.725 18.495 20.917 18.317 L21.075 18.173 V7.202 H21.693 Z
       M2.872 12.609 C2.872 18.241 2.872 18.248 3.153 18.419 C3.236 18.476 3.628 18.453 4.473 18.365 C5.874 18.221 7.495 18.248 8.436 18.433 C9.088 18.564 9.96 18.88 10.221 19.087 C10.393 19.223 10.386 19.223 6.361 19.223 H2.321 V7.202 H2.871 Z"/>
</svg>
