<svg xmlns="http://www.w3.org/2000/svg" width="24" height="24" viewBox="0 0 24 24"><path d="M6.205933 5.242583C5.933682 5.267015 5.759162 5.361256 5.689354 5.521815C5.668411 5.57068 5.643979 5.783595 5.633507 5.996509L5.612565 6.380453L5.158813 6.397905C4.757417 6.411867 4.691099 6.425829 4.589878 6.495637C4.418848 6.621291 4.390925 6.694589 4.373473 7.13089L4.356021 7.532286L3.972077 7.549738C3.57068 7.56719 3.504363 7.588132 3.361256 7.74171L3.273996 7.835951L3.263525 12.991273L3.256544 18.150086L3.333333 18.247817C3.490401 18.44677 3.329843 18.439789 7.22513 18.439789L10.816753 18.439789L10.994763 18.575914C11.249563 18.764396 11.445025 18.806281 12.087259 18.806281C12.719021 18.806281 12.931936 18.757415 13.158812 18.561953L13.301918 18.439789L16.900522 18.439789C20.439788 18.439789 20.502616 18.439789 20.638741 18.369981C20.904012 18.233855 20.883069 18.673646 20.883069 12.987782C20.883069 7.993019 20.883069 7.877835 20.813261 7.769633C20.71204 7.598603 20.62478 7.56719 20.184989 7.549738L19.783593 7.532286L19.766141 7.13089C19.738218 6.485165 19.647467 6.397905 19.005234 6.397905C18.792319 6.397905 18.596857 6.387434 18.565443 6.376963C18.520068 6.359511 18.509597 6.289703 18.509597 5.982548C18.509597 5.5637 18.464222 5.445026 18.258288 5.312391C18.146595 5.246073 18.10471 5.242583 17.2356 5.256544C15.999998 5.280977 15.340313 5.38918 14.286212 5.752181C13.308899 6.08726 12.729493 6.481675 12.125653 7.22164C12.076788 7.277486 12.066316 7.273996 11.986037 7.162303C11.329842 6.289703 10.17801 5.692844 8.561954 5.38918C7.91972 5.270506 6.750436 5.197207 6.205933 5.242583M8.055846 5.944153C8.980802 6.083769 9.647469 6.279232 10.296683 6.607329C10.973821 6.952879 11.364746 7.315881 11.633507 7.842931L11.790575 8.153577L11.794065 12.495636C11.794065 14.88307 11.783594 16.844676 11.769632 16.855147C11.755671 16.862128 11.626526 16.753925 11.479929 16.610819C11.172774 16.307154 10.893542 16.10122 10.44328 15.846421C9.424083 15.270505 8.495636 15.040138 7.043629 14.994763C6.635253 14.984292 6.324607 14.959859 6.300174 14.938917C6.26178 14.907503 6.254799 14.202442 6.272251 10.834205C6.282722 8.596858 6.289703 6.554973 6.293193 6.296684L6.293193 5.82897L6.931937 5.849912C7.280977 5.860384 7.787085 5.902268 8.055846 5.944153M17.874344 10.373472C17.877834 13.434554 17.870853 14.904013 17.846421 14.931936C17.821988 14.963349 17.675391 14.977311 17.382197 14.980801C15.944152 14.994763 14.70855 15.280976 13.762651 15.818498C13.291447 16.087259 12.998254 16.303663 12.70855 16.596857C12.561953 16.746944 12.422337 16.869108 12.401395 16.869108C12.376962 16.869108 12.366491 15.535775 12.366491 12.561954C12.366491 8.363001 12.369981 8.247818 12.436299 8.031413C12.739964 7.05061 14.031412 6.275741 15.867363 5.979057C16.474693 5.881326 16.876089 5.846422 17.41012 5.853403L17.863873 5.856893ZM5.636998 11.165793L5.647469 15.305409L5.773123 15.417102L5.895288 15.532285L6.617801 15.553227C7.713786 15.588131 8.404886 15.696334 9.13787 15.940662C9.57417 16.087259 10.191971 16.390923 10.523559 16.62129C10.830715 16.834204 11.284467 17.249562 11.368236 17.392669C11.441535 17.521813 11.424083 17.514833 11.183245 17.329841C10.848167 17.075042 10.202442 16.7993 9.581151 16.645723C8.345549 16.338567 7.200697 16.310644 5.169284 16.544501L5.001745 16.565444L5.001745 12.01047C5.001745 9.504362 4.991274 7.357766 4.980802 7.239092L4.95637 7.026178L5.630017 7.026178ZM19.137869 11.790575C19.137869 16.303663 19.134379 16.554972 19.078532 16.554972C19.043628 16.554972 18.858637 16.53054 18.670155 16.502616C17.465967 16.321115 15.916229 16.35951 14.809772 16.596857C14.104711 16.746944 13.214658 17.106456 13.047119 17.305409C13.026177 17.329841 12.945898 17.378707 12.862128 17.420592L12.715531 17.4904L12.79232 17.382197C13.05759 17.008724 13.626526 16.558463 14.18499 16.27574C15.092494 15.818498 16.115182 15.598602 17.532284 15.553227L18.247817 15.532285L18.380452 15.40314L18.509597 15.270505L18.509597 7.026178L19.137869 7.026178ZM4.373473 12.541011C4.387434 16.104711 4.397905 16.935426 4.4363 17.001744C4.464223 17.047119 4.551483 17.113436 4.631762 17.14834C4.753926 17.204187 4.813263 17.211168 5.001745 17.183245C6.69808 16.935426 8.062827 16.938916 9.207678 17.186735C9.738219 17.301918 10.729493 17.692843 10.739964 17.794065C10.743455 17.832459 4.111693 17.867363 3.965096 17.828969L3.884817 17.811517L3.884817 8.139616L4.122164 8.150087L4.356021 8.160558ZM20.247816 8.184991C20.27923 8.216404 20.289701 9.336823 20.289701 13.015706C20.289701 17.472948 20.286211 17.804536 20.230364 17.825478C20.146595 17.856892 13.469458 17.846421 13.417102 17.815007C13.294938 17.738218 14.205932 17.343803 14.827224 17.200697C15.83944 16.97033 17.260033 16.935426 18.614309 17.113436C19.31937 17.207677 19.40663 17.207677 19.553227 17.134379C19.776612 17.015705 19.766141 17.273995 19.766141 12.488655L19.766141 8.143106L19.986036 8.143106C20.111691 8.143106 20.223384 8.160558 20.247816 8.184991"/><path d="M7.064572 7.884816C6.949389 8.031413 6.973821 8.150087 7.13438 8.230366C7.214659 8.275741 7.521814 8.282722 9.043629 8.282722C10.823734 8.282722 10.858638 8.282722 10.949388 8.209424C11.061081 8.122164 11.071552 7.965095 10.970331 7.863874C10.900523 7.794066 10.855147 7.794066 9.019196 7.794066L7.13438 7.794066ZM7.078533 9.029668C6.966841 9.141361 6.966841 9.239092 7.078533 9.347294L7.162303 9.434554L10.890051 9.434554L10.96335 9.354275C11.05061 9.260034 11.061081 9.127399 10.991273 9.029668C10.942407 8.966841 10.87609 8.96335 9.0541 8.952879L7.165793 8.942408ZM7.092495 10.198952C6.966841 10.324607 6.96335 10.408376 7.082024 10.520069L7.172774 10.603839L8.921465 10.61431C9.884816 10.621291 10.726002 10.61431 10.78883 10.603839C11.029667 10.558463 11.113437 10.342059 10.952879 10.18499L10.869109 10.09773L7.193717 10.09773ZM7.078533 11.371727C6.973821 11.476439 6.970331 11.560208 7.064572 11.682373L7.13438 11.773123L10.897032 11.773123L10.96684 11.682373C11.057591 11.563699 11.061081 11.445025 10.970331 11.354275C10.900523 11.284467 10.855147 11.284467 9.033158 11.284467L7.162303 11.284467ZM7.082024 12.523559C6.970331 12.628271 6.966841 12.750435 7.071553 12.848166L7.151832 12.924955L10.897032 12.924955L10.970331 12.848166C11.068062 12.739964 11.061081 12.596858 10.949388 12.509598C10.858638 12.436299 10.823734 12.436299 9.015706 12.436299L7.176265 12.436299ZM7.165793 13.630016C7.085514 13.657939 6.991273 13.794065 6.991273 13.877835C6.991273 13.912739 7.029668 13.979056 7.078533 14.027922L7.165793 14.115182L9.036648 14.104711L10.907503 14.09424L10.973821 14.01047C11.057591 13.909248 11.057591 13.790575 10.980802 13.699824C10.917975 13.630016 10.883071 13.626526 9.075043 13.616055C8.059336 13.609074 7.204188 13.616055 7.165793 13.630016M14.495636 8.136125C14.017451 8.26527 13.535775 8.631762 13.277486 9.064572C13.0541 9.441535 12.973821 10.041884 13.082023 10.513088C13.235601 11.162303 13.783594 11.720767 14.44328 11.895287C14.70506 11.965095 15.186735 11.965095 15.434553 11.898777C15.539265 11.870854 15.636997 11.853402 15.654449 11.863873C15.66841 11.874345 15.713786 11.944153 15.75218 12.020941C15.808026 12.129144 15.818498 12.195461 15.801046 12.324606C15.780103 12.481674 15.794065 12.520069 16.01745 12.942407C16.146595 13.193716 16.321115 13.532285 16.408375 13.703315C16.572424 14.034903 16.663175 14.111692 16.88307 14.111692C16.949387 14.111692 17.047119 14.09424 17.095984 14.069807C17.193716 14.024432 17.32286 13.811517 17.32286 13.696334C17.32286 13.619545 16.656194 12.303664 16.53403 12.136125C16.492145 12.076788 16.408375 12.00698 16.352529 11.986037C16.286211 11.958114 16.216403 11.881325 16.157066 11.776613L16.066316 11.609074L16.237346 11.465968C16.558463 11.197207 16.802791 10.729493 16.872599 10.261779C16.998253 9.406631 16.439789 8.499127 15.591621 8.188481C15.267014 8.069807 14.809772 8.048865 14.495636 8.136125M15.239091 8.544502C15.945654 8.692794 16.45127 9.316436 16.450259 10.038393C16.45026 10.376963 16.383943 10.607329 16.212913 10.855147C16.031412 11.123908 15.863873 11.270505 15.57766 11.40314C15.364745 11.504362 15.326351 11.511343 14.949388 11.511343C14.561953 11.511343 14.53752 11.507852 14.303664 11.392669C14.027922 11.256544 13.741709 10.991273 13.623035 10.757416C13.22513 9.982547 13.535775 9.022687 14.300173 8.649214C14.614309 8.495636 14.872599 8.467713 15.239091 8.544502"/><path d="M14.575915 8.820244C14.244327 8.928446 13.905758 9.239092 13.801046 9.539266C13.703315 9.821989 13.675391 10.09773 13.738219 10.18499C13.818498 10.289703 13.888306 10.202443 13.916229 9.972076C13.975566 9.472949 14.251308 9.144851 14.722512 9.015706C14.904012 8.96335 14.931936 8.945898 14.931936 8.8726C14.931936 8.802792 14.910993 8.78883 14.827224 8.781849C14.771377 8.778359 14.656194 8.795811 14.575915 8.820244"/></svg>
