<svg xmlns="http://www.w3.org/2000/svg" width="24" height="24" viewBox="0 0 24 24"><path d="M6.160959 5.328767C5.996576 5.366439 5.876713 5.45548 5.80137 5.585617C5.732877 5.70548 5.722603 5.770548 5.729453 6.027398C5.732877 6.219178 5.719179 6.335617 5.695206 6.35274C5.674658 6.363014 5.50685 6.373288 5.325343 6.369863C5.037672 6.363014 4.976028 6.373288 4.842466 6.445206C4.626713 6.55822 4.554795 6.695206 4.534247 7.05137L4.517124 7.342466L4.140411 7.35959C3.70548 7.380138 3.571918 7.434932 3.465754 7.636987C3.40411 7.75685 3.40411 7.941781 3.40411 12.839042C3.40411 17.890413 3.40411 17.91781 3.476028 18.030824C3.513699 18.092468 3.60274 18.178084 3.671233 18.222605L3.797945 18.301372L7.349316 18.318495L10.897261 18.335618L10.979453 18.407536C11.023974 18.448632 11.126714 18.517125 11.21233 18.561646C11.35959 18.640413 11.400686 18.643838 12.017125 18.643838C12.623289 18.643838 12.678084 18.636988 12.839043 18.565071C12.934933 18.52055 13.047947 18.448632 13.095892 18.404112L13.184933 18.318495L16.726029 18.311646L20.27055 18.301372L20.404112 18.21918C20.47603 18.17466 20.565071 18.089043 20.599318 18.030824C20.660961 17.928084 20.664386 17.767125 20.664386 12.821919C20.664386 7.825343 20.664386 7.715754 20.595893 7.60959C20.479455 7.414384 20.383564 7.380138 19.948633 7.35959L19.551372 7.342466L19.534249 7.05137C19.503427 6.527398 19.32192 6.366439 18.760276 6.366439C18.585619 6.366439 18.421235 6.356165 18.390413 6.345891C18.345893 6.328768 18.335619 6.267124 18.335619 6.017124C18.335619 5.688356 18.301372 5.585617 18.147262 5.441781C18.058221 5.356165 18.051372 5.356165 17.332194 5.345891C16.479454 5.332192 15.91781 5.373288 15.304796 5.493151C14.243152 5.702055 13.575344 5.945206 13.003426 6.321918C12.695207 6.527398 12.2637 6.890411 12.208905 6.993151C12.184933 7.037672 12.136988 7.092466 12.095892 7.116439C12.034248 7.15411 12.017125 7.147261 11.921234 7.027398C11.219179 6.167809 9.695207 5.530822 7.958905 5.376713C7.520549 5.339041 6.267124 5.304795 6.160959 5.328767M8.232878 5.578767C8.890412 5.678082 9.582193 5.845891 10.099316 6.034247C10.321919 6.113014 10.863015 6.397261 11.106166 6.554795C11.383563 6.739726 11.797947 7.143836 11.91781 7.345891C11.965755 7.428083 12.020549 7.496576 12.037673 7.496576C12.051371 7.496576 12.106166 7.431507 12.150686 7.349316C12.260275 7.160959 12.705481 6.729452 12.976029 6.547946C13.455481 6.226028 14.157536 5.934932 14.859591 5.763699C15.647262 5.575343 15.976029 5.537672 16.952057 5.520548C17.61644 5.50685 17.900687 5.513699 17.952057 5.541096C18.106167 5.623288 18.147262 5.739726 18.164386 6.160959L18.181509 6.554795L18.626715 6.554795C19.27055 6.554795 19.304797 6.582192 19.328769 7.133562L19.345893 7.513699L19.811646 7.530822C20.143838 7.544521 20.294523 7.561644 20.335619 7.595891C20.500003 7.732877 20.493153 7.503425 20.493153 12.821919C20.493153 17.708906 20.493153 17.811646 20.42466 17.938358C20.380139 18.027399 20.32192 18.085618 20.246578 18.109591C20.167811 18.136988 19.143838 18.147262 16.609591 18.147262L13.082193 18.143838L13.0137 18.226029C12.832193 18.434934 12.5137 18.506851 11.883563 18.482879C11.424659 18.462331 11.2637 18.414386 11.089042 18.246577L10.982878 18.143838L7.448631 18.147262C3.544521 18.150687 3.784247 18.164386 3.643836 17.931509C3.575343 17.825344 3.575343 17.71918 3.575343 12.828768C3.575343 7.503425 3.568493 7.732877 3.732877 7.595891C3.773973 7.561644 3.924658 7.544521 4.25685 7.530822L4.722603 7.513699L4.739726 7.136987C4.75685 6.739726 4.794521 6.626713 4.917809 6.582192C4.962329 6.568494 5.198631 6.554795 5.441781 6.554795L5.886987 6.554795L5.90411 6.143836C5.921233 5.732877 5.952055 5.616439 6.068494 5.544521C6.143836 5.496576 7.873288 5.523973 8.232878 5.578767"/><path d="M6.441781 6.013699C6.428083 6.023973 6.417809 8.034247 6.417809 10.476028L6.417809 14.914385L7.147261 14.955481C8.424658 15.030823 9.133563 15.178084 9.921234 15.530824C10.595892 15.839043 11.191782 16.260276 11.554796 16.688358C11.657536 16.811646 11.750001 16.914385 11.760275 16.914385C11.777399 16.914385 11.770549 12.582193 11.750001 9.431508L11.743152 8.061644L11.60959 7.804795C11.434933 7.472603 11.023974 7.061644 10.643837 6.842466C10.089042 6.517124 9.198631 6.222603 8.438357 6.113014C7.708905 6.00685 6.50685 5.945206 6.441781 6.013699M10.976029 7.869864C11.078768 7.952055 11.085618 8.15411 10.989727 8.246576C10.924659 8.30822 10.825344 8.315069 9.181508 8.332192C7.373288 8.356165 7.20548 8.345891 7.136987 8.215754C7.082192 8.10959 7.095891 7.948631 7.171234 7.873288C7.239727 7.804795 7.284247 7.804795 9.068494 7.804795C10.804796 7.804795 10.900686 7.80822 10.976029 7.869864M10.993152 9.047946C11.089042 9.16096 11.099316 9.277398 11.017125 9.376713C10.955481 9.445206 10.931508 9.445206 9.099316 9.45548C7.321919 9.465754 7.243151 9.46233 7.174658 9.400686C7.037672 9.277398 7.092466 9.027398 7.273973 8.958905C7.301371 8.948631 8.133562 8.941782 9.116439 8.945206L10.91096 8.952056ZM10.921234 10.119864C11.003426 10.150686 11.078768 10.325343 11.054796 10.421234C11.006851 10.616439 11.030823 10.613015 9.089042 10.613015C7.30822 10.613015 7.202056 10.606165 7.130138 10.496576C7.078768 10.421234 7.10274 10.236302 7.171234 10.167809C7.236302 10.102741 7.284247 10.099316 9.051371 10.099316C10.047946 10.099316 10.890412 10.10959 10.921234 10.119864M10.886988 11.277398C11.044522 11.345891 11.099316 11.46233 11.041097 11.606165C11.017125 11.667809 10.958905 11.729453 10.914385 11.746576C10.86644 11.7637 10.047946 11.777398 9.05822 11.777398C7.315069 11.777398 7.280823 11.777398 7.191782 11.705481C7.123288 11.650686 7.10274 11.606165 7.10274 11.503426C7.10274 11.345891 7.164384 11.291097 7.373288 11.260275C7.458905 11.250001 8.25685 11.236302 9.147261 11.232878C10.50685 11.229453 10.784248 11.236302 10.886988 11.277398M10.917809 12.431508C11.017125 12.479453 11.092467 12.633563 11.05822 12.732878C11.003426 12.914385 11.075344 12.907536 9.095891 12.907536C7.023973 12.907536 7.10274 12.917809 7.10274 12.667809C7.10274 12.56507 7.123288 12.520549 7.191782 12.465755C7.280823 12.393837 7.315069 12.393837 9.05822 12.393837C10.304796 12.393837 10.856166 12.404111 10.917809 12.431508M10.845892 13.561645C11.099316 13.630138 11.143837 13.952056 10.917809 14.041097C10.856166 14.061645 10.184933 14.071919 9.037672 14.06507C7.332193 14.054796 7.243151 14.051371 7.174658 13.989727C7.126713 13.945207 7.10274 13.883563 7.10274 13.797947C7.10274 13.654111 7.15411 13.595892 7.318494 13.558221C7.493151 13.517125 10.695207 13.517125 10.845892 13.561645M16.537673 6.013699C15.547947 6.095891 14.82192 6.246576 14.106166 6.527398C13.311645 6.835617 12.773974 7.260274 12.472604 7.821918L12.325344 8.095891L12.308221 12.496577C12.297947 14.91781 12.291097 16.900687 12.294522 16.907536C12.297947 16.910961 12.404111 16.797947 12.534248 16.650687C13.130138 15.986303 14.202056 15.397262 15.27055 15.150687C15.794522 15.027399 17.184934 14.897262 17.500002 14.941782L17.650687 14.96233L17.650687 5.989726L17.164386 5.996576C16.893838 6 16.613016 6.00685 16.537673 6.013699M15.171235 8.150686C15.482879 8.20548 15.825344 8.386987 16.095892 8.640412C16.291098 8.818494 16.36644 8.921234 16.496577 9.181508C16.876714 9.945206 16.750002 10.760275 16.154112 11.386987C16.034248 11.510275 15.938358 11.626713 15.938358 11.647261C15.938358 11.726029 16.085618 11.914385 16.164385 11.934933C16.297947 11.969179 16.380139 12.095892 16.77055 12.873289C17.126714 13.585618 17.136988 13.613015 17.106166 13.746577C17.02055 14.089043 16.561646 14.16781 16.359591 13.880138C16.32192 13.825344 16.133564 13.472604 15.941783 13.099316C15.599317 12.434933 15.589043 12.41096 15.609591 12.243152C15.626714 12.102741 15.61644 12.047946 15.561646 11.955481C15.510276 11.869864 15.472605 11.845892 15.431509 11.863015C15.130139 11.976029 14.46918 11.972604 14.154111 11.849316C13.900687 11.753426 13.517125 11.482878 13.342467 11.273974C12.743152 10.575343 12.743152 9.46233 13.342467 8.780823C13.808221 8.250001 14.46918 8.023973 15.171235 8.150686"/><path d="M14.393837 8.60959C14.030824 8.743151 13.832193 8.886987 13.636988 9.16096C13.397262 9.493151 13.356166 9.623288 13.352741 10.047946C13.352741 10.41096 13.356166 10.434932 13.46918 10.664385C13.708906 11.150686 14.164385 11.465755 14.664385 11.496576C15.465755 11.541097 16.106166 11.037672 16.253427 10.239727C16.349317 9.726028 16.07192 9.10959 15.602742 8.797946C15.277399 8.582192 14.705481 8.493151 14.393837 8.60959M14.791098 8.914384C14.791098 9.003425 14.777399 9.017124 14.602741 9.061645C14.500002 9.085617 14.342467 9.15411 14.253426 9.21233C13.989728 9.383562 13.886988 9.578768 13.794522 10.082193C13.784248 10.136987 13.77055 10.191782 13.760276 10.208905C13.732878 10.253426 13.619865 10.239727 13.575344 10.184932C13.510276 10.106165 13.558221 9.753426 13.664385 9.513699C13.835618 9.133562 14.311646 8.787672 14.636988 8.804795C14.780824 8.815069 14.791098 8.821919 14.791098 8.914384M5.253425 7.092466L5.253425 11.777398C5.25 16.109591 5.253425 16.41781 5.30822 16.410961C5.339042 16.407536 5.582192 16.380139 5.849316 16.345892C6.441781 16.267125 8.061645 16.256851 8.575343 16.325344C9.753426 16.482878 10.825344 16.876714 11.386988 17.352742C11.458905 17.41781 11.520549 17.452057 11.520549 17.434933C11.520549 17.332194 11.000001 16.780824 10.681508 16.541098C9.708905 15.808221 8.592467 15.493152 6.856165 15.458906C6.434932 15.452056 6.119864 15.431508 6.078768 15.407536C5.897261 15.311645 5.90411 15.496577 5.90411 11.10959L5.90411 7.05137L5.578768 7.05137C5.342466 7.05137 5.253425 7.061644 5.253425 7.092466M18.164386 11.06507C18.164386 13.750001 18.150687 15.123289 18.126715 15.21233C18.068495 15.424659 18.027399 15.434933 17.215755 15.455481C16.184933 15.482878 15.489728 15.585618 14.811646 15.808221C14.2637 15.986303 13.568495 16.376714 13.174659 16.71918C12.993152 16.880139 12.606166 17.325344 12.626714 17.349317C12.636988 17.356166 12.739727 17.294522 12.859591 17.212331C13.496577 16.767125 14.400687 16.465755 15.493153 16.325344C16.023975 16.260276 17.613016 16.27055 18.181509 16.342467C18.428084 16.376714 18.678084 16.410961 18.739728 16.421235L18.849317 16.441783L18.849317 7.05137L18.164386 7.05137Z"/><path d="M4.106165 8.037672C4.082192 8.054795 4.078767 9.674658 4.089041 12.839042L4.106165 17.61644L7.496576 17.62329L10.886988 17.630139L10.801371 17.558221C10.681508 17.455481 10.150686 17.212331 9.825344 17.106166C9.034248 16.852742 8.578768 16.794522 7.376713 16.794522C6.424658 16.794522 5.886987 16.832194 5.345891 16.931509C5.065069 16.982879 4.910959 16.952057 4.80822 16.82192C4.739726 16.732879 4.739726 16.715755 4.739726 12.393837C4.739726 8.465754 4.732877 8.05137 4.684932 8.030823C4.609589 8.003425 4.147261 8.00685 4.106165 8.037672M19.345893 8.05137C19.335619 8.075343 19.325345 10.047946 19.32192 12.434933L19.311646 16.77055L19.229454 16.859591C19.126715 16.96918 19.089043 16.96918 18.421235 16.876714C17.678084 16.773974 16.263701 16.750002 15.613016 16.825344C14.804796 16.924659 14.21918 17.085618 13.619865 17.376714C13.407536 17.482879 13.232878 17.582194 13.232878 17.599317C13.232878 17.62329 14.414385 17.633564 16.606166 17.633564L19.979454 17.633564L19.979454 8.010275L19.671235 8.010275C19.455482 8.010275 19.356167 8.023973 19.345893 8.05137"/></svg>
