<svg xmlns="http://www.w3.org/2000/svg" width="24" height="24" viewBox="0 0 24 24"><path d="M6.180887 5.307167C6.105802 5.337884 6.040955 5.361775 6.040955 5.361775C6.037542 5.361775 5.993174 5.419795 5.938566 5.488054C5.849829 5.604095 5.83959 5.648464 5.822525 5.976109L5.80546 6.334471L5.395904 6.351536C4.774744 6.378839 4.679181 6.457338 4.614334 6.979522L4.576792 7.290102L4.201365 7.31058C3.62116 7.34471 3.453925 7.464164 3.395904 7.880546C3.378839 8.010239 3.368601 10.296928 3.375427 13.167235L3.382252 18.221842L3.488054 18.368599C3.549488 18.450511 3.662116 18.5529 3.744027 18.593855L3.887372 18.672354L10.918088 18.672354L11.034129 18.761091C11.232081 18.911262 11.419794 18.972695 11.761091 18.996586C12.317405 19.030715 12.740613 18.948804 12.948805 18.761091C13.030716 18.689419 13.040955 18.689419 16.617746 18.672354L20.20819 18.655289L20.327644 18.580204C20.395903 18.539248 20.48464 18.443685 20.525596 18.368599L20.600681 18.235494L20.600681 12.98976C20.600681 7.116041 20.621159 7.593856 20.351534 7.416382C20.225254 7.331058 20.180886 7.324232 19.836176 7.317406C19.627985 7.313993 19.447098 7.31058 19.436859 7.31058C19.423207 7.307167 19.409555 7.167235 19.399316 7C19.382251 6.662116 19.341295 6.569966 19.133104 6.426621C19.030715 6.358362 18.979521 6.351536 18.617746 6.351536C18.375425 6.351536 18.20819 6.337884 18.194538 6.317406C18.180886 6.296928 18.167234 6.139932 18.163821 5.96587C18.156995 5.604095 18.098975 5.460751 17.904436 5.34471C17.791808 5.279863 17.733787 5.27645 17.017064 5.279863C15.39249 5.290102 14.443685 5.484641 13.3686 6.023891C12.890784 6.266211 12.372013 6.68942 12.122866 7.044368C12.088736 7.095563 12.040955 7.136518 12.017064 7.136518C11.993173 7.136518 11.907849 7.051194 11.825938 6.948805C11.491467 6.52901 10.890784 6.105802 10.225255 5.825938C9.33447 5.447099 8.546075 5.31058 7.102389 5.27645C6.450512 5.259386 6.293515 5.266211 6.180887 5.307167M7.651877 5.464164C9.617747 5.583618 11.05802 6.211604 11.83959 7.279863C11.918088 7.389078 11.98976 7.477815 12.003412 7.477815C12.013651 7.477815 12.078497 7.395904 12.146757 7.296928C12.317405 7.037542 12.655289 6.706484 12.972695 6.484641C13.839589 5.87372 14.93174 5.549488 16.389077 5.464164C17.918087 5.375426 17.972695 5.399317 17.972695 6.119454L17.972695 6.522184L18.959043 6.522184L19.075084 6.638225C19.20819 6.771331 19.235493 6.87372 19.235493 7.225256L19.235493 7.477815L19.638224 7.477815C19.986347 7.477815 20.061432 7.488054 20.191125 7.552901C20.307166 7.610921 20.354947 7.662116 20.385664 7.750853C20.416381 7.83959 20.42662 9.119453 20.42662 12.996586C20.430033 18.77133 20.45051 18.348122 20.177473 18.450511C20.051193 18.498292 19.675766 18.505118 16.525596 18.494879L13.013651 18.481227L12.856654 18.607507C12.648463 18.774743 12.505119 18.808872 12.013651 18.808872C11.535835 18.808872 11.324231 18.757678 11.167235 18.607507L11.061433 18.508531L7.477815 18.494879C4.566553 18.48464 3.877133 18.470989 3.802048 18.433446C3.750853 18.409555 3.675768 18.324231 3.638225 18.245733C3.569966 18.105801 3.569966 18.04778 3.569966 12.969283C3.569966 8.15017 3.573379 7.829351 3.631399 7.716723C3.726962 7.522184 3.860068 7.477815 4.348123 7.477815L4.764505 7.477815L4.764505 7.211604C4.764505 6.87372 4.808873 6.716723 4.938566 6.610921C5.040955 6.525597 5.05802 6.522184 5.535836 6.522184L6.027303 6.522184L6.027303 6.098976C6.027303 5.692833 6.030716 5.668942 6.112628 5.569966C6.160409 5.515358 6.235495 5.460751 6.27645 5.453925C6.416382 5.426621 7.133105 5.430034 7.651877 5.464164"/><path d="M6.539249 10.607508L6.539249 15.283275L7.129692 15.303753C9.15017 15.375426 10.604095 15.918088 11.518771 16.945391C11.62116 17.061432 11.71331 17.156995 11.723549 17.163821C11.733788 17.167234 11.740614 15.153583 11.733788 12.692832C11.723549 7.709897 11.744026 8.085324 11.488054 7.648464C11.098975 6.982935 10.167235 6.412969 9.047781 6.153583C8.566552 6.040955 7.996587 5.979522 7.238907 5.952218L6.539249 5.93174ZM10.941979 8.09215C11.047781 8.197952 11.034129 8.409556 10.921501 8.498293C10.832764 8.569965 10.798634 8.569965 9.160409 8.569965C7.689419 8.569965 7.474402 8.56314 7.372013 8.515358C7.197952 8.430034 7.156996 8.201365 7.296928 8.081911C7.361774 8.027303 7.498293 8.02389 9.119453 8.02389C10.829351 8.02389 10.877132 8.027303 10.941979 8.09215M10.921501 9.290102C11.034129 9.378839 11.047781 9.590443 10.941979 9.696245C10.873719 9.764505 10.83959 9.764505 9.119453 9.757679C7.450511 9.74744 7.361774 9.744027 7.293515 9.682593C7.1843 9.583617 7.194539 9.382252 7.31058 9.290102C7.399317 9.21843 7.433447 9.21843 9.11604 9.21843C10.798634 9.21843 10.832764 9.21843 10.921501 9.290102M10.945392 10.511945C11.047781 10.593856 11.047781 10.798634 10.945392 10.904436C10.873719 10.976109 10.849829 10.976109 9.225255 10.986348C8.320819 10.993173 7.532423 10.986348 7.470989 10.976109C7.296928 10.945392 7.215017 10.856655 7.215017 10.703071C7.215017 10.607508 7.235494 10.5529 7.290102 10.508532C7.361774 10.450511 7.484641 10.447098 9.11604 10.447098C10.774743 10.447098 10.870306 10.450511 10.945392 10.511945M10.901023 11.696245C11.071672 11.815699 11.05802 12.075085 10.877132 12.15017C10.812286 12.177474 10.290102 12.187713 9.075085 12.180887C7.450511 12.170648 7.361774 12.167235 7.293515 12.105801C7.1843 12.006825 7.194539 11.80546 7.31058 11.71331C7.399317 11.641638 7.433447 11.641638 9.112627 11.641638C10.627986 11.641638 10.832764 11.648464 10.901023 11.696245M10.941979 12.938566C11.027303 13.02389 11.034129 13.232081 10.952218 13.320818C10.901023 13.378839 10.798634 13.382252 9.136518 13.382252C7.133105 13.382252 7.221843 13.392491 7.221843 13.126279C7.221843 12.860068 7.136518 12.870306 9.122866 12.870306C10.829351 12.870306 10.877132 12.873719 10.941979 12.938566M10.938566 14.146757C10.98976 14.194538 11.010238 14.252559 11.010238 14.354948C11.010238 14.614334 11.105801 14.600682 9.143344 14.614334L7.399317 14.627985L7.31058 14.546074C7.156996 14.402729 7.201365 14.160409 7.392491 14.088736C7.419795 14.078497 8.215017 14.071671 9.153583 14.075084C10.784982 14.08191 10.870306 14.085323 10.938566 14.146757M16.044367 5.996587C15.402729 6.044368 14.996586 6.122867 14.470989 6.300341C13.477815 6.631399 12.77133 7.153583 12.443685 7.798634L12.290102 8.102389L12.279863 12.64505L12.273037 17.187712L12.378839 17.051193C12.569965 16.812286 12.928327 16.488054 13.211603 16.30034C14.160409 15.668941 15.30034 15.358361 16.873719 15.303753L17.46075 15.283275L17.46075 5.941979L17.044367 5.945392C16.812285 5.948805 16.361774 5.969283 16.044367 5.996587M16.672354 8.05802C16.754265 8.102389 16.825937 8.27645 16.798634 8.378839C16.788395 8.426621 16.730374 8.481228 16.658702 8.515358C16.5529 8.566553 16.365187 8.569965 14.82935 8.56314L13.119453 8.552901L13.037542 8.457337C12.93174 8.334471 12.93174 8.215017 13.040955 8.109215L13.122866 8.02389L14.866893 8.02389C15.918088 8.02389 16.634811 8.037542 16.672354 8.05802M16.641637 9.262798C16.839589 9.361774 16.860067 9.597269 16.67918 9.706484C16.58703 9.761092 16.433446 9.764505 14.877132 9.764505C13.580204 9.764505 13.156996 9.754266 13.092149 9.720136C12.918088 9.631399 12.918088 9.351535 13.092149 9.262798C13.215016 9.201365 16.51877 9.201365 16.641637 9.262798M16.696245 10.525597C16.815698 10.627986 16.822524 10.795221 16.713309 10.901023L16.638224 10.976109L13.119453 10.976109L13.037542 10.880545C12.93174 10.757679 12.93174 10.638225 13.040955 10.532423L13.122866 10.447098L16.604094 10.447098ZM16.665528 11.706484C16.784982 11.781569 16.839589 11.938566 16.781569 12.047781C16.706483 12.180887 16.563139 12.191126 14.808873 12.180887L13.133105 12.170648L13.044368 12.088737C12.904436 11.955631 12.935153 11.778156 13.109214 11.682593C13.156996 11.655289 13.709897 11.645051 14.866893 11.641638C16.474402 11.641638 16.563139 11.645051 16.665528 11.706484M16.651876 12.907849C16.7372 12.945392 16.812285 13.068259 16.812285 13.163822C16.812285 13.191125 16.774743 13.252559 16.726961 13.296928L16.64505 13.382252L13.095562 13.382252L13.027303 13.293515C12.986347 13.24232 12.95563 13.167235 12.95563 13.126279C12.95563 13.085323 12.986347 13.010238 13.027303 12.959044L13.095562 12.870306L14.832763 12.870306C16.034129 12.870306 16.597268 12.880545 16.651876 12.907849M16.624572 14.11604C16.825937 14.197951 16.866893 14.450511 16.696245 14.559726C16.624572 14.607508 16.385664 14.614334 14.894197 14.62116C13.303753 14.627985 13.167235 14.624572 13.08191 14.566552C12.89761 14.447098 12.921501 14.180887 13.126279 14.109214C13.211603 14.08191 13.706484 14.068259 14.877132 14.068259C16.228668 14.064846 16.529009 14.071671 16.624572 14.11604"/><path d="M5.320819 7.020478C5.286689 7.037542 5.27645 8.044368 5.27645 11.904436L5.27645 16.77133L5.406143 16.747439C5.941979 16.658702 6.238907 16.641637 7.290102 16.641637C8.726962 16.641637 9.054607 16.682593 10.030716 16.986347C10.569965 17.153583 11.020477 17.389077 11.416381 17.709896C11.546074 17.815698 11.559726 17.819111 11.522184 17.747439C11.279863 17.293514 10.665528 16.761091 9.98976 16.423207C9.245733 16.047781 8.419795 15.880545 7.153583 15.843002C6.249146 15.819112 6.208191 15.808873 6.095563 15.624572C6.030716 15.51877 6.027303 15.412968 6.027303 11.273037L6.027303 7.034129L5.764505 7.034129C5.617747 7.034129 5.467577 7.027303 5.430034 7.017065C5.392491 7.010239 5.341297 7.010239 5.320819 7.020478M17.996586 7.020478C17.982934 7.034129 17.972695 8.935153 17.972695 11.245733C17.972695 14.05802 17.959043 15.488054 17.935152 15.576791C17.873719 15.80546 17.822524 15.819112 16.914675 15.846415C16.474402 15.856654 15.982934 15.883958 15.822524 15.904436C14.894197 16.030716 14.136518 16.30034 13.484641 16.7372C13.146757 16.962456 12.443685 17.682593 12.443685 17.798634C12.443685 17.812286 12.525596 17.754265 12.624572 17.675767C13.286688 17.133105 14.341296 16.767917 15.556313 16.655289C16.136518 16.604094 17.754265 16.634811 18.276449 16.706484C18.491466 16.7372 18.67918 16.750852 18.696244 16.733787C18.709896 16.720135 18.720135 14.525596 18.716722 11.860068L18.706483 7.017065L18.361773 7.006826C18.17406 7.003413 18.010238 7.006826 17.996586 7.020478"/><path d="M4.156996 8.017064L4.081911 8.027303L4.088737 12.999999L4.098976 17.972695L7.52901 17.979521C11.382252 17.98976 11.085323 18.013651 10.515358 17.726961C9.877132 17.402729 9.286689 17.259385 8.245733 17.167234C7.686006 17.119453 6.450512 17.146757 5.90785 17.221842C5.703071 17.252559 5.416382 17.283275 5.27645 17.293514C5.047781 17.313992 5.010239 17.307166 4.928327 17.24232C4.877133 17.201364 4.819112 17.109214 4.798635 17.040955C4.778157 16.959043 4.764505 15.412968 4.764505 12.470989L4.764505 8.030716L4.501706 8.017064C4.354949 8.010239 4.201365 8.010239 4.156996 8.017064M19.23208 8.013652C19.23208 8.027303 19.228668 10.068259 19.225255 12.546074C19.218429 16.986347 19.218429 17.051193 19.150169 17.163821C19.044367 17.337883 18.969282 17.341296 18.143343 17.218429C17.638224 17.143344 15.938565 17.129692 15.447098 17.197951C14.354948 17.351535 13.901023 17.48464 13.313992 17.82935L13.040955 17.98976L19.918087 17.98976L19.911261 12.996586L19.901022 8.006826L19.569964 7.996587C19.385664 7.993174 19.235493 8 19.23208 8.013652"/></svg>
