<svg xmlns="http://www.w3.org/2000/svg"
     width="24"
     height="24"
     viewBox="0 0 24 24">
  <path d="M4.036 2.953 L4.068 2.917 H5.833 C6.912 2.917 7.636 2.921 7.688 2.932 C7.735 2.937 7.932 2.948 8.12 2.953 C8.38 2.959 8.484 2.969 8.527 2.979 C8.563 2.995 8.625 3 8.708 3 C8.787 3 8.849 3.005 8.875 3.021 C8.907 3.031 8.995 3.041 9.104 3.047 C9.219 3.052 9.287 3.063 9.303 3.073 C9.312 3.079 9.375 3.088 9.448 3.093 C9.521 3.099 9.599 3.115 9.625 3.12 C9.645 3.131 9.693 3.14 9.729 3.14 C9.76 3.14 9.812 3.151 9.839 3.161 C9.864 3.167 9.921 3.183 9.969 3.188 C10.011 3.193 10.068 3.208 10.083 3.213 C10.104 3.224 10.14 3.235 10.167 3.235 C10.193 3.235 10.235 3.245 10.26 3.255 C10.287 3.265 10.333 3.276 10.36 3.281 C10.396 3.287 10.432 3.303 10.443 3.307 C10.459 3.317 10.484 3.328 10.505 3.328 C10.527 3.328 10.557 3.339 10.588 3.349 C10.615 3.364 10.651 3.375 10.677 3.38 C10.703 3.385 10.724 3.396 10.735 3.407 C10.745 3.412 10.76 3.421 10.781 3.421 C10.797 3.421 10.828 3.432 10.849 3.448 C10.869 3.459 10.896 3.469 10.912 3.469 C10.921 3.469 10.943 3.479 10.959 3.495 C10.979 3.505 11 3.516 11.016 3.516 C11.031 3.516 11.063 3.527 11.088 3.536 C11.12 3.552 11.151 3.568 11.167 3.573 C11.183 3.579 11.203 3.588 11.213 3.599 L11.307 3.645 C11.349 3.661 11.391 3.683 11.401 3.693 C11.412 3.693 11.432 3.708 11.453 3.713 C11.531 3.76 11.62 3.812 11.631 3.828 C11.636 3.839 11.645 3.844 11.651 3.844 C11.667 3.844 11.839 3.959 11.932 4.031 C12.021 4.104 12.047 4.099 12.156 3.995 C12.208 3.948 12.271 3.901 12.292 3.896 C12.312 3.885 12.328 3.875 12.328 3.869 C12.328 3.864 12.36 3.844 12.396 3.823 C12.427 3.807 12.464 3.781 12.469 3.771 C12.473 3.76 12.489 3.749 12.5 3.749 C12.516 3.749 12.536 3.74 12.552 3.729 C12.593 3.697 12.683 3.656 12.697 3.656 C12.703 3.656 12.724 3.645 12.74 3.636 C12.755 3.62 12.776 3.609 12.787 3.609 C12.797 3.609 12.817 3.599 12.833 3.588 C12.855 3.573 12.875 3.563 12.891 3.563 C12.901 3.563 12.921 3.552 12.937 3.541 C12.953 3.527 12.973 3.516 12.989 3.516 C13.005 3.516 13.031 3.505 13.047 3.495 C13.068 3.479 13.099 3.469 13.12 3.469 C13.14 3.469 13.167 3.459 13.177 3.448 C13.193 3.432 13.213 3.421 13.245 3.421 C13.265 3.421 13.297 3.412 13.317 3.401 C13.333 3.385 13.364 3.375 13.385 3.375 C13.407 3.375 13.437 3.364 13.459 3.355 C13.473 3.339 13.505 3.328 13.531 3.328 C13.557 3.328 13.588 3.317 13.604 3.307 C13.62 3.297 13.661 3.287 13.697 3.281 C13.735 3.276 13.771 3.26 13.781 3.255 C13.792 3.24 13.823 3.235 13.855 3.235 C13.885 3.235 13.937 3.224 13.969 3.213 C14 3.197 14.052 3.188 14.088 3.188 C14.12 3.188 14.161 3.177 14.188 3.167 C14.224 3.145 14.255 3.14 14.328 3.14 C14.396 3.14 14.432 3.136 14.473 3.12 C14.505 3.099 14.547 3.093 14.604 3.093 C14.656 3.093 14.697 3.088 14.729 3.073 C14.771 3.052 14.807 3.047 14.901 3.047 C14.984 3.047 15.041 3.041 15.099 3.027 C15.156 3.005 15.219 3 15.307 3 C15.375 3 15.459 2.989 15.5 2.979 C15.552 2.969 15.672 2.959 15.969 2.953 C16.188 2.948 16.401 2.937 16.448 2.932 C16.5 2.921 17.125 2.917 18.235 2.917 C19.76 2.917 19.943 2.921 19.969 2.937 L19.995 2.953 V4.099 L20.041 4.109 C20.073 4.12 20.203 4.125 20.401 4.125 C20.688 4.125 20.713 4.125 20.755 4.151 C20.781 4.161 20.823 4.172 20.844 4.172 C20.864 4.172 20.901 4.183 20.921 4.193 C20.943 4.208 20.979 4.219 21 4.224 C21.027 4.229 21.052 4.24 21.057 4.251 C21.068 4.255 21.083 4.265 21.093 4.265 C21.099 4.265 21.136 4.281 21.167 4.303 C21.527 4.521 21.76 4.864 21.855 5.287 C21.869 5.38 21.875 5.683 21.875 12.579 V19.776 L21.849 19.885 C21.812 20.031 21.787 20.104 21.735 20.213 C21.631 20.421 21.443 20.645 21.271 20.765 C21.027 20.937 20.812 21.016 20.516 21.036 C20.421 21.041 18.989 21.047 17.287 21.047 H14.224 L14.151 21.115 C13.885 21.364 13.521 21.599 13.208 21.724 C12.817 21.885 12.416 21.964 11.995 21.964 C11.64 21.964 11.364 21.921 11.027 21.812 C10.64 21.688 10.385 21.547 9.989 21.224 L9.76 21.047 H6.677 C4.979 21.047 3.536 21.041 3.469 21.036 C3.203 21.016 2.964 20.932 2.74 20.776 C2.64 20.713 2.469 20.536 2.407 20.443 C2.385 20.412 2.364 20.38 2.355 20.375 C2.349 20.369 2.344 20.355 2.344 20.344 C2.344 20.333 2.333 20.312 2.323 20.303 C2.307 20.292 2.297 20.276 2.297 20.26 C2.297 20.251 2.287 20.229 2.276 20.208 C2.26 20.188 2.251 20.161 2.251 20.145 C2.251 20.131 2.24 20.099 2.229 20.079 C2.213 20.063 2.203 20.027 2.203 20 C2.203 19.973 2.193 19.937 2.183 19.917 C2.161 19.885 2.156 19.849 2.151 19.683 C2.14 19.401 2.14 5.803 2.151 5.511 C2.156 5.307 2.161 5.26 2.183 5.229 C2.193 5.203 2.203 5.167 2.203 5.136 C2.203 5.109 2.213 5.079 2.229 5.057 C2.24 5.041 2.251 5.021 2.251 5.011 C2.251 4.989 2.307 4.875 2.328 4.855 C2.339 4.844 2.344 4.828 2.344 4.817 C2.344 4.803 2.355 4.787 2.369 4.781 C2.38 4.776 2.391 4.765 2.391 4.755 C2.391 4.708 2.645 4.443 2.749 4.385 C2.781 4.364 2.812 4.344 2.812 4.339 C2.812 4.323 2.927 4.265 2.948 4.265 C2.953 4.265 2.973 4.255 2.989 4.245 C3.011 4.229 3.036 4.219 3.052 4.219 C3.068 4.219 3.088 4.208 3.099 4.197 C3.115 4.177 3.136 4.172 3.167 4.172 C3.197 4.172 3.229 4.161 3.245 4.151 C3.292 4.12 3.615 4.104 3.849 4.12 C3.964 4.131 4 4.12 4.021 4.068 C4.031 4.031 4.031 3.183 4.016 3.057 C4.005 3 4.011 2.989 4.036 2.953 Z
       M4.804 3.866 C4.781 3.899 4.776 3.909 4.786 3.961 C4.799 4.074 4.799 4.841 4.79 4.874 C4.771 4.921 4.739 4.931 4.635 4.921 C4.423 4.907 4.131 4.921 4.089 4.949 C4.074 4.958 4.045 4.968 4.018 4.968 C3.99 4.968 3.971 4.973 3.957 4.991 C3.952 4.996 3.944 5.001 3.936 5.005 H4.011 V5.031 C4.011 5.047 4.016 5.063 4.021 5.068 C4.027 5.073 4.031 7.437 4.031 12.125 C4.031 16.005 4.036 19.183 4.041 19.193 C4.047 19.203 4.636 19.208 6.755 19.208 L9.464 19.213 L9.636 19.24 C10.459 19.369 10.948 19.563 11.421 19.948 C11.527 20.031 11.631 20.088 11.745 20.12 C11.812 20.14 11.864 20.145 12.011 20.145 C12.177 20.145 12.193 20.14 12.297 20.109 C12.421 20.068 12.469 20.041 12.631 19.912 C12.787 19.787 12.921 19.703 13.079 19.62 C13.443 19.432 13.869 19.303 14.355 19.24 C14.536 19.213 14.568 19.213 17.265 19.208 H19.995 V5.005 H20.1 C20.087 5 20.073 4.994 20.063 4.987 C20.045 4.978 20.011 4.968 19.993 4.968 C19.974 4.968 19.936 4.958 19.913 4.949 C19.875 4.926 19.852 4.926 19.593 4.926 C19.414 4.926 19.297 4.921 19.268 4.911 L19.226 4.902 V3.866 L19.203 3.852 C19.193 3.846 19.163 3.842 19.049 3.84 L19.063 3.88 C19.083 3.943 19.083 18.208 19.063 18.251 C19.057 18.271 19.041 18.281 19.027 18.281 C15.281 18.287 14.771 18.287 14.708 18.307 C14.661 18.323 14.599 18.328 14.464 18.328 C14.312 18.328 14.276 18.333 14.219 18.355 C14.177 18.364 14.12 18.375 14.079 18.375 C14.031 18.375 13.984 18.385 13.948 18.401 C13.907 18.412 13.86 18.421 13.812 18.421 C13.76 18.421 13.724 18.427 13.697 18.448 C13.672 18.459 13.636 18.469 13.609 18.469 C13.584 18.469 13.557 18.479 13.547 18.489 C13.536 18.5 13.495 18.511 13.453 18.516 C13.416 18.521 13.375 18.531 13.36 18.541 C13.349 18.552 13.323 18.563 13.297 18.563 C13.271 18.563 13.24 18.573 13.224 18.588 C13.208 18.599 13.177 18.609 13.161 18.609 C13.145 18.609 13.115 18.62 13.093 18.636 C13.079 18.645 13.047 18.656 13.031 18.656 C13.016 18.656 12.989 18.667 12.979 18.683 C12.969 18.693 12.943 18.703 12.927 18.703 C12.912 18.703 12.88 18.713 12.86 18.729 C12.844 18.74 12.817 18.749 12.803 18.749 C12.787 18.749 12.765 18.76 12.755 18.776 C12.745 18.787 12.724 18.797 12.713 18.797 C12.703 18.797 12.683 18.807 12.667 18.817 C12.651 18.833 12.625 18.844 12.609 18.849 C12.593 18.855 12.579 18.864 12.573 18.864 C12.573 18.869 12.536 18.891 12.5 18.907 C12.464 18.927 12.427 18.948 12.416 18.964 C12.401 18.973 12.385 18.984 12.38 18.984 C12.369 18.984 12.339 19.005 12.303 19.031 C12.271 19.057 12.24 19.079 12.235 19.079 C12.224 19.079 12.188 19.109 12.151 19.151 C12.115 19.188 12.073 19.219 12.057 19.219 C12.047 19.219 12.031 19.229 12.027 19.235 C12.011 19.251 12 19.251 11.959 19.208 C11.932 19.183 11.896 19.151 11.875 19.14 C11.86 19.131 11.817 19.099 11.787 19.079 C11.755 19.052 11.729 19.031 11.719 19.031 C11.713 19.031 11.703 19.027 11.693 19.016 C11.683 19.005 11.636 18.973 11.563 18.927 C11.547 18.921 11.521 18.907 11.495 18.891 C11.473 18.88 11.453 18.869 11.448 18.864 C11.437 18.855 11.136 18.703 11.12 18.703 C11.115 18.703 11.088 18.693 11.068 18.683 C11.041 18.667 11.011 18.656 11 18.656 C10.984 18.656 10.959 18.645 10.937 18.636 C10.921 18.62 10.891 18.609 10.875 18.609 C10.864 18.609 10.833 18.599 10.807 18.588 C10.781 18.573 10.755 18.563 10.74 18.563 C10.724 18.563 10.697 18.552 10.672 18.541 C10.645 18.527 10.609 18.516 10.588 18.516 C10.568 18.516 10.536 18.505 10.516 18.495 C10.5 18.484 10.453 18.473 10.416 18.469 C10.385 18.464 10.333 18.453 10.307 18.443 C10.281 18.432 10.235 18.421 10.197 18.421 C10.167 18.421 10.115 18.412 10.088 18.401 C10.052 18.385 10.011 18.375 9.959 18.375 C9.912 18.375 9.86 18.364 9.833 18.355 C9.807 18.344 9.735 18.333 9.615 18.328 C9.521 18.323 9.421 18.312 9.401 18.303 C9.364 18.292 8.927 18.287 7.167 18.287 C5.964 18.281 4.969 18.281 4.959 18.276 C4.948 18.271 4.948 16.807 4.948 11.057 C4.948 7.093 4.948 3.844 4.953 3.839 C4.956 3.836 5.093 3.835 5.318 3.834 H4.833 Z
       M6.405 11.384 C6.129 11.384 5.905 11.608 5.905 11.884 C5.905 12.161 6.129 12.384 6.405 12.384 H10.131 C10.407 12.384 10.631 12.161 10.631 11.884 C10.631 11.608 10.407 11.384 10.131 11.384 Z
       M6.405 6.785 C6.129 6.785 5.905 7.008 5.905 7.285 C5.905 7.561 6.129 7.785 6.405 7.785 H10.131 C10.407 7.785 10.631 7.561 10.631 7.285 C10.631 7.008 10.407 6.785 10.131 6.785 Z
       M6.405 9.085 C6.129 9.085 5.905 9.308 5.905 9.585 C5.905 9.861 6.129 10.085 6.405 10.085 H10.131 C10.407 10.085 10.631 9.861 10.631 9.585 C10.631 9.308 10.407 9.085 10.131 9.085 Z
       M6.405 13.684 C6.129 13.684 5.905 13.908 5.905 14.184 C5.905 14.461 6.129 14.684 6.405 14.684 H10.131 C10.407 14.684 10.631 14.461 10.631 14.184 C10.631 13.908 10.407 13.684 10.131 13.684 Z
       M13.895 13.684 C13.618 13.684 13.395 13.908 13.395 14.184 C13.395 14.461 13.618 14.684 13.895 14.684 H17.62 C17.896 14.684 18.12 14.461 18.12 14.184 C18.12 13.908 17.896 13.684 17.62 13.684 Z
       M13.895 11.384 C13.618 11.384 13.395 11.608 13.395 11.884 C13.395 12.161 13.618 12.384 13.895 12.384 H17.62 C17.896 12.384 18.12 12.161 18.12 11.884 C18.12 11.608 17.896 11.384 17.62 11.384 Z
       M13.895 6.785 C13.618 6.785 13.395 7.008 13.395 7.285 C13.395 7.561 13.618 7.785 13.895 7.785 H17.62 C17.896 7.785 18.12 7.561 18.12 7.285 C18.12 7.008 17.896 6.785 17.62 6.785 Z
       M13.895 9.085 C13.618 9.085 13.395 9.308 13.395 9.585 C13.395 9.861 13.618 10.085 13.895 10.085 H17.62 C17.896 10.085 18.12 9.861 18.12 9.585 C18.12 9.308 17.896 9.085 17.62 9.085 Z
       M8.193 3.86 C8.792 3.912 9.36 3.984 9.671 4.063 C9.659 4.07 9.642 4.081 9.839 4.088 C10.349 4.197 10.828 4.391 11.208 4.64 C11.287 4.688 11.683 5 11.713 5.031 C11.745 5.063 11.953 5.251 11.979 5.265 L12.011 5.287 L12.079 5.229 C12.443 4.901 12.713 4.688 12.907 4.573 C13.38 4.292 13.88 4.125 14.656 3.995 C14.937 3.948 15.021 3.937 15.235 3.917 C15.492 3.888 15.65 3.869 15.853 3.857 C15.776 3.861 15.683 3.864 15.588 3.866 C15.319 3.872 15.211 3.881 15.164 3.89 C15.127 3.899 15.051 3.909 14.989 3.909 C14.91 3.909 14.853 3.913 14.802 3.933 C14.749 3.946 14.697 3.951 14.623 3.951 C14.538 3.951 14.505 3.956 14.467 3.975 C14.438 3.989 14.401 3.993 14.354 3.993 C14.303 3.993 14.265 3.998 14.236 4.018 C14.199 4.032 14.166 4.035 14.105 4.035 C14.039 4.035 14.011 4.04 13.978 4.06 C13.954 4.069 13.917 4.079 13.888 4.079 C13.855 4.079 13.808 4.087 13.78 4.101 C13.751 4.111 13.704 4.121 13.677 4.121 C13.648 4.121 13.62 4.126 13.61 4.139 C13.601 4.144 13.569 4.158 13.534 4.163 C13.502 4.168 13.465 4.177 13.45 4.186 C13.436 4.196 13.408 4.205 13.384 4.205 C13.361 4.205 13.332 4.215 13.319 4.23 C13.3 4.238 13.272 4.248 13.252 4.248 C13.233 4.248 13.206 4.257 13.191 4.271 C13.173 4.281 13.144 4.29 13.126 4.29 C13.097 4.29 13.079 4.299 13.065 4.314 C13.056 4.324 13.031 4.333 13.013 4.333 C12.994 4.333 12.966 4.342 12.947 4.356 C12.933 4.365 12.909 4.375 12.895 4.375 C12.88 4.375 12.862 4.385 12.848 4.398 C12.833 4.408 12.815 4.418 12.806 4.418 C12.792 4.418 12.774 4.427 12.754 4.44 C12.739 4.45 12.721 4.459 12.712 4.459 C12.702 4.459 12.683 4.469 12.67 4.484 C12.655 4.492 12.636 4.502 12.631 4.502 C12.618 4.502 12.537 4.539 12.5 4.568 C12.485 4.578 12.467 4.586 12.453 4.586 C12.443 4.586 12.428 4.596 12.425 4.606 C12.42 4.615 12.387 4.638 12.359 4.653 C12.326 4.672 12.297 4.69 12.297 4.694 C12.297 4.7 12.283 4.709 12.265 4.719 C12.246 4.723 12.189 4.766 12.142 4.808 C12.043 4.902 12.02 4.907 11.939 4.841 C11.855 4.776 11.7 4.672 11.685 4.672 C11.68 4.672 11.672 4.667 11.667 4.657 C11.657 4.643 11.577 4.596 11.507 4.553 C11.488 4.549 11.47 4.535 11.46 4.535 C11.45 4.526 11.412 4.506 11.375 4.492 L11.29 4.45 C11.281 4.44 11.262 4.432 11.248 4.427 C11.234 4.422 11.206 4.408 11.177 4.393 C11.154 4.385 11.125 4.375 11.112 4.375 C11.097 4.375 11.078 4.365 11.06 4.356 C11.046 4.342 11.026 4.333 11.018 4.333 C11.003 4.333 10.979 4.324 10.961 4.314 C10.942 4.299 10.914 4.29 10.899 4.29 C10.88 4.29 10.867 4.281 10.858 4.277 C10.848 4.267 10.829 4.257 10.805 4.252 C10.782 4.248 10.749 4.238 10.725 4.224 C10.697 4.215 10.67 4.205 10.65 4.205 C10.631 4.205 10.608 4.196 10.594 4.186 C10.584 4.183 10.551 4.168 10.519 4.163 C10.494 4.158 10.453 4.149 10.428 4.139 C10.406 4.13 10.368 4.121 10.344 4.121 C10.32 4.121 10.287 4.111 10.268 4.101 C10.255 4.097 10.203 4.083 10.165 4.079 C10.122 4.074 10.07 4.06 10.048 4.054 C10.024 4.045 9.976 4.035 9.948 4.035 C9.916 4.035 9.873 4.027 9.854 4.018 C9.831 4.013 9.761 3.998 9.695 3.993 C9.629 3.989 9.572 3.98 9.563 3.975 C9.549 3.966 9.488 3.956 9.384 3.951 C9.285 3.946 9.206 3.937 9.177 3.928 C9.153 3.913 9.097 3.909 9.026 3.909 C8.951 3.909 8.895 3.905 8.862 3.89 C8.823 3.881 8.729 3.872 8.495 3.866 C8.325 3.862 8.146 3.852 8.104 3.848 C8.061 3.838 7.517 3.835 6.687 3.834 C7.762 3.84 8.012 3.845 8.193 3.86 Z
       M11.564 21.017 C11.541 21.01 11.514 21.003 11.489 21 C11.453 20.995 11.407 20.984 11.385 20.973 C11.364 20.964 11.333 20.953 11.312 20.953 C11.292 20.953 11.271 20.948 11.26 20.937 C11.255 20.927 11.229 20.917 11.213 20.912 C11.172 20.907 11.145 20.896 11.005 20.823 C10.781 20.719 10.5 20.484 10.317 20.265 L10.224 20.156 H6.907 C5.299 20.156 4.44 20.156 3.996 20.153 C4.09 20.182 4.189 20.201 4.291 20.208 C4.352 20.213 5.656 20.218 7.19 20.218 H9.976 L10.184 20.378 C10.541 20.67 10.772 20.798 11.121 20.91 C11.278 20.96 11.42 20.995 11.564 21.017 Z
       M20.007 20.154 C19.58 20.156 18.755 20.156 17.136 20.156 H13.839 L13.797 20.183 C13.76 20.203 13.677 20.292 13.677 20.307 C13.677 20.323 13.579 20.421 13.479 20.505 C13.421 20.552 13.349 20.615 13.312 20.645 C13.276 20.683 13.24 20.708 13.224 20.713 C13.213 20.719 13.193 20.729 13.183 20.74 C13.161 20.755 12.937 20.869 12.921 20.869 C12.917 20.869 12.907 20.88 12.896 20.891 C12.885 20.896 12.864 20.907 12.849 20.907 C12.833 20.907 12.812 20.917 12.797 20.932 C12.795 20.933 12.793 20.934 12.791 20.936 C12.893 20.906 12.993 20.871 13.092 20.83 C13.375 20.717 13.704 20.505 13.945 20.28 L14.011 20.218 H16.779 C18.317 20.218 19.611 20.213 19.697 20.208 C19.811 20.201 19.912 20.183 20.007 20.154 Z
       M15.956 3.852 C16.212 3.841 16.559 3.837 17.218 3.834 C16.476 3.835 16.061 3.839 16.021 3.848 Z
       M12.728 20.953 C12.715 20.953 12.698 20.958 12.683 20.965 Z"/>
</svg>
