<svg xmlns="http://www.w3.org/2000/svg" width="24" height="24" viewBox="0 0 24 24"><path d="M15.844 17.369333C14.5 18.390665 12.822666 19 11 19C6.584 19 3 15.416 3 11C3 6.584 6.584 3 11 3C15.416 3 19 6.584 19 11C19 12.874666 18.354666 14.604 17.270666 15.969333L21.697332 20.286667C22.093332 20.671999 22.098665 21.302666 21.713333 21.697332C21.327999 22.093332 20.697332 22.098665 20.302666 21.713333ZM17 11C17 7.688 14.312 5 11 5C7.688 5 5 7.688 5 11C5 14.312 7.688 17 11 17C14.312 17 17 14.312 17 11ZM5.8405 9.33772C6.076 8.61237 6.46425 7.94616 6.97652 7.3815C7.0631 7.28603 7.19895 7.252 7.32058 7.2953L8.5443 7.73117C8.8762 7.84928 9.2412 7.6771 9.3598 7.34661C9.3714 7.31411 9.3804 7.28073 9.3866 7.24683L9.6198 5.97204C9.643 5.84529 9.7407 5.74505 9.8672 5.71822C10.2373 5.63975 10.6167 5.59985 10.9745 5.59985C11.3587 5.59985 11.7382 5.63969 12.1082 5.71808C12.2347 5.74487 12.3324 5.84501 12.3556 5.97177L12.5894 7.24678C12.6526 7.59203 12.9849 7.82088 13.3314 7.75791C13.3655 7.75173 13.399 7.74279 13.4316 7.73119L14.6554 7.2953C14.777 7.252 14.9128 7.28603 14.9994 7.3815C15.5117 7.94616 15.9 8.61237 16.1355 9.33772C16.1752 9.46016 16.1369 9.59439 16.038401 9.67767L15.047 10.5165C14.7784 10.7436 14.7456 11.1444 14.9736 11.4118C14.996 11.4381 15.0205 11.4625 15.047 11.4848L16.038401 12.3236C16.1369 12.4069 16.1752 12.5411 16.1355 12.6636C15.9 13.3889 15.5117 14.0551 14.9994 14.6198C14.9128 14.7153 14.777 14.7493 14.6554 14.706L13.4317 14.2701C13.0998 14.152 12.7348 14.3242 12.6162 14.6547C12.6046 14.6872 12.5956 14.7205 12.5894 14.7545L12.3556 16.0292C12.3324 16.155899 12.2347 16.2561 12.1082 16.2829C11.7382 16.3613 11.3587 16.4011 10.9745 16.4011C10.6167 16.4011 10.2373 16.3612 9.8672 16.282801C9.7407 16.255899 9.643 16.155701 9.6198 16.028999L9.3866 14.7544C9.3234 14.4092 8.9911 14.1803 8.64459 14.2433C8.6105 14.2495 8.57699 14.2584 8.54435 14.27L7.32058 14.706C7.19895 14.7493 7.0631 14.7153 6.97652 14.6198C6.46425 14.0551 6.076 13.3889 5.8405 12.6636C5.8008 12.5411 5.83912 12.4069 5.9376 12.3236L6.929 11.4848C7.19755 11.2577 7.23039 10.8569 7.00239 10.5895C6.97998 10.5632 6.95544 10.5388 6.92901 10.5165L5.9376 9.67767C5.83912 9.59439 5.8008 9.46016 5.8405 9.33772ZM9.3999 11.0005C9.3999 11.8703 10.1051 12.5754 10.9745 12.5754C11.8439 12.5754 12.5491 11.8703 12.5491 11.0005C12.5491 10.1307 11.8439 9.42553 10.9745 9.42553C10.1051 9.42553 9.3999 10.1307 9.3999 11.0005Z"/></svg>
