<svg xmlns="http://www.w3.org/2000/svg" width="24" height="24" viewBox="0 0 24 24"><path d="M10.536121 4.551331C10.114068 4.589353 9.771862 4.665399 9.277566 4.825095C8.254752 5.163498 7.25095 5.878327 6.581749 6.752851C6.528517 6.821292 6.448669 6.920152 6.403041 6.973384C6.357414 7.026615 6.30038 7.114068 6.269962 7.1673C6.243346 7.220532 6.212927 7.273764 6.201521 7.285171C6.1673 7.319391 6.049429 7.532319 5.95057 7.741444C5.897338 7.855513 5.836502 7.980988 5.81749 8.015209C5.798479 8.053231 5.78327 8.110266 5.78327 8.140684C5.78327 8.171102 5.76806 8.197718 5.745247 8.197718C5.726235 8.197718 5.707224 8.239543 5.707224 8.288973C5.707224 8.342205 5.692015 8.395437 5.669201 8.406843C5.65019 8.41825 5.631178 8.471482 5.631178 8.520912C5.631178 8.570342 5.615969 8.623574 5.593156 8.63498C5.570342 8.646387 5.555133 8.703421 5.555133 8.756653C5.555133 8.85171 5.509505 9.026615 5.437262 9.205322C5.30038 9.55133 5.323194 11.087452 5.475285 11.676805C5.494296 11.760455 5.524714 11.878326 5.536121 11.942965C5.558935 12.057033 5.608365 12.182509 5.673003 12.311786C5.692015 12.349809 5.707224 12.406843 5.707224 12.437261C5.707224 12.46768 5.722433 12.524714 5.741445 12.562737C5.760456 12.596957 5.836502 12.756653 5.912547 12.912546C6.076045 13.250949 6.171102 13.422052 6.212927 13.437261C6.228136 13.444866 6.239543 13.475284 6.239543 13.505702C6.239543 13.536121 6.258555 13.558934 6.277566 13.558934C6.30038 13.558934 6.315589 13.581748 6.315589 13.612166C6.315589 13.642584 6.326996 13.673003 6.346007 13.680607C6.368821 13.692014 6.486692 13.836501 6.695817 14.110265C6.86692 14.3346 7.444866 14.874523 7.745247 15.091253C8.547528 15.665398 9.395437 16.007603 10.349809 16.144485C10.771862 16.205322 11.821292 16.174904 12.209124 16.087451C12.942965 15.923953 13.775664 15.566539 14.304181 15.186311C14.463877 15.072242 14.612166 14.965778 14.63498 14.954371C14.653991 14.939162 14.794676 15.045626 14.939162 15.186311L15.209124 15.448668L15.224333 15.825094C15.243345 16.277565 15.269961 16.384029 15.403041 16.581748C15.528516 16.768059 18.342204 19.574143 18.528516 19.699618C18.692014 19.809884 19.01901 19.908744 19.220531 19.908744C19.950569 19.904941 20.558934 19.216728 20.482888 18.475284C20.429656 17.973382 20.414447 17.950569 18.733839 16.281367C17.608364 15.159695 17.163497 14.741444 17.038021 14.684409C16.908744 14.627375 16.779466 14.604562 16.505702 14.600759C16.307983 14.596957 16.121672 14.589352 16.095056 14.589352C16.049428 14.58555 15.806082 14.357413 15.615968 14.136881C15.543725 14.053231 15.543725 14.053231 15.657793 13.908744C16.182508 13.250949 16.581748 12.384029 16.779466 11.475284C16.889732 10.969581 16.897337 9.787071 16.794675 9.30038C16.395436 7.395437 15.288972 5.931559 13.615968 5.095057C12.692014 4.634981 11.63498 4.448669 10.536121 4.551331M12.133079 5.25095C12.912546 5.422053 13.661596 5.78327 14.288972 6.281368C14.558934 6.498098 15.076044 7.022813 15.163497 7.174904C15.20152 7.235741 15.243345 7.285171 15.258554 7.285171C15.273763 7.285171 15.288972 7.304182 15.288972 7.323193C15.288972 7.346007 15.31939 7.399239 15.361215 7.441064C15.399238 7.482889 15.471482 7.596958 15.520911 7.695817C15.570341 7.794676 15.619771 7.882129 15.631177 7.893536C15.673002 7.935361 15.897337 8.403041 15.897337 8.452471C15.897337 8.479087 15.916348 8.536121 15.93536 8.577946C15.958174 8.619771 15.992394 8.688212 16.011405 8.730037C16.034219 8.771862 16.049428 8.847908 16.049428 8.897338C16.049428 8.95057 16.06844 9.003802 16.087451 9.015208C16.110265 9.026615 16.125474 9.095056 16.125474 9.1673C16.125474 9.239543 16.140683 9.304182 16.159694 9.315589C16.212926 9.349809 16.250949 9.775665 16.250949 10.365018C16.250949 10.885931 16.220531 11.178706 16.129276 11.524714C16.110265 11.608364 16.079847 11.726235 16.06844 11.790874C16.053231 11.85171 16.026615 11.946767 16.003801 11.999999C15.980987 12.053231 15.946767 12.133079 15.931558 12.178706C15.912546 12.228136 15.882128 12.304182 15.863117 12.349809C15.794675 12.528516 15.650189 12.817489 15.623573 12.828896C15.604561 12.836501 15.593155 12.874524 15.593155 12.916349C15.593155 12.954372 15.577945 12.988592 15.555132 12.988592C15.53612 12.988592 15.517109 13.015208 15.517109 13.045626C15.517109 13.076045 15.5019 13.102661 15.479086 13.102661C15.460075 13.102661 15.441063 13.129276 15.441063 13.159695C15.441063 13.190113 15.425854 13.216729 15.403041 13.216729C15.384029 13.216729 15.365018 13.243345 15.365018 13.273763C15.365018 13.304181 15.349809 13.330797 15.326995 13.330797C15.307984 13.330797 15.288972 13.346007 15.288972 13.36882C15.288972 13.406843 15.212926 13.509505 15.079847 13.650189C14.908744 13.825094 14.908744 13.825094 15.612166 14.528516C16.212926 15.133079 16.28517 15.193915 16.40304 15.193915C16.749048 15.193915 16.707223 15.159695 18.273763 16.71863C19.091253 17.532318 19.779466 18.243344 19.806082 18.300379C19.874523 18.448668 19.859314 18.840303 19.779466 18.977185C19.600759 19.281367 19.178706 19.361215 18.859314 19.15209C18.61977 18.988592 15.912546 16.262356 15.859314 16.129276C15.817489 16.01901 15.798478 15.749048 15.825094 15.665398C15.847907 15.600759 14.547527 14.357413 14.460075 14.357413C14.422052 14.357413 14.326995 14.406843 14.258554 14.471482C14.186311 14.532318 14.11787 14.58555 14.10266 14.58555C14.087451 14.58555 14.053231 14.608364 14.026615 14.631177C13.714828 14.920151 12.855512 15.292774 12.114067 15.463877C11.577946 15.581748 10.68441 15.581748 10.140684 15.460075C9.608364 15.342204 9.174904 15.182508 8.711026 14.939162C7.353612 14.216729 6.361216 12.885931 6.026616 11.3346C5.942965 10.954372 5.931559 9.806083 6.007604 9.490494C6.03422 9.376425 6.079848 9.178707 6.110266 9.053231C6.182509 8.73384 6.365019 8.277566 6.570342 7.885931C7.045627 6.98479 7.908745 6.148289 8.855513 5.673003C9.216729 5.490494 9.745246 5.315589 10.193916 5.228137C10.650189 5.140684 11.688212 5.152091 12.133079 5.25095"/><path d="M10.669201 6.338403C9.806083 6.422053 8.977186 6.821292 8.277566 7.490494C8.11787 7.642585 7.988593 7.779467 7.988593 7.794676C7.988593 7.809885 7.965779 7.844106 7.942965 7.870722C7.790874 8.022813 7.646387 8.258555 7.475285 8.615969C7.41825 8.730037 7.357414 8.855513 7.338403 8.889733C7.319391 8.927756 7.304182 8.992395 7.304182 9.030418C7.304182 9.072243 7.288973 9.114068 7.269961 9.125475C7.239543 9.148288 7.21673 9.239543 7.1673 9.555132C7.155893 9.63498 7.129277 9.73384 7.110266 9.775665C7.064638 9.874524 7.087452 10.882128 7.144486 11.144486C7.1673 11.247147 7.197718 11.38403 7.209125 11.448668C7.231939 11.562737 7.281368 11.692014 7.346007 11.81749C7.365018 11.855512 7.380228 11.920151 7.380228 11.961976C7.380228 12.003801 7.399239 12.038022 7.41825 12.038022C7.441064 12.038022 7.456273 12.072242 7.456273 12.114067C7.456273 12.155893 7.46768 12.190113 7.486691 12.190113C7.501901 12.190113 7.536121 12.247147 7.566539 12.311786C7.657794 12.524714 7.908745 12.866919 8.171102 13.148288C8.695817 13.703421 9.380227 14.114067 10.11787 14.311786C10.429657 14.391634 10.562737 14.406843 11.087452 14.406843C11.593155 14.410645 11.749048 14.395436 12.007604 14.326995C13.58555 13.916349 14.695816 12.760455 15.064638 11.144486C15.140683 10.809885 15.133079 9.85171 15.049428 9.498098C14.790873 8.41825 14.190113 7.543726 13.300379 6.965779C12.745246 6.60076 12.220531 6.414448 11.539923 6.3346C11.163497 6.292775 11.155893 6.292775 10.669201 6.338403M11.999999 6.828897C12.361216 6.920152 12.916349 7.186311 13.20152 7.399239C13.532318 7.646387 13.954371 8.08365 14.098858 8.330798C14.315588 8.692015 14.45247 8.961977 14.45247 9.019011C14.45247 9.049429 14.467679 9.072243 14.486691 9.072243C14.505702 9.072243 14.528516 9.11787 14.539923 9.174904C14.55133 9.235741 14.581748 9.349809 14.604562 9.433459C14.71863 9.825094 14.783269 10.456273 14.71863 10.536121C14.657793 10.612166 14.475284 10.608364 14.399238 10.532319C14.326995 10.463878 14.311786 10.399239 14.281368 10.03422C14.190113 8.95057 13.441064 7.878326 12.46768 7.441064C12.114067 7.281368 11.699619 7.171102 11.3346 7.144486C11.072242 7.125475 10.999999 7.106463 10.927756 7.03422C10.821292 6.923954 10.81749 6.889733 10.920151 6.787072C10.996197 6.711026 11.030417 6.707224 11.349809 6.726235C11.539923 6.741444 11.832699 6.787072 11.999999 6.828897"/></svg>
