<svg xmlns="http://www.w3.org/2000/svg" width="24" height="24" viewBox="0 0 24 24"><path d="M10.079847 4.836502C9.155893 4.939163 8.243345 5.285171 7.505703 5.813688C7.136882 6.079848 7.049429 6.152091 6.73384 6.471482C6.456273 6.749049 6.414448 6.798479 6.258555 7.019011C6.209125 7.091254 6.136882 7.186311 6.098859 7.224334C6.060836 7.266159 6.030418 7.323193 6.030418 7.349809C6.030418 7.376425 6.019011 7.399239 6 7.399239C5.98479 7.399239 5.95057 7.456273 5.920152 7.520912C5.889733 7.589353 5.855513 7.653992 5.844106 7.665399C5.798479 7.703422 5.726235 7.855513 5.726235 7.912547C5.726235 7.942965 5.711026 7.969581 5.688213 7.969581C5.669201 7.969581 5.65019 7.996197 5.65019 8.026615C5.65019 8.057034 5.634981 8.11787 5.612167 8.159695C5.593156 8.20152 5.558935 8.269961 5.536121 8.311786C5.51711 8.353612 5.498099 8.422053 5.498099 8.460075C5.498099 8.501901 5.482889 8.547528 5.460076 8.558935C5.441064 8.570342 5.422053 8.623574 5.422053 8.673003C5.422053 8.722433 5.406844 8.775665 5.38403 8.787072C5.365019 8.798478 5.346007 8.878326 5.346007 8.958174C5.346007 9.038022 5.330798 9.11787 5.307984 9.129277C5.288973 9.140684 5.269962 9.220532 5.269962 9.30038C5.269962 9.380227 5.254753 9.460075 5.231939 9.471482C5.178707 9.5019 5.178707 11.076045 5.231939 11.106463C5.254753 11.11787 5.269962 11.197718 5.269962 11.277566C5.269962 11.357414 5.288973 11.437261 5.307984 11.448668C5.330798 11.460075 5.346007 11.539923 5.346007 11.619771C5.346007 11.699619 5.365019 11.779467 5.38403 11.790874C5.406844 11.80228 5.422053 11.847908 5.422053 11.889733C5.422053 11.927756 5.437262 11.992394 5.456273 12.030417C5.486692 12.091254 5.524714 12.178706 5.608365 12.387832C5.726235 12.692014 6 13.193915 6.114068 13.330797C6.152091 13.372622 6.182509 13.422052 6.182509 13.441064C6.182509 13.460075 6.193916 13.482889 6.212927 13.490493C6.228136 13.494295 6.315589 13.596957 6.410646 13.711025C7.174904 14.657793 8.254752 15.307983 9.547528 15.600759C9.973383 15.695816 11.28517 15.695816 11.676805 15.600759C12.410645 15.41825 13.053231 15.144485 13.604562 14.775664C13.836501 14.619771 13.912546 14.58555 13.965778 14.615968C14.003801 14.638782 14.182508 14.806082 14.365018 14.992394C14.619771 15.247147 14.699619 15.353611 14.699619 15.429656C14.699619 15.486691 14.684409 15.543725 14.661596 15.555132C14.612166 15.58555 14.612166 15.866919 14.661596 15.897337C14.684409 15.908744 14.699619 15.961976 14.699619 16.011405C14.699619 16.060835 14.71863 16.114067 14.737641 16.125474C14.760455 16.136881 14.775664 16.178706 14.775664 16.216729C14.775664 16.269961 17.349808 18.847907 17.942964 19.387831C18.342204 19.749048 19.007603 19.711025 19.414447 19.300379C19.75285 18.965778 19.851709 18.418249 19.650188 18.007603C19.593154 17.88593 19.114067 17.384029 17.980987 16.250949C16.422052 14.695816 16.387831 14.6692 16.171101 14.604562C16.003801 14.555132 15.882128 14.547527 15.684409 14.566539L15.41825 14.593155L15.087451 14.277565C14.904942 14.10266 14.741444 13.93536 14.726235 13.897337C14.699619 13.85171 14.741444 13.771862 14.889733 13.593155C15.41825 12.942965 15.813687 12.049429 15.973383 11.144486C16.079847 10.55133 16.034219 9.528516 15.874523 8.904942C15.642584 7.98479 15.129276 7.102661 14.414447 6.391635C13.650189 5.623574 12.688212 5.110266 11.650189 4.908745C11.338402 4.847908 10.380227 4.806083 10.079847 4.836502M11.391634 5.969581C12.030417 6.095057 12.661596 6.372623 13.197718 6.771863C13.513307 7.007604 14.167299 7.680608 14.167299 7.775665C14.167299 7.790874 14.20152 7.836501 14.243345 7.874524C14.28517 7.912547 14.31939 7.965779 14.31939 7.996197C14.31939 8.022813 14.330797 8.045627 14.349809 8.045627C14.365018 8.045627 14.41825 8.140684 14.471482 8.254752C14.524714 8.368821 14.577946 8.463878 14.596957 8.463878C14.612166 8.463878 14.623573 8.490494 14.623573 8.520912C14.623573 8.55133 14.638782 8.608364 14.657793 8.646387C14.676805 8.680608 14.711025 8.787072 14.737641 8.882129C14.764257 8.977186 14.798478 9.08365 14.817489 9.11787C14.836501 9.155893 14.85171 9.224334 14.85171 9.273764C14.85171 9.323193 14.866919 9.376425 14.88593 9.395437C14.904942 9.41825 14.931558 9.55133 14.942965 9.699619C14.954371 9.844106 14.973383 10.110265 14.988592 10.281368C15.003801 10.494296 14.999999 10.612166 14.96958 10.642585C14.946767 10.665398 14.927755 10.790874 14.927755 10.920151C14.927755 11.053231 14.912546 11.171102 14.889733 11.182509C14.870721 11.193915 14.85171 11.243345 14.85171 11.28517C14.85171 11.395436 14.749048 11.714828 14.657793 11.893535C14.638782 11.931558 14.623573 11.988592 14.623573 12.01901C14.623573 12.049429 14.612166 12.076045 14.593155 12.076045C14.577946 12.076045 14.543725 12.133079 14.513307 12.197718C14.448668 12.346007 14.034219 12.969581 13.923953 13.087451C13.878326 13.136881 13.798478 13.220531 13.745246 13.281368C13.692014 13.338402 13.581748 13.444866 13.498098 13.513307C13.41825 13.577946 13.300379 13.676805 13.23574 13.730037C12.999999 13.931558 12.41825 14.250949 12.06844 14.376425C11.577946 14.55133 11.159695 14.623573 10.646387 14.623573C8.63498 14.623573 6.908745 13.277565 6.361216 11.277566C6.041825 10.11787 6.342205 8.673003 7.114068 7.646387C7.387832 7.285171 7.81749 6.885931 8.216729 6.615969C8.707224 6.292775 9.1673 6.110266 9.927756 5.942965C10.11787 5.90114 11.125474 5.920152 11.391634 5.969581"/><path d="M10.543725 6.692015C10.395436 6.844106 10.509505 6.927756 10.904942 6.95057C11.311786 6.977186 11.703421 7.095057 12.129277 7.315589C12.479086 7.501901 12.942965 7.86692 13.129276 8.102661C13.186311 8.178707 13.273763 8.28517 13.319391 8.342205C13.391634 8.429657 13.661596 8.942965 13.749048 9.1673C13.821292 9.342205 13.870721 9.612167 13.931558 10.11787C13.950569 10.292775 13.973383 10.349809 14.026615 10.357414C14.212927 10.395436 14.250949 10.163497 14.148288 9.623573C14.003801 8.866919 13.692014 8.266159 13.178706 7.737642C12.555132 7.102661 11.771862 6.722433 10.927756 6.653992C10.653992 6.634981 10.596957 6.638783 10.543725 6.692015"/></svg>
