<svg xmlns="http://www.w3.org/2000/svg" width="960" height="656" viewBox="0 0 960 656">
<rect width="100%" height="100%" fill="#ffffff"/>
<text x="24" y="42" font-family="Arial, sans-serif" font-size="24" font-weight="600" fill="#202020">Otzaria Icons</text>
<rect x="16" y="64" width="464" height="104" rx="12" fill="#f7f7f7" stroke="#dedede"/>
<svg x="36" y="84" width="64" height="64" viewBox="0 0 24 24" color="#202020"><path d="M4.774 1.523c-.211.183-.232.246-.267.71l-.035.505h-.414c-.794 0-1.11.26-1.11.92v.393l-.561.035c-.653.035-.899.168-1.032.554-.12.344-.12 13.12 0 13.472.049.133.19.308.323.4l.238.161h8.614l.288.19c.246.161.379.196.905.217.766.035 1.032-.007 1.362-.231l.26-.176h4.317c3.953 0 4.339-.007 4.528-.12.435-.259.414.078.414-7.244V4.633l-.231-.26c-.232-.245-.26-.252-.808-.287l-.575-.035v-.31c0-.722-.323-1.003-1.159-1.003h-.456v-.499c0-.456-.014-.512-.217-.709l-.211-.217-1.348.042c-1.144.028-1.453.063-2.029.21-1.291.337-2.358.948-3.152 1.784l-.463.49-.428-.476c-.744-.815-1.882-1.46-3.166-1.798-.569-.147-.885-.182-2.015-.21l-1.34-.042zm2.492.099c.99.119 1.621.309 2.457.73.863.428 1.621 1.053 2.007 1.65l.225.343.19-.294c.273-.436.87-1.004 1.418-1.362 1.186-.766 2.674-1.145 4.5-1.145.708 0 .765.014.926.176.155.154.176.225.176.737v.562h.603c.33 0 .66.028.73.07.169.091.281.435.281.884v.38h.625c.61 0 .632.006.807.217l.183.218v6.507c0 4.584-.021 6.578-.077 6.74-.155.435-.036.428-4.823.428-4.198 0-4.346.007-4.465.133-.309.344-1.6.365-2.092.042l-.267-.175H6.388c-4.59 0-4.584 0-4.773-.344-.05-.092-.07-2.36-.07-6.782v-6.64l.175-.17c.154-.16.225-.175.807-.175h.632v-.484c0-.38.028-.52.147-.667.134-.175.176-.182.808-.182h.66v-.59c0-.555.014-.604.182-.737.162-.127.288-.148.934-.148.407 0 1.032.036 1.376.078"/><path d="M5.405 8.178v6.002h.653c2.092 0 3.98.773 5.21 2.127l.385.429-.014-5.827-.02-5.82-.162-.33c-.787-1.593-2.9-2.583-5.525-2.583h-.527zM16.722 2.253c-1.98.232-3.63 1.194-4.226 2.471l-.211.436v11.555l.28-.323c1.173-1.355 2.872-2.1 5.02-2.205l.913-.042V2.211l-.632-.007a10 10 0 0 0-1.144.05"/><path d="M3.79 9.905v6.255l.162-.042c.87-.218 3.349-.225 4.402-.007 1.032.21 1.93.576 2.534 1.032.484.372.534.386.316.084-1.11-1.502-2.745-2.26-5.202-2.387-.78-.042-.934-.063-1.067-.19l-.161-.14V3.65H3.79zM19.165 9.049c0 5.244-.007 5.398-.14 5.567-.127.168-.183.175-1.068.224-2.05.106-3.278.527-4.486 1.524-.301.252-.905.961-.905 1.067 0 .028.168-.078.372-.232 1.102-.835 2.73-1.264 4.823-1.264.807 0 1.888.092 2.197.183.112.035.12-.295.12-6.213V3.65h-.913z"/><path d="M2.176 11.372v6.389H6.36c3.49 0 4.177-.014 4.107-.092-.134-.161-1.137-.603-1.713-.744a11 11 0 0 0-1.25-.217c-1.137-.113-1.762-.099-3.552.105-.4.049-.442.042-.61-.126l-.183-.183V4.984h-.983zM20.765 10.74l-.02 5.757-.19.19-.19.19-.653-.092c-2.211-.295-4.317-.105-5.637.52-1.025.484-1.25.449 3.426.456h4.19V4.984h-.912z"/></svg>
<text x="120" y="113" font-family="Consolas, monospace" font-size="15" fill="#202020">book_open_arc_24_filled</text>
<text x="120" y="136" font-family="Arial, sans-serif" font-size="13" fill="#666666">U+E000 · filled · 24 px</text>
<rect x="496" y="64" width="464" height="104" rx="12" fill="#f7f7f7" stroke="#dedede"/>
<svg x="516" y="84" width="64" height="64" viewBox="0 0 24 24" color="#202020"><path fill="currentColor" d="M4.34 1.515c-.177.156-.198.22-.22.736l-.028.567-.594.028c-.8.028-.9.128-.935.906l-.028.567h-.376c-.198 0-.46.035-.573.07-.439.156-.418-.226-.432 6.868-.007 4.085.014 6.563.064 6.705.141.467-.085.446 4.807.446 4.043 0 4.446.007 4.531.12.22.262.637.376 1.402.376.616 0 .793-.029 1.055-.15.17-.084.326-.197.347-.247.028-.085.786-.099 4.51-.099 4.928 0 4.701.021 4.843-.446.05-.142.07-2.627.063-6.719l-.014-6.5-.198-.19c-.17-.17-.255-.199-.722-.22l-.531-.028v-.531c0-.489-.014-.546-.206-.737-.198-.19-.24-.205-.778-.205h-.574V2.28c0-.46-.021-.58-.141-.708-.213-.227-.411-.255-1.516-.198-1.762.077-2.888.325-4.042.892-.758.368-1.275.764-1.791 1.373l-.319.382-.262-.332c-1.218-1.537-3.455-2.337-6.528-2.344-.545 0-.637.021-.814.17m2.627.758c1.5.155 2.839.729 3.688 1.586.277.269.588.665.701.87l.199.376.007 5.607c.007 3.42-.022 5.593-.057 5.572a3 3 0 0 1-.312-.304c-1.076-1.19-3.051-1.947-5.402-2.082-.693-.035-.835-.064-.842-.156a3143 3143 0 0 1 0-11.554c.007-.057 1.097-.007 2.018.085m12.007 5.713v5.87l-.8.042c-2.329.135-4.042.758-5.26 1.912l-.602.566.021-5.657.022-5.657.19-.318c.567-.97 1.374-1.608 2.585-2.047.828-.304 1.565-.438 2.712-.495a82 82 0 0 1 1.083-.064c.028-.007.05 2.627.05 5.848m-14.868.935c0 5.614 0 5.586.347 5.7.071.02.524.056.999.07 2.442.092 4.078.7 5.295 1.968.496.524.567.652.177.347-.693-.53-1.741-.934-2.902-1.111-1.048-.156-3.604-.128-4.581.056-.036.007-.064-2.598-.07-6.124l-.008-6.145h.743zm16.426.906v6.145l-.687-.092c-.878-.113-3.072-.127-3.773-.02-1.289.197-2.323.573-2.988 1.082-.191.142-.34.234-.34.199 0-.107.857-.949 1.204-1.19 1.14-.779 2.612-1.182 4.566-1.253.885-.028.928-.042 1.076-.22l.163-.183V3.682h.779zm-17.983.913c0 5.806 0 5.813.29 5.99.085.057.489.035 1.36-.057 1.444-.148 3.115-.12 4.085.071.672.135 1.571.46 1.84.673.177.141.17.141-3.979.141H1.982V5.168h.567zm19.399.623v6.195h-4.191c-2.889 0-4.163-.028-4.093-.077.553-.376 1.6-.716 2.585-.836.878-.106 2.378-.092 3.398.028 1.154.142 1.303.135 1.501-.05l.163-.148V5.168h.637z"/></svg>
<text x="600" y="113" font-family="Consolas, monospace" font-size="15" fill="#202020">book_open_arc_24_regular</text>
<text x="600" y="136" font-family="Arial, sans-serif" font-size="13" fill="#666666">U+E001 · regular · 24 px</text>
<rect x="16" y="176" width="464" height="104" rx="12" fill="#f7f7f7" stroke="#dedede"/>
<svg x="36" y="196" width="64" height="64" viewBox="0 0 24 24" color="#202020"><path d="M6.180887 5.307167C6.105802 5.337884 6.040955 5.361775 6.040955 5.361775C6.037542 5.361775 5.993174 5.419795 5.938566 5.488054C5.849829 5.604095 5.83959 5.648464 5.822525 5.976109L5.80546 6.334471L5.395904 6.351536C4.774744 6.378839 4.679181 6.457338 4.614334 6.979522L4.576792 7.290102L4.201365 7.31058C3.62116 7.34471 3.453925 7.464164 3.395904 7.880546C3.378839 8.010239 3.368601 10.296928 3.375427 13.167235L3.382252 18.221842L3.488054 18.368599C3.549488 18.450511 3.662116 18.5529 3.744027 18.593855L3.887372 18.672354L10.918088 18.672354L11.034129 18.761091C11.232081 18.911262 11.419794 18.972695 11.761091 18.996586C12.317405 19.030715 12.740613 18.948804 12.948805 18.761091C13.030716 18.689419 13.040955 18.689419 16.617746 18.672354L20.20819 18.655289L20.327644 18.580204C20.395903 18.539248 20.48464 18.443685 20.525596 18.368599L20.600681 18.235494L20.600681 12.98976C20.600681 7.116041 20.621159 7.593856 20.351534 7.416382C20.225254 7.331058 20.180886 7.324232 19.836176 7.317406C19.627985 7.313993 19.447098 7.31058 19.436859 7.31058C19.423207 7.307167 19.409555 7.167235 19.399316 7C19.382251 6.662116 19.341295 6.569966 19.133104 6.426621C19.030715 6.358362 18.979521 6.351536 18.617746 6.351536C18.375425 6.351536 18.20819 6.337884 18.194538 6.317406C18.180886 6.296928 18.167234 6.139932 18.163821 5.96587C18.156995 5.604095 18.098975 5.460751 17.904436 5.34471C17.791808 5.279863 17.733787 5.27645 17.017064 5.279863C15.39249 5.290102 14.443685 5.484641 13.3686 6.023891C12.890784 6.266211 12.372013 6.68942 12.122866 7.044368C12.088736 7.095563 12.040955 7.136518 12.017064 7.136518C11.993173 7.136518 11.907849 7.051194 11.825938 6.948805C11.491467 6.52901 10.890784 6.105802 10.225255 5.825938C9.33447 5.447099 8.546075 5.31058 7.102389 5.27645C6.450512 5.259386 6.293515 5.266211 6.180887 5.307167M7.651877 5.464164C9.617747 5.583618 11.05802 6.211604 11.83959 7.279863C11.918088 7.389078 11.98976 7.477815 12.003412 7.477815C12.013651 7.477815 12.078497 7.395904 12.146757 7.296928C12.317405 7.037542 12.655289 6.706484 12.972695 6.484641C13.839589 5.87372 14.93174 5.549488 16.389077 5.464164C17.918087 5.375426 17.972695 5.399317 17.972695 6.119454L17.972695 6.522184L18.959043 6.522184L19.075084 6.638225C19.20819 6.771331 19.235493 6.87372 19.235493 7.225256L19.235493 7.477815L19.638224 7.477815C19.986347 7.477815 20.061432 7.488054 20.191125 7.552901C20.307166 7.610921 20.354947 7.662116 20.385664 7.750853C20.416381 7.83959 20.42662 9.119453 20.42662 12.996586C20.430033 18.77133 20.45051 18.348122 20.177473 18.450511C20.051193 18.498292 19.675766 18.505118 16.525596 18.494879L13.013651 18.481227L12.856654 18.607507C12.648463 18.774743 12.505119 18.808872 12.013651 18.808872C11.535835 18.808872 11.324231 18.757678 11.167235 18.607507L11.061433 18.508531L7.477815 18.494879C4.566553 18.48464 3.877133 18.470989 3.802048 18.433446C3.750853 18.409555 3.675768 18.324231 3.638225 18.245733C3.569966 18.105801 3.569966 18.04778 3.569966 12.969283C3.569966 8.15017 3.573379 7.829351 3.631399 7.716723C3.726962 7.522184 3.860068 7.477815 4.348123 7.477815L4.764505 7.477815L4.764505 7.211604C4.764505 6.87372 4.808873 6.716723 4.938566 6.610921C5.040955 6.525597 5.05802 6.522184 5.535836 6.522184L6.027303 6.522184L6.027303 6.098976C6.027303 5.692833 6.030716 5.668942 6.112628 5.569966C6.160409 5.515358 6.235495 5.460751 6.27645 5.453925C6.416382 5.426621 7.133105 5.430034 7.651877 5.464164"/><path d="M6.539249 10.607508L6.539249 15.283275L7.129692 15.303753C9.15017 15.375426 10.604095 15.918088 11.518771 16.945391C11.62116 17.061432 11.71331 17.156995 11.723549 17.163821C11.733788 17.167234 11.740614 15.153583 11.733788 12.692832C11.723549 7.709897 11.744026 8.085324 11.488054 7.648464C11.098975 6.982935 10.167235 6.412969 9.047781 6.153583C8.566552 6.040955 7.996587 5.979522 7.238907 5.952218L6.539249 5.93174ZM10.941979 8.09215C11.047781 8.197952 11.034129 8.409556 10.921501 8.498293C10.832764 8.569965 10.798634 8.569965 9.160409 8.569965C7.689419 8.569965 7.474402 8.56314 7.372013 8.515358C7.197952 8.430034 7.156996 8.201365 7.296928 8.081911C7.361774 8.027303 7.498293 8.02389 9.119453 8.02389C10.829351 8.02389 10.877132 8.027303 10.941979 8.09215M10.921501 9.290102C11.034129 9.378839 11.047781 9.590443 10.941979 9.696245C10.873719 9.764505 10.83959 9.764505 9.119453 9.757679C7.450511 9.74744 7.361774 9.744027 7.293515 9.682593C7.1843 9.583617 7.194539 9.382252 7.31058 9.290102C7.399317 9.21843 7.433447 9.21843 9.11604 9.21843C10.798634 9.21843 10.832764 9.21843 10.921501 9.290102M10.945392 10.511945C11.047781 10.593856 11.047781 10.798634 10.945392 10.904436C10.873719 10.976109 10.849829 10.976109 9.225255 10.986348C8.320819 10.993173 7.532423 10.986348 7.470989 10.976109C7.296928 10.945392 7.215017 10.856655 7.215017 10.703071C7.215017 10.607508 7.235494 10.5529 7.290102 10.508532C7.361774 10.450511 7.484641 10.447098 9.11604 10.447098C10.774743 10.447098 10.870306 10.450511 10.945392 10.511945M10.901023 11.696245C11.071672 11.815699 11.05802 12.075085 10.877132 12.15017C10.812286 12.177474 10.290102 12.187713 9.075085 12.180887C7.450511 12.170648 7.361774 12.167235 7.293515 12.105801C7.1843 12.006825 7.194539 11.80546 7.31058 11.71331C7.399317 11.641638 7.433447 11.641638 9.112627 11.641638C10.627986 11.641638 10.832764 11.648464 10.901023 11.696245M10.941979 12.938566C11.027303 13.02389 11.034129 13.232081 10.952218 13.320818C10.901023 13.378839 10.798634 13.382252 9.136518 13.382252C7.133105 13.382252 7.221843 13.392491 7.221843 13.126279C7.221843 12.860068 7.136518 12.870306 9.122866 12.870306C10.829351 12.870306 10.877132 12.873719 10.941979 12.938566M10.938566 14.146757C10.98976 14.194538 11.010238 14.252559 11.010238 14.354948C11.010238 14.614334 11.105801 14.600682 9.143344 14.614334L7.399317 14.627985L7.31058 14.546074C7.156996 14.402729 7.201365 14.160409 7.392491 14.088736C7.419795 14.078497 8.215017 14.071671 9.153583 14.075084C10.784982 14.08191 10.870306 14.085323 10.938566 14.146757M16.044367 5.996587C15.402729 6.044368 14.996586 6.122867 14.470989 6.300341C13.477815 6.631399 12.77133 7.153583 12.443685 7.798634L12.290102 8.102389L12.279863 12.64505L12.273037 17.187712L12.378839 17.051193C12.569965 16.812286 12.928327 16.488054 13.211603 16.30034C14.160409 15.668941 15.30034 15.358361 16.873719 15.303753L17.46075 15.283275L17.46075 5.941979L17.044367 5.945392C16.812285 5.948805 16.361774 5.969283 16.044367 5.996587M16.672354 8.05802C16.754265 8.102389 16.825937 8.27645 16.798634 8.378839C16.788395 8.426621 16.730374 8.481228 16.658702 8.515358C16.5529 8.566553 16.365187 8.569965 14.82935 8.56314L13.119453 8.552901L13.037542 8.457337C12.93174 8.334471 12.93174 8.215017 13.040955 8.109215L13.122866 8.02389L14.866893 8.02389C15.918088 8.02389 16.634811 8.037542 16.672354 8.05802M16.641637 9.262798C16.839589 9.361774 16.860067 9.597269 16.67918 9.706484C16.58703 9.761092 16.433446 9.764505 14.877132 9.764505C13.580204 9.764505 13.156996 9.754266 13.092149 9.720136C12.918088 9.631399 12.918088 9.351535 13.092149 9.262798C13.215016 9.201365 16.51877 9.201365 16.641637 9.262798M16.696245 10.525597C16.815698 10.627986 16.822524 10.795221 16.713309 10.901023L16.638224 10.976109L13.119453 10.976109L13.037542 10.880545C12.93174 10.757679 12.93174 10.638225 13.040955 10.532423L13.122866 10.447098L16.604094 10.447098ZM16.665528 11.706484C16.784982 11.781569 16.839589 11.938566 16.781569 12.047781C16.706483 12.180887 16.563139 12.191126 14.808873 12.180887L13.133105 12.170648L13.044368 12.088737C12.904436 11.955631 12.935153 11.778156 13.109214 11.682593C13.156996 11.655289 13.709897 11.645051 14.866893 11.641638C16.474402 11.641638 16.563139 11.645051 16.665528 11.706484M16.651876 12.907849C16.7372 12.945392 16.812285 13.068259 16.812285 13.163822C16.812285 13.191125 16.774743 13.252559 16.726961 13.296928L16.64505 13.382252L13.095562 13.382252L13.027303 13.293515C12.986347 13.24232 12.95563 13.167235 12.95563 13.126279C12.95563 13.085323 12.986347 13.010238 13.027303 12.959044L13.095562 12.870306L14.832763 12.870306C16.034129 12.870306 16.597268 12.880545 16.651876 12.907849M16.624572 14.11604C16.825937 14.197951 16.866893 14.450511 16.696245 14.559726C16.624572 14.607508 16.385664 14.614334 14.894197 14.62116C13.303753 14.627985 13.167235 14.624572 13.08191 14.566552C12.89761 14.447098 12.921501 14.180887 13.126279 14.109214C13.211603 14.08191 13.706484 14.068259 14.877132 14.068259C16.228668 14.064846 16.529009 14.071671 16.624572 14.11604"/><path d="M5.320819 7.020478C5.286689 7.037542 5.27645 8.044368 5.27645 11.904436L5.27645 16.77133L5.406143 16.747439C5.941979 16.658702 6.238907 16.641637 7.290102 16.641637C8.726962 16.641637 9.054607 16.682593 10.030716 16.986347C10.569965 17.153583 11.020477 17.389077 11.416381 17.709896C11.546074 17.815698 11.559726 17.819111 11.522184 17.747439C11.279863 17.293514 10.665528 16.761091 9.98976 16.423207C9.245733 16.047781 8.419795 15.880545 7.153583 15.843002C6.249146 15.819112 6.208191 15.808873 6.095563 15.624572C6.030716 15.51877 6.027303 15.412968 6.027303 11.273037L6.027303 7.034129L5.764505 7.034129C5.617747 7.034129 5.467577 7.027303 5.430034 7.017065C5.392491 7.010239 5.341297 7.010239 5.320819 7.020478M17.996586 7.020478C17.982934 7.034129 17.972695 8.935153 17.972695 11.245733C17.972695 14.05802 17.959043 15.488054 17.935152 15.576791C17.873719 15.80546 17.822524 15.819112 16.914675 15.846415C16.474402 15.856654 15.982934 15.883958 15.822524 15.904436C14.894197 16.030716 14.136518 16.30034 13.484641 16.7372C13.146757 16.962456 12.443685 17.682593 12.443685 17.798634C12.443685 17.812286 12.525596 17.754265 12.624572 17.675767C13.286688 17.133105 14.341296 16.767917 15.556313 16.655289C16.136518 16.604094 17.754265 16.634811 18.276449 16.706484C18.491466 16.7372 18.67918 16.750852 18.696244 16.733787C18.709896 16.720135 18.720135 14.525596 18.716722 11.860068L18.706483 7.017065L18.361773 7.006826C18.17406 7.003413 18.010238 7.006826 17.996586 7.020478"/><path d="M4.156996 8.017064L4.081911 8.027303L4.088737 12.999999L4.098976 17.972695L7.52901 17.979521C11.382252 17.98976 11.085323 18.013651 10.515358 17.726961C9.877132 17.402729 9.286689 17.259385 8.245733 17.167234C7.686006 17.119453 6.450512 17.146757 5.90785 17.221842C5.703071 17.252559 5.416382 17.283275 5.27645 17.293514C5.047781 17.313992 5.010239 17.307166 4.928327 17.24232C4.877133 17.201364 4.819112 17.109214 4.798635 17.040955C4.778157 16.959043 4.764505 15.412968 4.764505 12.470989L4.764505 8.030716L4.501706 8.017064C4.354949 8.010239 4.201365 8.010239 4.156996 8.017064M19.23208 8.013652C19.23208 8.027303 19.228668 10.068259 19.225255 12.546074C19.218429 16.986347 19.218429 17.051193 19.150169 17.163821C19.044367 17.337883 18.969282 17.341296 18.143343 17.218429C17.638224 17.143344 15.938565 17.129692 15.447098 17.197951C14.354948 17.351535 13.901023 17.48464 13.313992 17.82935L13.040955 17.98976L19.918087 17.98976L19.911261 12.996586L19.901022 8.006826L19.569964 7.996587C19.385664 7.993174 19.235493 8 19.23208 8.013652"/></svg>
<text x="120" y="225" font-family="Consolas, monospace" font-size="15" fill="#202020">book_open_lines_24_filled</text>
<text x="120" y="248" font-family="Arial, sans-serif" font-size="13" fill="#666666">U+E002 · filled · 24 px</text>
<rect x="496" y="176" width="464" height="104" rx="12" fill="#f7f7f7" stroke="#dedede"/>
<svg x="516" y="196" width="64" height="64" viewBox="0 0 24 24" color="#202020"><path d="M5.93345 5.25394C5.726795 5.348511 5.677758 5.481611 5.677758 5.947461C5.677758 6.175131 5.66725 6.360771 5.65324 6.364273C5.635727 6.364273 5.418564 6.367776 5.169877 6.371278C4.798599 6.378284 4.69352 6.388792 4.616462 6.441331C4.434326 6.56042 4.399299 6.654991 4.385289 7.099825L4.374781 7.509632L3.982487 7.523643C3.555166 7.541156 3.411559 7.590193 3.30648 7.751314C3.246935 7.842382 3.243433 8.150613 3.243433 13.211909C3.243433 19.033275 3.232925 18.683012 3.432574 18.819615C3.516637 18.879159 3.758319 18.882662 7.180385 18.89317L10.837128 18.900175L10.970228 19.008757C11.218914 19.204904 11.422067 19.250438 12.045534 19.250438C12.683012 19.250438 12.865149 19.211909 13.113835 19.022767L13.271454 18.900175L16.910683 18.89317C20.34676 18.882662 20.553415 18.879159 20.661997 18.819615C20.89317 18.69352 20.87916 19.050788 20.87916 13.204904C20.87916 8.364273 20.875657 7.884413 20.823117 7.775832C20.718039 7.555166 20.651489 7.541156 19.768827 7.516638C19.733801 7.516638 19.723293 7.415061 19.723293 7.127846C19.723293 6.697023 19.681261 6.549912 19.52014 6.441331C19.443082 6.388792 19.345009 6.378284 18.963223 6.374781C18.711033 6.371278 18.486865 6.357268 18.46585 6.343257C18.441331 6.329247 18.427321 6.171629 18.427321 5.929947C18.427321 5.285464 18.33275 5.204904 17.597198 5.204904C16.245184 5.204904 14.917688 5.415061 14.101576 5.754816C13.709282 5.91944 13.278459 6.14711 13.043783 6.315236C12.739054 6.532399 12.364273 6.889667 12.241681 7.071804C12.073555 7.327496 12.063047 7.327496 11.894921 7.103328C11.323993 6.33275 10.189142 5.695271 8.924694 5.432574C8.269702 5.299475 7.698774 5.23993 6.833625 5.218914C6.182137 5.204904 6.024518 5.211909 5.93345 5.25394M8.059545 5.887916C9.859895 6.161121 11.068301 6.819615 11.583187 7.80035L11.754816 8.129597L11.765324 12.718039C11.768827 15.23993 11.765324 17.327496 11.754816 17.352014C11.744308 17.383538 11.649737 17.309983 11.485114 17.131349C11.348511 16.984238 11.148862 16.795096 11.04028 16.714536C10.809107 16.539405 10.245184 16.203152 10 16.094571C9.583187 15.912434 8.795096 15.674256 8.374781 15.604203C7.821366 15.509632 7.635727 15.492119 6.991243 15.471103L6.290718 15.450088L6.28021 10.619965L6.273205 5.789842L6.980736 5.810858C7.37303 5.824869 7.856392 5.859895 8.059545 5.887916M17.810858 5.831874C17.824869 5.85289 17.842382 13.831874 17.831874 15.418564C17.831874 15.443082 17.607706 15.464098 17.15937 15.478109C16.119089 15.513135 15.562172 15.607706 14.683012 15.891419C14.178634 16.05254 13.740806 16.262697 13.316988 16.542907C13.001751 16.753065 12.584939 17.127846 12.507881 17.271454C12.483363 17.316988 12.434326 17.362522 12.3993 17.369527C12.33275 17.38704 12.33275 17.271454 12.33275 12.900175C12.336252 9.327496 12.343258 8.367776 12.381786 8.196147C12.525394 7.530648 13.085814 6.931699 13.996497 6.476357C14.644483 6.150613 15.523643 5.922942 16.46585 5.838879C16.896673 5.796848 17.789843 5.793345 17.810858 5.831874M5.677758 11.397548L5.695271 15.824869L5.803853 15.91944L5.912434 16.017513L6.697023 16.038529C8.374781 16.087566 9.467601 16.381786 10.497373 17.064799C10.798599 17.264448 11.292469 17.730298 11.401051 17.91944C11.478109 18.05254 11.457093 18.045534 11.194396 17.849387C10.143608 17.057793 8.203152 16.739054 5.835377 16.970228C5.450088 17.005254 5.120841 17.04028 5.099825 17.043783C5.082312 17.047286 5.043783 17.050788 5.022767 17.047286C4.987741 17.043783 4.977233 16.010508 4.977233 12L4.977233 6.952715L5.32049 6.963222L5.660245 6.97373ZM19.10683 6.987741C19.131349 7.02627 19.138354 17.012259 19.113836 17.033275C19.10683 17.04028 18.882662 17.022767 18.61296 16.994746C17.418564 16.858144 16.598949 16.858144 15.380035 16.991244C14.406305 17.096322 13.352014 17.464098 12.910683 17.85289C12.872154 17.887916 12.795096 17.929948 12.742557 17.950963L12.644483 17.989492L12.718039 17.880911C13.033275 17.443082 13.548161 17.033275 14.171629 16.725044C15.117338 16.262697 15.978984 16.080561 17.429072 16.038529C17.835377 16.028021 18.192645 16.003503 18.227671 15.98599C18.262697 15.968476 18.322242 15.901927 18.357268 15.842382C18.423818 15.7338 18.427321 15.625219 18.427321 11.366025C18.427321 8.966725 18.437829 6.991243 18.451839 6.980736C18.486865 6.942207 19.085815 6.952715 19.10683 6.987741M4.388792 12.767075L4.399299 17.390543L4.472855 17.488617C4.602452 17.663748 4.707531 17.674256 5.450088 17.583188C7.58669 17.32049 9.50613 17.523643 10.535902 18.122592C10.654991 18.189142 10.74606 18.259195 10.735552 18.276708C10.714536 18.308231 3.961471 18.315237 3.877408 18.283713C3.824869 18.262697 3.821366 17.782837 3.821366 13.204904L3.821366 8.14711L4.381786 8.14711ZM20.290718 8.182137C20.297723 8.19965 20.294221 10.483363 20.283713 13.250438L20.2662 18.287216L16.858144 18.297723C14.980736 18.301226 13.422067 18.290718 13.394046 18.273205C13.352014 18.252189 13.38704 18.217163 13.544659 18.122592C13.975482 17.863398 14.658494 17.660245 15.467601 17.548161C16.094571 17.460596 17.677758 17.460596 18.357268 17.548161C18.616462 17.579685 18.97373 17.618214 19.152364 17.628722L19.474606 17.649737L19.600701 17.523643L19.723293 17.401051L19.723293 8.14711L20 8.14711C20.154116 8.14711 20.283713 8.161121 20.290718 8.182137"/><path d="M7.166375 7.940455C6.998249 8.035026 6.956217 8.234676 7.078809 8.357268C7.145359 8.423818 7.194396 8.427321 8.998249 8.427321C10.81261 8.427321 10.851138 8.427321 10.924694 8.357268C11.02627 8.262697 11.02627 8.077058 10.928196 7.98599C10.858144 7.922942 10.767075 7.91944 9.043783 7.912434C7.765324 7.905429 7.215412 7.912434 7.166375 7.940455M7.131349 9.204904C7.033275 9.260946 7.008757 9.302977 7.008757 9.432574C7.008757 9.509632 7.036778 9.565674 7.099825 9.614711C7.190893 9.688266 7.225919 9.688266 9.005254 9.688266C10.784589 9.688266 10.819615 9.688266 10.910683 9.614711C11.029772 9.52014 11.036778 9.338004 10.924694 9.232925C10.851138 9.162872 10.81261 9.162872 9.02627 9.162872C7.730298 9.166375 7.180385 9.176883 7.131349 9.204904M7.103328 10.469352C7.008757 10.535902 6.987741 10.742557 7.068301 10.837128L7.131349 10.917688L8.987741 10.914186C11.057793 10.914186 11.001751 10.917688 11.001751 10.686515C11.001751 10.609457 10.97373 10.535902 10.931699 10.49387C10.865149 10.427321 10.816112 10.423818 9.012259 10.423818C7.583187 10.423818 7.148862 10.434326 7.103328 10.469352M7.078809 11.754816C7.036778 11.796848 7.008757 11.870403 7.008757 11.943958C7.008757 12.182137 6.949212 12.175131 9.005254 12.175131C10.81261 12.175131 10.851138 12.175131 10.924694 12.105079C11.029772 12.007005 11.029772 11.814361 10.924694 11.740806C10.854641 11.691769 10.61296 11.684764 8.998249 11.684764C7.194396 11.684764 7.145359 11.688266 7.078809 11.754816M7.085814 12.991244C6.984238 13.099825 6.984238 13.260946 7.089317 13.359019L7.169877 13.436077L8.994746 13.436077C10.784589 13.436077 10.819615 13.436077 10.910683 13.362522C11.02627 13.271454 11.036778 13.085814 10.931699 12.980736C10.865149 12.914186 10.816112 12.910683 9.012259 12.910683L7.15937 12.910683ZM7.099825 14.245184C7.036778 14.294221 7.008757 14.350263 7.008757 14.427321C7.012259 14.700525 6.97373 14.697023 9.015762 14.697023C10.784589 14.697023 10.819615 14.697023 10.910683 14.623468C11.02627 14.532399 11.036778 14.34676 10.931699 14.241681C10.865149 14.175131 10.816112 14.171629 9.02627 14.171629C7.225919 14.171629 7.190893 14.171629 7.099825 14.245184M13.253941 7.954466C13.089317 8.024518 13.050788 8.217163 13.17338 8.350263L13.246935 8.427321L15.099825 8.427321C16.910683 8.427321 16.95972 8.423818 17.02627 8.357268C17.120841 8.262697 17.117338 8.073555 17.022767 7.98599C16.952715 7.922942 16.865149 7.91944 15.152364 7.915937C13.782837 7.912434 13.334501 7.922942 13.253941 7.954466M13.190893 9.250438C13.071804 9.366025 13.075307 9.52014 13.194396 9.614711C13.285464 9.688266 13.32049 9.688266 15.099825 9.688266C16.879159 9.688266 16.914186 9.688266 17.005254 9.614711C17.131349 9.516638 17.131349 9.334501 17.005254 9.236427C16.914186 9.162872 16.879159 9.162872 15.09282 9.162872L13.274956 9.162872ZM13.176883 10.514886C13.089317 10.62697 13.085814 10.728546 13.166375 10.833625L13.22592 10.914186L15.029772 10.914186C16.021016 10.917688 16.861646 10.917688 16.896673 10.917688C16.991244 10.914186 17.096322 10.784589 17.096322 10.669002C17.096322 10.609457 17.064799 10.532399 17.02627 10.49387C16.95972 10.427321 16.910683 10.423818 15.103328 10.423818L13.246935 10.423818ZM13.243433 11.709282C13.096322 11.761821 13.054291 11.98599 13.17338 12.105079C13.23993 12.171629 13.288967 12.175131 15.099825 12.175131C16.910683 12.175131 16.95972 12.171629 17.02627 12.105079C17.068301 12.063047 17.096322 11.989492 17.096322 11.915937C17.096322 11.677758 17.152364 11.684764 15.117338 11.688266C14.115587 11.688266 13.271454 11.698774 13.243433 11.709282M13.190893 12.998249C13.071804 13.113835 13.075307 13.267951 13.194396 13.362522C13.285464 13.436077 13.32049 13.436077 15.099825 13.436077C16.879159 13.436077 16.914186 13.436077 17.005254 13.362522C17.124343 13.267951 17.131349 13.09282 17.015762 12.987741L16.935202 12.910683L13.274956 12.910683ZM13.190893 14.259194C13.071804 14.374781 13.075307 14.528897 13.194396 14.623468C13.285464 14.697023 13.32049 14.697023 15.099825 14.697023C16.879159 14.697023 16.914186 14.697023 17.005254 14.623468C17.124343 14.528897 17.131349 14.34676 17.019265 14.241681C16.945709 14.171629 16.907181 14.171629 15.110333 14.171629L13.274956 14.171629Z"/></svg>
<text x="600" y="225" font-family="Consolas, monospace" font-size="15" fill="#202020">book_open_lines_24_regular</text>
<text x="600" y="248" font-family="Arial, sans-serif" font-size="13" fill="#666666">U+E003 · regular · 24 px</text>
<rect x="16" y="288" width="464" height="104" rx="12" fill="#f7f7f7" stroke="#dedede"/>
<svg x="36" y="308" width="64" height="64" viewBox="0 0 24 24" color="#202020"><path d="M6.160959 5.328767C5.996576 5.366439 5.876713 5.45548 5.80137 5.585617C5.732877 5.70548 5.722603 5.770548 5.729453 6.027398C5.732877 6.219178 5.719179 6.335617 5.695206 6.35274C5.674658 6.363014 5.50685 6.373288 5.325343 6.369863C5.037672 6.363014 4.976028 6.373288 4.842466 6.445206C4.626713 6.55822 4.554795 6.695206 4.534247 7.05137L4.517124 7.342466L4.140411 7.35959C3.70548 7.380138 3.571918 7.434932 3.465754 7.636987C3.40411 7.75685 3.40411 7.941781 3.40411 12.839042C3.40411 17.890413 3.40411 17.91781 3.476028 18.030824C3.513699 18.092468 3.60274 18.178084 3.671233 18.222605L3.797945 18.301372L7.349316 18.318495L10.897261 18.335618L10.979453 18.407536C11.023974 18.448632 11.126714 18.517125 11.21233 18.561646C11.35959 18.640413 11.400686 18.643838 12.017125 18.643838C12.623289 18.643838 12.678084 18.636988 12.839043 18.565071C12.934933 18.52055 13.047947 18.448632 13.095892 18.404112L13.184933 18.318495L16.726029 18.311646L20.27055 18.301372L20.404112 18.21918C20.47603 18.17466 20.565071 18.089043 20.599318 18.030824C20.660961 17.928084 20.664386 17.767125 20.664386 12.821919C20.664386 7.825343 20.664386 7.715754 20.595893 7.60959C20.479455 7.414384 20.383564 7.380138 19.948633 7.35959L19.551372 7.342466L19.534249 7.05137C19.503427 6.527398 19.32192 6.366439 18.760276 6.366439C18.585619 6.366439 18.421235 6.356165 18.390413 6.345891C18.345893 6.328768 18.335619 6.267124 18.335619 6.017124C18.335619 5.688356 18.301372 5.585617 18.147262 5.441781C18.058221 5.356165 18.051372 5.356165 17.332194 5.345891C16.479454 5.332192 15.91781 5.373288 15.304796 5.493151C14.243152 5.702055 13.575344 5.945206 13.003426 6.321918C12.695207 6.527398 12.2637 6.890411 12.208905 6.993151C12.184933 7.037672 12.136988 7.092466 12.095892 7.116439C12.034248 7.15411 12.017125 7.147261 11.921234 7.027398C11.219179 6.167809 9.695207 5.530822 7.958905 5.376713C7.520549 5.339041 6.267124 5.304795 6.160959 5.328767M8.232878 5.578767C8.890412 5.678082 9.582193 5.845891 10.099316 6.034247C10.321919 6.113014 10.863015 6.397261 11.106166 6.554795C11.383563 6.739726 11.797947 7.143836 11.91781 7.345891C11.965755 7.428083 12.020549 7.496576 12.037673 7.496576C12.051371 7.496576 12.106166 7.431507 12.150686 7.349316C12.260275 7.160959 12.705481 6.729452 12.976029 6.547946C13.455481 6.226028 14.157536 5.934932 14.859591 5.763699C15.647262 5.575343 15.976029 5.537672 16.952057 5.520548C17.61644 5.50685 17.900687 5.513699 17.952057 5.541096C18.106167 5.623288 18.147262 5.739726 18.164386 6.160959L18.181509 6.554795L18.626715 6.554795C19.27055 6.554795 19.304797 6.582192 19.328769 7.133562L19.345893 7.513699L19.811646 7.530822C20.143838 7.544521 20.294523 7.561644 20.335619 7.595891C20.500003 7.732877 20.493153 7.503425 20.493153 12.821919C20.493153 17.708906 20.493153 17.811646 20.42466 17.938358C20.380139 18.027399 20.32192 18.085618 20.246578 18.109591C20.167811 18.136988 19.143838 18.147262 16.609591 18.147262L13.082193 18.143838L13.0137 18.226029C12.832193 18.434934 12.5137 18.506851 11.883563 18.482879C11.424659 18.462331 11.2637 18.414386 11.089042 18.246577L10.982878 18.143838L7.448631 18.147262C3.544521 18.150687 3.784247 18.164386 3.643836 17.931509C3.575343 17.825344 3.575343 17.71918 3.575343 12.828768C3.575343 7.503425 3.568493 7.732877 3.732877 7.595891C3.773973 7.561644 3.924658 7.544521 4.25685 7.530822L4.722603 7.513699L4.739726 7.136987C4.75685 6.739726 4.794521 6.626713 4.917809 6.582192C4.962329 6.568494 5.198631 6.554795 5.441781 6.554795L5.886987 6.554795L5.90411 6.143836C5.921233 5.732877 5.952055 5.616439 6.068494 5.544521C6.143836 5.496576 7.873288 5.523973 8.232878 5.578767"/><path d="M6.441781 6.013699C6.428083 6.023973 6.417809 8.034247 6.417809 10.476028L6.417809 14.914385L7.147261 14.955481C8.424658 15.030823 9.133563 15.178084 9.921234 15.530824C10.595892 15.839043 11.191782 16.260276 11.554796 16.688358C11.657536 16.811646 11.750001 16.914385 11.760275 16.914385C11.777399 16.914385 11.770549 12.582193 11.750001 9.431508L11.743152 8.061644L11.60959 7.804795C11.434933 7.472603 11.023974 7.061644 10.643837 6.842466C10.089042 6.517124 9.198631 6.222603 8.438357 6.113014C7.708905 6.00685 6.50685 5.945206 6.441781 6.013699M10.976029 7.869864C11.078768 7.952055 11.085618 8.15411 10.989727 8.246576C10.924659 8.30822 10.825344 8.315069 9.181508 8.332192C7.373288 8.356165 7.20548 8.345891 7.136987 8.215754C7.082192 8.10959 7.095891 7.948631 7.171234 7.873288C7.239727 7.804795 7.284247 7.804795 9.068494 7.804795C10.804796 7.804795 10.900686 7.80822 10.976029 7.869864M10.993152 9.047946C11.089042 9.16096 11.099316 9.277398 11.017125 9.376713C10.955481 9.445206 10.931508 9.445206 9.099316 9.45548C7.321919 9.465754 7.243151 9.46233 7.174658 9.400686C7.037672 9.277398 7.092466 9.027398 7.273973 8.958905C7.301371 8.948631 8.133562 8.941782 9.116439 8.945206L10.91096 8.952056ZM10.921234 10.119864C11.003426 10.150686 11.078768 10.325343 11.054796 10.421234C11.006851 10.616439 11.030823 10.613015 9.089042 10.613015C7.30822 10.613015 7.202056 10.606165 7.130138 10.496576C7.078768 10.421234 7.10274 10.236302 7.171234 10.167809C7.236302 10.102741 7.284247 10.099316 9.051371 10.099316C10.047946 10.099316 10.890412 10.10959 10.921234 10.119864M10.886988 11.277398C11.044522 11.345891 11.099316 11.46233 11.041097 11.606165C11.017125 11.667809 10.958905 11.729453 10.914385 11.746576C10.86644 11.7637 10.047946 11.777398 9.05822 11.777398C7.315069 11.777398 7.280823 11.777398 7.191782 11.705481C7.123288 11.650686 7.10274 11.606165 7.10274 11.503426C7.10274 11.345891 7.164384 11.291097 7.373288 11.260275C7.458905 11.250001 8.25685 11.236302 9.147261 11.232878C10.50685 11.229453 10.784248 11.236302 10.886988 11.277398M10.917809 12.431508C11.017125 12.479453 11.092467 12.633563 11.05822 12.732878C11.003426 12.914385 11.075344 12.907536 9.095891 12.907536C7.023973 12.907536 7.10274 12.917809 7.10274 12.667809C7.10274 12.56507 7.123288 12.520549 7.191782 12.465755C7.280823 12.393837 7.315069 12.393837 9.05822 12.393837C10.304796 12.393837 10.856166 12.404111 10.917809 12.431508M10.845892 13.561645C11.099316 13.630138 11.143837 13.952056 10.917809 14.041097C10.856166 14.061645 10.184933 14.071919 9.037672 14.06507C7.332193 14.054796 7.243151 14.051371 7.174658 13.989727C7.126713 13.945207 7.10274 13.883563 7.10274 13.797947C7.10274 13.654111 7.15411 13.595892 7.318494 13.558221C7.493151 13.517125 10.695207 13.517125 10.845892 13.561645M16.537673 6.013699C15.547947 6.095891 14.82192 6.246576 14.106166 6.527398C13.311645 6.835617 12.773974 7.260274 12.472604 7.821918L12.325344 8.095891L12.308221 12.496577C12.297947 14.91781 12.291097 16.900687 12.294522 16.907536C12.297947 16.910961 12.404111 16.797947 12.534248 16.650687C13.130138 15.986303 14.202056 15.397262 15.27055 15.150687C15.794522 15.027399 17.184934 14.897262 17.500002 14.941782L17.650687 14.96233L17.650687 5.989726L17.164386 5.996576C16.893838 6 16.613016 6.00685 16.537673 6.013699M15.171235 8.150686C15.482879 8.20548 15.825344 8.386987 16.095892 8.640412C16.291098 8.818494 16.36644 8.921234 16.496577 9.181508C16.876714 9.945206 16.750002 10.760275 16.154112 11.386987C16.034248 11.510275 15.938358 11.626713 15.938358 11.647261C15.938358 11.726029 16.085618 11.914385 16.164385 11.934933C16.297947 11.969179 16.380139 12.095892 16.77055 12.873289C17.126714 13.585618 17.136988 13.613015 17.106166 13.746577C17.02055 14.089043 16.561646 14.16781 16.359591 13.880138C16.32192 13.825344 16.133564 13.472604 15.941783 13.099316C15.599317 12.434933 15.589043 12.41096 15.609591 12.243152C15.626714 12.102741 15.61644 12.047946 15.561646 11.955481C15.510276 11.869864 15.472605 11.845892 15.431509 11.863015C15.130139 11.976029 14.46918 11.972604 14.154111 11.849316C13.900687 11.753426 13.517125 11.482878 13.342467 11.273974C12.743152 10.575343 12.743152 9.46233 13.342467 8.780823C13.808221 8.250001 14.46918 8.023973 15.171235 8.150686"/><path d="M14.393837 8.60959C14.030824 8.743151 13.832193 8.886987 13.636988 9.16096C13.397262 9.493151 13.356166 9.623288 13.352741 10.047946C13.352741 10.41096 13.356166 10.434932 13.46918 10.664385C13.708906 11.150686 14.164385 11.465755 14.664385 11.496576C15.465755 11.541097 16.106166 11.037672 16.253427 10.239727C16.349317 9.726028 16.07192 9.10959 15.602742 8.797946C15.277399 8.582192 14.705481 8.493151 14.393837 8.60959M14.791098 8.914384C14.791098 9.003425 14.777399 9.017124 14.602741 9.061645C14.500002 9.085617 14.342467 9.15411 14.253426 9.21233C13.989728 9.383562 13.886988 9.578768 13.794522 10.082193C13.784248 10.136987 13.77055 10.191782 13.760276 10.208905C13.732878 10.253426 13.619865 10.239727 13.575344 10.184932C13.510276 10.106165 13.558221 9.753426 13.664385 9.513699C13.835618 9.133562 14.311646 8.787672 14.636988 8.804795C14.780824 8.815069 14.791098 8.821919 14.791098 8.914384M5.253425 7.092466L5.253425 11.777398C5.25 16.109591 5.253425 16.41781 5.30822 16.410961C5.339042 16.407536 5.582192 16.380139 5.849316 16.345892C6.441781 16.267125 8.061645 16.256851 8.575343 16.325344C9.753426 16.482878 10.825344 16.876714 11.386988 17.352742C11.458905 17.41781 11.520549 17.452057 11.520549 17.434933C11.520549 17.332194 11.000001 16.780824 10.681508 16.541098C9.708905 15.808221 8.592467 15.493152 6.856165 15.458906C6.434932 15.452056 6.119864 15.431508 6.078768 15.407536C5.897261 15.311645 5.90411 15.496577 5.90411 11.10959L5.90411 7.05137L5.578768 7.05137C5.342466 7.05137 5.253425 7.061644 5.253425 7.092466M18.164386 11.06507C18.164386 13.750001 18.150687 15.123289 18.126715 15.21233C18.068495 15.424659 18.027399 15.434933 17.215755 15.455481C16.184933 15.482878 15.489728 15.585618 14.811646 15.808221C14.2637 15.986303 13.568495 16.376714 13.174659 16.71918C12.993152 16.880139 12.606166 17.325344 12.626714 17.349317C12.636988 17.356166 12.739727 17.294522 12.859591 17.212331C13.496577 16.767125 14.400687 16.465755 15.493153 16.325344C16.023975 16.260276 17.613016 16.27055 18.181509 16.342467C18.428084 16.376714 18.678084 16.410961 18.739728 16.421235L18.849317 16.441783L18.849317 7.05137L18.164386 7.05137Z"/><path d="M4.106165 8.037672C4.082192 8.054795 4.078767 9.674658 4.089041 12.839042L4.106165 17.61644L7.496576 17.62329L10.886988 17.630139L10.801371 17.558221C10.681508 17.455481 10.150686 17.212331 9.825344 17.106166C9.034248 16.852742 8.578768 16.794522 7.376713 16.794522C6.424658 16.794522 5.886987 16.832194 5.345891 16.931509C5.065069 16.982879 4.910959 16.952057 4.80822 16.82192C4.739726 16.732879 4.739726 16.715755 4.739726 12.393837C4.739726 8.465754 4.732877 8.05137 4.684932 8.030823C4.609589 8.003425 4.147261 8.00685 4.106165 8.037672M19.345893 8.05137C19.335619 8.075343 19.325345 10.047946 19.32192 12.434933L19.311646 16.77055L19.229454 16.859591C19.126715 16.96918 19.089043 16.96918 18.421235 16.876714C17.678084 16.773974 16.263701 16.750002 15.613016 16.825344C14.804796 16.924659 14.21918 17.085618 13.619865 17.376714C13.407536 17.482879 13.232878 17.582194 13.232878 17.599317C13.232878 17.62329 14.414385 17.633564 16.606166 17.633564L19.979454 17.633564L19.979454 8.010275L19.671235 8.010275C19.455482 8.010275 19.356167 8.023973 19.345893 8.05137"/></svg>
<text x="120" y="337" font-family="Consolas, monospace" font-size="15" fill="#202020">book_open_lines_search_24_filled</text>
<text x="120" y="360" font-family="Arial, sans-serif" font-size="13" fill="#666666">U+E004 · filled · 24 px</text>
<rect x="496" y="288" width="464" height="104" rx="12" fill="#f7f7f7" stroke="#dedede"/>
<svg x="516" y="308" width="64" height="64" viewBox="0 0 24 24" color="#202020"><path d="M6.205933 5.242583C5.933682 5.267015 5.759162 5.361256 5.689354 5.521815C5.668411 5.57068 5.643979 5.783595 5.633507 5.996509L5.612565 6.380453L5.158813 6.397905C4.757417 6.411867 4.691099 6.425829 4.589878 6.495637C4.418848 6.621291 4.390925 6.694589 4.373473 7.13089L4.356021 7.532286L3.972077 7.549738C3.57068 7.56719 3.504363 7.588132 3.361256 7.74171L3.273996 7.835951L3.263525 12.991273L3.256544 18.150086L3.333333 18.247817C3.490401 18.44677 3.329843 18.439789 7.22513 18.439789L10.816753 18.439789L10.994763 18.575914C11.249563 18.764396 11.445025 18.806281 12.087259 18.806281C12.719021 18.806281 12.931936 18.757415 13.158812 18.561953L13.301918 18.439789L16.900522 18.439789C20.439788 18.439789 20.502616 18.439789 20.638741 18.369981C20.904012 18.233855 20.883069 18.673646 20.883069 12.987782C20.883069 7.993019 20.883069 7.877835 20.813261 7.769633C20.71204 7.598603 20.62478 7.56719 20.184989 7.549738L19.783593 7.532286L19.766141 7.13089C19.738218 6.485165 19.647467 6.397905 19.005234 6.397905C18.792319 6.397905 18.596857 6.387434 18.565443 6.376963C18.520068 6.359511 18.509597 6.289703 18.509597 5.982548C18.509597 5.5637 18.464222 5.445026 18.258288 5.312391C18.146595 5.246073 18.10471 5.242583 17.2356 5.256544C15.999998 5.280977 15.340313 5.38918 14.286212 5.752181C13.308899 6.08726 12.729493 6.481675 12.125653 7.22164C12.076788 7.277486 12.066316 7.273996 11.986037 7.162303C11.329842 6.289703 10.17801 5.692844 8.561954 5.38918C7.91972 5.270506 6.750436 5.197207 6.205933 5.242583M8.055846 5.944153C8.980802 6.083769 9.647469 6.279232 10.296683 6.607329C10.973821 6.952879 11.364746 7.315881 11.633507 7.842931L11.790575 8.153577L11.794065 12.495636C11.794065 14.88307 11.783594 16.844676 11.769632 16.855147C11.755671 16.862128 11.626526 16.753925 11.479929 16.610819C11.172774 16.307154 10.893542 16.10122 10.44328 15.846421C9.424083 15.270505 8.495636 15.040138 7.043629 14.994763C6.635253 14.984292 6.324607 14.959859 6.300174 14.938917C6.26178 14.907503 6.254799 14.202442 6.272251 10.834205C6.282722 8.596858 6.289703 6.554973 6.293193 6.296684L6.293193 5.82897L6.931937 5.849912C7.280977 5.860384 7.787085 5.902268 8.055846 5.944153M17.874344 10.373472C17.877834 13.434554 17.870853 14.904013 17.846421 14.931936C17.821988 14.963349 17.675391 14.977311 17.382197 14.980801C15.944152 14.994763 14.70855 15.280976 13.762651 15.818498C13.291447 16.087259 12.998254 16.303663 12.70855 16.596857C12.561953 16.746944 12.422337 16.869108 12.401395 16.869108C12.376962 16.869108 12.366491 15.535775 12.366491 12.561954C12.366491 8.363001 12.369981 8.247818 12.436299 8.031413C12.739964 7.05061 14.031412 6.275741 15.867363 5.979057C16.474693 5.881326 16.876089 5.846422 17.41012 5.853403L17.863873 5.856893ZM5.636998 11.165793L5.647469 15.305409L5.773123 15.417102L5.895288 15.532285L6.617801 15.553227C7.713786 15.588131 8.404886 15.696334 9.13787 15.940662C9.57417 16.087259 10.191971 16.390923 10.523559 16.62129C10.830715 16.834204 11.284467 17.249562 11.368236 17.392669C11.441535 17.521813 11.424083 17.514833 11.183245 17.329841C10.848167 17.075042 10.202442 16.7993 9.581151 16.645723C8.345549 16.338567 7.200697 16.310644 5.169284 16.544501L5.001745 16.565444L5.001745 12.01047C5.001745 9.504362 4.991274 7.357766 4.980802 7.239092L4.95637 7.026178L5.630017 7.026178ZM19.137869 11.790575C19.137869 16.303663 19.134379 16.554972 19.078532 16.554972C19.043628 16.554972 18.858637 16.53054 18.670155 16.502616C17.465967 16.321115 15.916229 16.35951 14.809772 16.596857C14.104711 16.746944 13.214658 17.106456 13.047119 17.305409C13.026177 17.329841 12.945898 17.378707 12.862128 17.420592L12.715531 17.4904L12.79232 17.382197C13.05759 17.008724 13.626526 16.558463 14.18499 16.27574C15.092494 15.818498 16.115182 15.598602 17.532284 15.553227L18.247817 15.532285L18.380452 15.40314L18.509597 15.270505L18.509597 7.026178L19.137869 7.026178ZM4.373473 12.541011C4.387434 16.104711 4.397905 16.935426 4.4363 17.001744C4.464223 17.047119 4.551483 17.113436 4.631762 17.14834C4.753926 17.204187 4.813263 17.211168 5.001745 17.183245C6.69808 16.935426 8.062827 16.938916 9.207678 17.186735C9.738219 17.301918 10.729493 17.692843 10.739964 17.794065C10.743455 17.832459 4.111693 17.867363 3.965096 17.828969L3.884817 17.811517L3.884817 8.139616L4.122164 8.150087L4.356021 8.160558ZM20.247816 8.184991C20.27923 8.216404 20.289701 9.336823 20.289701 13.015706C20.289701 17.472948 20.286211 17.804536 20.230364 17.825478C20.146595 17.856892 13.469458 17.846421 13.417102 17.815007C13.294938 17.738218 14.205932 17.343803 14.827224 17.200697C15.83944 16.97033 17.260033 16.935426 18.614309 17.113436C19.31937 17.207677 19.40663 17.207677 19.553227 17.134379C19.776612 17.015705 19.766141 17.273995 19.766141 12.488655L19.766141 8.143106L19.986036 8.143106C20.111691 8.143106 20.223384 8.160558 20.247816 8.184991"/><path d="M7.064572 7.884816C6.949389 8.031413 6.973821 8.150087 7.13438 8.230366C7.214659 8.275741 7.521814 8.282722 9.043629 8.282722C10.823734 8.282722 10.858638 8.282722 10.949388 8.209424C11.061081 8.122164 11.071552 7.965095 10.970331 7.863874C10.900523 7.794066 10.855147 7.794066 9.019196 7.794066L7.13438 7.794066ZM7.078533 9.029668C6.966841 9.141361 6.966841 9.239092 7.078533 9.347294L7.162303 9.434554L10.890051 9.434554L10.96335 9.354275C11.05061 9.260034 11.061081 9.127399 10.991273 9.029668C10.942407 8.966841 10.87609 8.96335 9.0541 8.952879L7.165793 8.942408ZM7.092495 10.198952C6.966841 10.324607 6.96335 10.408376 7.082024 10.520069L7.172774 10.603839L8.921465 10.61431C9.884816 10.621291 10.726002 10.61431 10.78883 10.603839C11.029667 10.558463 11.113437 10.342059 10.952879 10.18499L10.869109 10.09773L7.193717 10.09773ZM7.078533 11.371727C6.973821 11.476439 6.970331 11.560208 7.064572 11.682373L7.13438 11.773123L10.897032 11.773123L10.96684 11.682373C11.057591 11.563699 11.061081 11.445025 10.970331 11.354275C10.900523 11.284467 10.855147 11.284467 9.033158 11.284467L7.162303 11.284467ZM7.082024 12.523559C6.970331 12.628271 6.966841 12.750435 7.071553 12.848166L7.151832 12.924955L10.897032 12.924955L10.970331 12.848166C11.068062 12.739964 11.061081 12.596858 10.949388 12.509598C10.858638 12.436299 10.823734 12.436299 9.015706 12.436299L7.176265 12.436299ZM7.165793 13.630016C7.085514 13.657939 6.991273 13.794065 6.991273 13.877835C6.991273 13.912739 7.029668 13.979056 7.078533 14.027922L7.165793 14.115182L9.036648 14.104711L10.907503 14.09424L10.973821 14.01047C11.057591 13.909248 11.057591 13.790575 10.980802 13.699824C10.917975 13.630016 10.883071 13.626526 9.075043 13.616055C8.059336 13.609074 7.204188 13.616055 7.165793 13.630016M14.495636 8.136125C14.017451 8.26527 13.535775 8.631762 13.277486 9.064572C13.0541 9.441535 12.973821 10.041884 13.082023 10.513088C13.235601 11.162303 13.783594 11.720767 14.44328 11.895287C14.70506 11.965095 15.186735 11.965095 15.434553 11.898777C15.539265 11.870854 15.636997 11.853402 15.654449 11.863873C15.66841 11.874345 15.713786 11.944153 15.75218 12.020941C15.808026 12.129144 15.818498 12.195461 15.801046 12.324606C15.780103 12.481674 15.794065 12.520069 16.01745 12.942407C16.146595 13.193716 16.321115 13.532285 16.408375 13.703315C16.572424 14.034903 16.663175 14.111692 16.88307 14.111692C16.949387 14.111692 17.047119 14.09424 17.095984 14.069807C17.193716 14.024432 17.32286 13.811517 17.32286 13.696334C17.32286 13.619545 16.656194 12.303664 16.53403 12.136125C16.492145 12.076788 16.408375 12.00698 16.352529 11.986037C16.286211 11.958114 16.216403 11.881325 16.157066 11.776613L16.066316 11.609074L16.237346 11.465968C16.558463 11.197207 16.802791 10.729493 16.872599 10.261779C16.998253 9.406631 16.439789 8.499127 15.591621 8.188481C15.267014 8.069807 14.809772 8.048865 14.495636 8.136125M15.239091 8.544502C15.945654 8.692794 16.45127 9.316436 16.450259 10.038393C16.45026 10.376963 16.383943 10.607329 16.212913 10.855147C16.031412 11.123908 15.863873 11.270505 15.57766 11.40314C15.364745 11.504362 15.326351 11.511343 14.949388 11.511343C14.561953 11.511343 14.53752 11.507852 14.303664 11.392669C14.027922 11.256544 13.741709 10.991273 13.623035 10.757416C13.22513 9.982547 13.535775 9.022687 14.300173 8.649214C14.614309 8.495636 14.872599 8.467713 15.239091 8.544502"/><path d="M14.575915 8.820244C14.244327 8.928446 13.905758 9.239092 13.801046 9.539266C13.703315 9.821989 13.675391 10.09773 13.738219 10.18499C13.818498 10.289703 13.888306 10.202443 13.916229 9.972076C13.975566 9.472949 14.251308 9.144851 14.722512 9.015706C14.904012 8.96335 14.931936 8.945898 14.931936 8.8726C14.931936 8.802792 14.910993 8.78883 14.827224 8.781849C14.771377 8.778359 14.656194 8.795811 14.575915 8.820244"/></svg>
<text x="600" y="337" font-family="Consolas, monospace" font-size="15" fill="#202020">book_open_lines_search_24_regular</text>
<text x="600" y="360" font-family="Arial, sans-serif" font-size="13" fill="#666666">U+E005 · regular · 24 px</text>
<rect x="16" y="400" width="464" height="104" rx="12" fill="#f7f7f7" stroke="#dedede"/>
<svg x="36" y="420" width="64" height="64" viewBox="0 0 24 24" color="#202020"><path fill="#212121" fill-rule="evenodd" clip-rule="evenodd" d="M17.5 2H6A2.5 2.5 0 0 0 3.5 4.5v14.25c0 .414.336.75.75.75H18.5a1 1 0 0 1-1 1H4.25a.75.75 0 0 0 0 1.5H17.5a2.5 2.5 0 0 0 2.5-2.5V4.5A2.5 2.5 0 0 0 17.5 2zM10.688 5.171a3.724 3.724 0 1 0 2.071 6.82l2.476 2.475a.724.724 0 1 0 1.024-1.024l-2.476-2.475a3.724 3.724 0 0 0-3.095-5.796zm0 1.448a2.276 2.276 0 1 1 0 4.553 2.276 2.276 0 0 1 0-4.553z"/></svg>
<text x="120" y="449" font-family="Consolas, monospace" font-size="15" fill="#202020">book_search_trl_24_filled</text>
<text x="120" y="472" font-family="Arial, sans-serif" font-size="13" fill="#666666">U+E006 · filled · 24 px</text>
<rect x="496" y="400" width="464" height="104" rx="12" fill="#f7f7f7" stroke="#dedede"/>
<svg x="516" y="420" width="64" height="64" viewBox="0 0 24 24" color="#202020"><path fill="#212121" d="M13.784 11.795a3.724 3.724 0 1 0-1.024 1.024l2.476 2.475.067.058.007.006a.724.724 0 0 0 .943-1.093zm-3.095-4.348a2.276 2.276 0 1 1 0 4.553 2.276 2.276 0 0 1 0-4.553"/><path fill="#212121" d="M17.5 2A2.5 2.5 0 0 1 20 4.5v15a2.5 2.5 0 0 1-2.5 2.5H4.25a.75.75 0 0 1 0-1.5H17.5a1 1 0 0 0 1-1H4.25a.75.75 0 0 1-.75-.75V4.5A2.5 2.5 0 0 1 6 2zM5 18h13.5V4.5a1 1 0 0 0-1-1H6a1 1 0 0 0-1 1z"/></svg>
<text x="600" y="449" font-family="Consolas, monospace" font-size="15" fill="#202020">book_search_trl_24_regular</text>
<text x="600" y="472" font-family="Arial, sans-serif" font-size="13" fill="#666666">U+E007 · regular · 24 px</text>
<rect x="16" y="512" width="464" height="104" rx="12" fill="#f7f7f7" stroke="#dedede"/>
<svg x="36" y="532" width="64" height="64" viewBox="0 0 24 24" color="#202020"><path d="M10.536121 4.551331C10.114068 4.589353 9.771862 4.665399 9.277566 4.825095C8.254752 5.163498 7.25095 5.878327 6.581749 6.752851C6.528517 6.821292 6.448669 6.920152 6.403041 6.973384C6.357414 7.026615 6.30038 7.114068 6.269962 7.1673C6.243346 7.220532 6.212927 7.273764 6.201521 7.285171C6.1673 7.319391 6.049429 7.532319 5.95057 7.741444C5.897338 7.855513 5.836502 7.980988 5.81749 8.015209C5.798479 8.053231 5.78327 8.110266 5.78327 8.140684C5.78327 8.171102 5.76806 8.197718 5.745247 8.197718C5.726235 8.197718 5.707224 8.239543 5.707224 8.288973C5.707224 8.342205 5.692015 8.395437 5.669201 8.406843C5.65019 8.41825 5.631178 8.471482 5.631178 8.520912C5.631178 8.570342 5.615969 8.623574 5.593156 8.63498C5.570342 8.646387 5.555133 8.703421 5.555133 8.756653C5.555133 8.85171 5.509505 9.026615 5.437262 9.205322C5.30038 9.55133 5.323194 11.087452 5.475285 11.676805C5.494296 11.760455 5.524714 11.878326 5.536121 11.942965C5.558935 12.057033 5.608365 12.182509 5.673003 12.311786C5.692015 12.349809 5.707224 12.406843 5.707224 12.437261C5.707224 12.46768 5.722433 12.524714 5.741445 12.562737C5.760456 12.596957 5.836502 12.756653 5.912547 12.912546C6.076045 13.250949 6.171102 13.422052 6.212927 13.437261C6.228136 13.444866 6.239543 13.475284 6.239543 13.505702C6.239543 13.536121 6.258555 13.558934 6.277566 13.558934C6.30038 13.558934 6.315589 13.581748 6.315589 13.612166C6.315589 13.642584 6.326996 13.673003 6.346007 13.680607C6.368821 13.692014 6.486692 13.836501 6.695817 14.110265C6.86692 14.3346 7.444866 14.874523 7.745247 15.091253C8.547528 15.665398 9.395437 16.007603 10.349809 16.144485C10.771862 16.205322 11.821292 16.174904 12.209124 16.087451C12.942965 15.923953 13.775664 15.566539 14.304181 15.186311C14.463877 15.072242 14.612166 14.965778 14.63498 14.954371C14.653991 14.939162 14.794676 15.045626 14.939162 15.186311L15.209124 15.448668L15.224333 15.825094C15.243345 16.277565 15.269961 16.384029 15.403041 16.581748C15.528516 16.768059 18.342204 19.574143 18.528516 19.699618C18.692014 19.809884 19.01901 19.908744 19.220531 19.908744C19.950569 19.904941 20.558934 19.216728 20.482888 18.475284C20.429656 17.973382 20.414447 17.950569 18.733839 16.281367C17.608364 15.159695 17.163497 14.741444 17.038021 14.684409C16.908744 14.627375 16.779466 14.604562 16.505702 14.600759C16.307983 14.596957 16.121672 14.589352 16.095056 14.589352C16.049428 14.58555 15.806082 14.357413 15.615968 14.136881C15.543725 14.053231 15.543725 14.053231 15.657793 13.908744C16.182508 13.250949 16.581748 12.384029 16.779466 11.475284C16.889732 10.969581 16.897337 9.787071 16.794675 9.30038C16.395436 7.395437 15.288972 5.931559 13.615968 5.095057C12.692014 4.634981 11.63498 4.448669 10.536121 4.551331M12.133079 5.25095C12.912546 5.422053 13.661596 5.78327 14.288972 6.281368C14.558934 6.498098 15.076044 7.022813 15.163497 7.174904C15.20152 7.235741 15.243345 7.285171 15.258554 7.285171C15.273763 7.285171 15.288972 7.304182 15.288972 7.323193C15.288972 7.346007 15.31939 7.399239 15.361215 7.441064C15.399238 7.482889 15.471482 7.596958 15.520911 7.695817C15.570341 7.794676 15.619771 7.882129 15.631177 7.893536C15.673002 7.935361 15.897337 8.403041 15.897337 8.452471C15.897337 8.479087 15.916348 8.536121 15.93536 8.577946C15.958174 8.619771 15.992394 8.688212 16.011405 8.730037C16.034219 8.771862 16.049428 8.847908 16.049428 8.897338C16.049428 8.95057 16.06844 9.003802 16.087451 9.015208C16.110265 9.026615 16.125474 9.095056 16.125474 9.1673C16.125474 9.239543 16.140683 9.304182 16.159694 9.315589C16.212926 9.349809 16.250949 9.775665 16.250949 10.365018C16.250949 10.885931 16.220531 11.178706 16.129276 11.524714C16.110265 11.608364 16.079847 11.726235 16.06844 11.790874C16.053231 11.85171 16.026615 11.946767 16.003801 11.999999C15.980987 12.053231 15.946767 12.133079 15.931558 12.178706C15.912546 12.228136 15.882128 12.304182 15.863117 12.349809C15.794675 12.528516 15.650189 12.817489 15.623573 12.828896C15.604561 12.836501 15.593155 12.874524 15.593155 12.916349C15.593155 12.954372 15.577945 12.988592 15.555132 12.988592C15.53612 12.988592 15.517109 13.015208 15.517109 13.045626C15.517109 13.076045 15.5019 13.102661 15.479086 13.102661C15.460075 13.102661 15.441063 13.129276 15.441063 13.159695C15.441063 13.190113 15.425854 13.216729 15.403041 13.216729C15.384029 13.216729 15.365018 13.243345 15.365018 13.273763C15.365018 13.304181 15.349809 13.330797 15.326995 13.330797C15.307984 13.330797 15.288972 13.346007 15.288972 13.36882C15.288972 13.406843 15.212926 13.509505 15.079847 13.650189C14.908744 13.825094 14.908744 13.825094 15.612166 14.528516C16.212926 15.133079 16.28517 15.193915 16.40304 15.193915C16.749048 15.193915 16.707223 15.159695 18.273763 16.71863C19.091253 17.532318 19.779466 18.243344 19.806082 18.300379C19.874523 18.448668 19.859314 18.840303 19.779466 18.977185C19.600759 19.281367 19.178706 19.361215 18.859314 19.15209C18.61977 18.988592 15.912546 16.262356 15.859314 16.129276C15.817489 16.01901 15.798478 15.749048 15.825094 15.665398C15.847907 15.600759 14.547527 14.357413 14.460075 14.357413C14.422052 14.357413 14.326995 14.406843 14.258554 14.471482C14.186311 14.532318 14.11787 14.58555 14.10266 14.58555C14.087451 14.58555 14.053231 14.608364 14.026615 14.631177C13.714828 14.920151 12.855512 15.292774 12.114067 15.463877C11.577946 15.581748 10.68441 15.581748 10.140684 15.460075C9.608364 15.342204 9.174904 15.182508 8.711026 14.939162C7.353612 14.216729 6.361216 12.885931 6.026616 11.3346C5.942965 10.954372 5.931559 9.806083 6.007604 9.490494C6.03422 9.376425 6.079848 9.178707 6.110266 9.053231C6.182509 8.73384 6.365019 8.277566 6.570342 7.885931C7.045627 6.98479 7.908745 6.148289 8.855513 5.673003C9.216729 5.490494 9.745246 5.315589 10.193916 5.228137C10.650189 5.140684 11.688212 5.152091 12.133079 5.25095"/><path d="M10.669201 6.338403C9.806083 6.422053 8.977186 6.821292 8.277566 7.490494C8.11787 7.642585 7.988593 7.779467 7.988593 7.794676C7.988593 7.809885 7.965779 7.844106 7.942965 7.870722C7.790874 8.022813 7.646387 8.258555 7.475285 8.615969C7.41825 8.730037 7.357414 8.855513 7.338403 8.889733C7.319391 8.927756 7.304182 8.992395 7.304182 9.030418C7.304182 9.072243 7.288973 9.114068 7.269961 9.125475C7.239543 9.148288 7.21673 9.239543 7.1673 9.555132C7.155893 9.63498 7.129277 9.73384 7.110266 9.775665C7.064638 9.874524 7.087452 10.882128 7.144486 11.144486C7.1673 11.247147 7.197718 11.38403 7.209125 11.448668C7.231939 11.562737 7.281368 11.692014 7.346007 11.81749C7.365018 11.855512 7.380228 11.920151 7.380228 11.961976C7.380228 12.003801 7.399239 12.038022 7.41825 12.038022C7.441064 12.038022 7.456273 12.072242 7.456273 12.114067C7.456273 12.155893 7.46768 12.190113 7.486691 12.190113C7.501901 12.190113 7.536121 12.247147 7.566539 12.311786C7.657794 12.524714 7.908745 12.866919 8.171102 13.148288C8.695817 13.703421 9.380227 14.114067 10.11787 14.311786C10.429657 14.391634 10.562737 14.406843 11.087452 14.406843C11.593155 14.410645 11.749048 14.395436 12.007604 14.326995C13.58555 13.916349 14.695816 12.760455 15.064638 11.144486C15.140683 10.809885 15.133079 9.85171 15.049428 9.498098C14.790873 8.41825 14.190113 7.543726 13.300379 6.965779C12.745246 6.60076 12.220531 6.414448 11.539923 6.3346C11.163497 6.292775 11.155893 6.292775 10.669201 6.338403M11.999999 6.828897C12.361216 6.920152 12.916349 7.186311 13.20152 7.399239C13.532318 7.646387 13.954371 8.08365 14.098858 8.330798C14.315588 8.692015 14.45247 8.961977 14.45247 9.019011C14.45247 9.049429 14.467679 9.072243 14.486691 9.072243C14.505702 9.072243 14.528516 9.11787 14.539923 9.174904C14.55133 9.235741 14.581748 9.349809 14.604562 9.433459C14.71863 9.825094 14.783269 10.456273 14.71863 10.536121C14.657793 10.612166 14.475284 10.608364 14.399238 10.532319C14.326995 10.463878 14.311786 10.399239 14.281368 10.03422C14.190113 8.95057 13.441064 7.878326 12.46768 7.441064C12.114067 7.281368 11.699619 7.171102 11.3346 7.144486C11.072242 7.125475 10.999999 7.106463 10.927756 7.03422C10.821292 6.923954 10.81749 6.889733 10.920151 6.787072C10.996197 6.711026 11.030417 6.707224 11.349809 6.726235C11.539923 6.741444 11.832699 6.787072 11.999999 6.828897"/></svg>
<text x="120" y="561" font-family="Consolas, monospace" font-size="15" fill="#202020">search_full_24_filled</text>
<text x="120" y="584" font-family="Arial, sans-serif" font-size="13" fill="#666666">U+E008 · filled · 24 px</text>
<rect x="496" y="512" width="464" height="104" rx="12" fill="#f7f7f7" stroke="#dedede"/>
<svg x="516" y="532" width="64" height="64" viewBox="0 0 24 24" color="#202020"><path d="M10.079847 4.836502C9.155893 4.939163 8.243345 5.285171 7.505703 5.813688C7.136882 6.079848 7.049429 6.152091 6.73384 6.471482C6.456273 6.749049 6.414448 6.798479 6.258555 7.019011C6.209125 7.091254 6.136882 7.186311 6.098859 7.224334C6.060836 7.266159 6.030418 7.323193 6.030418 7.349809C6.030418 7.376425 6.019011 7.399239 6 7.399239C5.98479 7.399239 5.95057 7.456273 5.920152 7.520912C5.889733 7.589353 5.855513 7.653992 5.844106 7.665399C5.798479 7.703422 5.726235 7.855513 5.726235 7.912547C5.726235 7.942965 5.711026 7.969581 5.688213 7.969581C5.669201 7.969581 5.65019 7.996197 5.65019 8.026615C5.65019 8.057034 5.634981 8.11787 5.612167 8.159695C5.593156 8.20152 5.558935 8.269961 5.536121 8.311786C5.51711 8.353612 5.498099 8.422053 5.498099 8.460075C5.498099 8.501901 5.482889 8.547528 5.460076 8.558935C5.441064 8.570342 5.422053 8.623574 5.422053 8.673003C5.422053 8.722433 5.406844 8.775665 5.38403 8.787072C5.365019 8.798478 5.346007 8.878326 5.346007 8.958174C5.346007 9.038022 5.330798 9.11787 5.307984 9.129277C5.288973 9.140684 5.269962 9.220532 5.269962 9.30038C5.269962 9.380227 5.254753 9.460075 5.231939 9.471482C5.178707 9.5019 5.178707 11.076045 5.231939 11.106463C5.254753 11.11787 5.269962 11.197718 5.269962 11.277566C5.269962 11.357414 5.288973 11.437261 5.307984 11.448668C5.330798 11.460075 5.346007 11.539923 5.346007 11.619771C5.346007 11.699619 5.365019 11.779467 5.38403 11.790874C5.406844 11.80228 5.422053 11.847908 5.422053 11.889733C5.422053 11.927756 5.437262 11.992394 5.456273 12.030417C5.486692 12.091254 5.524714 12.178706 5.608365 12.387832C5.726235 12.692014 6 13.193915 6.114068 13.330797C6.152091 13.372622 6.182509 13.422052 6.182509 13.441064C6.182509 13.460075 6.193916 13.482889 6.212927 13.490493C6.228136 13.494295 6.315589 13.596957 6.410646 13.711025C7.174904 14.657793 8.254752 15.307983 9.547528 15.600759C9.973383 15.695816 11.28517 15.695816 11.676805 15.600759C12.410645 15.41825 13.053231 15.144485 13.604562 14.775664C13.836501 14.619771 13.912546 14.58555 13.965778 14.615968C14.003801 14.638782 14.182508 14.806082 14.365018 14.992394C14.619771 15.247147 14.699619 15.353611 14.699619 15.429656C14.699619 15.486691 14.684409 15.543725 14.661596 15.555132C14.612166 15.58555 14.612166 15.866919 14.661596 15.897337C14.684409 15.908744 14.699619 15.961976 14.699619 16.011405C14.699619 16.060835 14.71863 16.114067 14.737641 16.125474C14.760455 16.136881 14.775664 16.178706 14.775664 16.216729C14.775664 16.269961 17.349808 18.847907 17.942964 19.387831C18.342204 19.749048 19.007603 19.711025 19.414447 19.300379C19.75285 18.965778 19.851709 18.418249 19.650188 18.007603C19.593154 17.88593 19.114067 17.384029 17.980987 16.250949C16.422052 14.695816 16.387831 14.6692 16.171101 14.604562C16.003801 14.555132 15.882128 14.547527 15.684409 14.566539L15.41825 14.593155L15.087451 14.277565C14.904942 14.10266 14.741444 13.93536 14.726235 13.897337C14.699619 13.85171 14.741444 13.771862 14.889733 13.593155C15.41825 12.942965 15.813687 12.049429 15.973383 11.144486C16.079847 10.55133 16.034219 9.528516 15.874523 8.904942C15.642584 7.98479 15.129276 7.102661 14.414447 6.391635C13.650189 5.623574 12.688212 5.110266 11.650189 4.908745C11.338402 4.847908 10.380227 4.806083 10.079847 4.836502M11.391634 5.969581C12.030417 6.095057 12.661596 6.372623 13.197718 6.771863C13.513307 7.007604 14.167299 7.680608 14.167299 7.775665C14.167299 7.790874 14.20152 7.836501 14.243345 7.874524C14.28517 7.912547 14.31939 7.965779 14.31939 7.996197C14.31939 8.022813 14.330797 8.045627 14.349809 8.045627C14.365018 8.045627 14.41825 8.140684 14.471482 8.254752C14.524714 8.368821 14.577946 8.463878 14.596957 8.463878C14.612166 8.463878 14.623573 8.490494 14.623573 8.520912C14.623573 8.55133 14.638782 8.608364 14.657793 8.646387C14.676805 8.680608 14.711025 8.787072 14.737641 8.882129C14.764257 8.977186 14.798478 9.08365 14.817489 9.11787C14.836501 9.155893 14.85171 9.224334 14.85171 9.273764C14.85171 9.323193 14.866919 9.376425 14.88593 9.395437C14.904942 9.41825 14.931558 9.55133 14.942965 9.699619C14.954371 9.844106 14.973383 10.110265 14.988592 10.281368C15.003801 10.494296 14.999999 10.612166 14.96958 10.642585C14.946767 10.665398 14.927755 10.790874 14.927755 10.920151C14.927755 11.053231 14.912546 11.171102 14.889733 11.182509C14.870721 11.193915 14.85171 11.243345 14.85171 11.28517C14.85171 11.395436 14.749048 11.714828 14.657793 11.893535C14.638782 11.931558 14.623573 11.988592 14.623573 12.01901C14.623573 12.049429 14.612166 12.076045 14.593155 12.076045C14.577946 12.076045 14.543725 12.133079 14.513307 12.197718C14.448668 12.346007 14.034219 12.969581 13.923953 13.087451C13.878326 13.136881 13.798478 13.220531 13.745246 13.281368C13.692014 13.338402 13.581748 13.444866 13.498098 13.513307C13.41825 13.577946 13.300379 13.676805 13.23574 13.730037C12.999999 13.931558 12.41825 14.250949 12.06844 14.376425C11.577946 14.55133 11.159695 14.623573 10.646387 14.623573C8.63498 14.623573 6.908745 13.277565 6.361216 11.277566C6.041825 10.11787 6.342205 8.673003 7.114068 7.646387C7.387832 7.285171 7.81749 6.885931 8.216729 6.615969C8.707224 6.292775 9.1673 6.110266 9.927756 5.942965C10.11787 5.90114 11.125474 5.920152 11.391634 5.969581"/><path d="M10.543725 6.692015C10.395436 6.844106 10.509505 6.927756 10.904942 6.95057C11.311786 6.977186 11.703421 7.095057 12.129277 7.315589C12.479086 7.501901 12.942965 7.86692 13.129276 8.102661C13.186311 8.178707 13.273763 8.28517 13.319391 8.342205C13.391634 8.429657 13.661596 8.942965 13.749048 9.1673C13.821292 9.342205 13.870721 9.612167 13.931558 10.11787C13.950569 10.292775 13.973383 10.349809 14.026615 10.357414C14.212927 10.395436 14.250949 10.163497 14.148288 9.623573C14.003801 8.866919 13.692014 8.266159 13.178706 7.737642C12.555132 7.102661 11.771862 6.722433 10.927756 6.653992C10.653992 6.634981 10.596957 6.638783 10.543725 6.692015"/></svg>
<text x="600" y="561" font-family="Consolas, monospace" font-size="15" fill="#202020">search_full_24_regular</text>
<text x="600" y="584" font-family="Arial, sans-serif" font-size="13" fill="#666666">U+E009 · regular · 24 px</text>
</svg>
